G75*
G70*
%OFA0B0*%
%FSLAX24Y24*%
%IPPOS*%
%LPD*%
%AMOC8*
5,1,8,0,0,1.08239X$1,22.5*
%
%ADD10C,0.0000*%
%ADD11C,0.0720*%
%ADD12OC8,0.0800*%
%ADD13OC8,0.0720*%
%ADD14OC8,0.0760*%
%ADD15C,0.0920*%
%ADD16C,0.0800*%
%ADD17C,0.0750*%
%ADD18OC8,0.0750*%
%ADD19C,0.0840*%
%ADD20C,0.0400*%
%ADD21R,0.0396X0.0396*%
%ADD22R,0.0531X0.0531*%
%ADD23R,0.0500X0.0500*%
%ADD24R,0.0660X0.0660*%
%ADD25C,0.0320*%
%ADD26C,0.1000*%
D10*
X000100Y001233D02*
X000100Y032729D01*
X039470Y032729D01*
X039470Y001233D01*
X000100Y001233D01*
X003050Y010233D02*
X003052Y010283D01*
X003058Y010333D01*
X003068Y010383D01*
X003081Y010431D01*
X003098Y010479D01*
X003119Y010525D01*
X003143Y010569D01*
X003171Y010611D01*
X003202Y010651D01*
X003236Y010688D01*
X003273Y010723D01*
X003312Y010754D01*
X003353Y010783D01*
X003397Y010808D01*
X003443Y010830D01*
X003490Y010848D01*
X003538Y010862D01*
X003587Y010873D01*
X003637Y010880D01*
X003687Y010883D01*
X003738Y010882D01*
X003788Y010877D01*
X003838Y010868D01*
X003886Y010856D01*
X003934Y010839D01*
X003980Y010819D01*
X004025Y010796D01*
X004068Y010769D01*
X004108Y010739D01*
X004146Y010706D01*
X004181Y010670D01*
X004214Y010631D01*
X004243Y010590D01*
X004269Y010547D01*
X004292Y010502D01*
X004311Y010455D01*
X004326Y010407D01*
X004338Y010358D01*
X004346Y010308D01*
X004350Y010258D01*
X004350Y010208D01*
X004346Y010158D01*
X004338Y010108D01*
X004326Y010059D01*
X004311Y010011D01*
X004292Y009964D01*
X004269Y009919D01*
X004243Y009876D01*
X004214Y009835D01*
X004181Y009796D01*
X004146Y009760D01*
X004108Y009727D01*
X004068Y009697D01*
X004025Y009670D01*
X003980Y009647D01*
X003934Y009627D01*
X003886Y009610D01*
X003838Y009598D01*
X003788Y009589D01*
X003738Y009584D01*
X003687Y009583D01*
X003637Y009586D01*
X003587Y009593D01*
X003538Y009604D01*
X003490Y009618D01*
X003443Y009636D01*
X003397Y009658D01*
X003353Y009683D01*
X003312Y009712D01*
X003273Y009743D01*
X003236Y009778D01*
X003202Y009815D01*
X003171Y009855D01*
X003143Y009897D01*
X003119Y009941D01*
X003098Y009987D01*
X003081Y010035D01*
X003068Y010083D01*
X003058Y010133D01*
X003052Y010183D01*
X003050Y010233D01*
X003050Y019233D02*
X003052Y019283D01*
X003058Y019333D01*
X003068Y019383D01*
X003081Y019431D01*
X003098Y019479D01*
X003119Y019525D01*
X003143Y019569D01*
X003171Y019611D01*
X003202Y019651D01*
X003236Y019688D01*
X003273Y019723D01*
X003312Y019754D01*
X003353Y019783D01*
X003397Y019808D01*
X003443Y019830D01*
X003490Y019848D01*
X003538Y019862D01*
X003587Y019873D01*
X003637Y019880D01*
X003687Y019883D01*
X003738Y019882D01*
X003788Y019877D01*
X003838Y019868D01*
X003886Y019856D01*
X003934Y019839D01*
X003980Y019819D01*
X004025Y019796D01*
X004068Y019769D01*
X004108Y019739D01*
X004146Y019706D01*
X004181Y019670D01*
X004214Y019631D01*
X004243Y019590D01*
X004269Y019547D01*
X004292Y019502D01*
X004311Y019455D01*
X004326Y019407D01*
X004338Y019358D01*
X004346Y019308D01*
X004350Y019258D01*
X004350Y019208D01*
X004346Y019158D01*
X004338Y019108D01*
X004326Y019059D01*
X004311Y019011D01*
X004292Y018964D01*
X004269Y018919D01*
X004243Y018876D01*
X004214Y018835D01*
X004181Y018796D01*
X004146Y018760D01*
X004108Y018727D01*
X004068Y018697D01*
X004025Y018670D01*
X003980Y018647D01*
X003934Y018627D01*
X003886Y018610D01*
X003838Y018598D01*
X003788Y018589D01*
X003738Y018584D01*
X003687Y018583D01*
X003637Y018586D01*
X003587Y018593D01*
X003538Y018604D01*
X003490Y018618D01*
X003443Y018636D01*
X003397Y018658D01*
X003353Y018683D01*
X003312Y018712D01*
X003273Y018743D01*
X003236Y018778D01*
X003202Y018815D01*
X003171Y018855D01*
X003143Y018897D01*
X003119Y018941D01*
X003098Y018987D01*
X003081Y019035D01*
X003068Y019083D01*
X003058Y019133D01*
X003052Y019183D01*
X003050Y019233D01*
D11*
X024100Y012233D03*
X025100Y012233D03*
X026100Y012233D03*
X027100Y012233D03*
X028600Y012233D03*
X029600Y012233D03*
X030600Y012233D03*
X031600Y012233D03*
X031600Y009233D03*
X030600Y009233D03*
X029600Y009233D03*
X028600Y009233D03*
X027100Y009233D03*
X026100Y009233D03*
X025100Y009233D03*
X024100Y009233D03*
X029100Y024233D03*
X029100Y025233D03*
X029100Y026233D03*
X029100Y027233D03*
X032100Y027233D03*
X032100Y026233D03*
X032100Y025233D03*
X032100Y024233D03*
D12*
X030100Y004733D03*
X030100Y002733D03*
X026100Y003733D03*
D13*
X025100Y004233D03*
X026600Y006733D03*
X025100Y008233D03*
X030600Y006733D03*
X029100Y014233D03*
X027600Y014233D03*
X026100Y014233D03*
X025100Y014233D03*
X025100Y018233D03*
X026100Y018233D03*
X027600Y018233D03*
X029100Y018233D03*
X026600Y021733D03*
X026600Y025733D03*
X026600Y026733D03*
X025100Y029733D03*
X025100Y030733D03*
X026600Y030733D03*
X028600Y030733D03*
X032600Y030733D03*
X021100Y030733D03*
X021100Y029733D03*
X009100Y031233D03*
X008100Y031233D03*
X006600Y031733D03*
X006600Y027733D03*
X009600Y016233D03*
X009600Y015233D03*
X011100Y011733D03*
X011100Y010233D03*
X015100Y010233D03*
X015100Y011733D03*
X013600Y015233D03*
X013600Y016233D03*
D14*
X019600Y019733D03*
X019600Y021733D03*
X019600Y023733D03*
X022600Y023733D03*
X022600Y021733D03*
X022600Y019733D03*
X023600Y019733D03*
X026600Y019733D03*
X027600Y019733D03*
X029100Y021733D03*
X030600Y019733D03*
X031600Y019733D03*
X032100Y021733D03*
X034600Y019733D03*
X025100Y025733D03*
X025100Y028733D03*
D15*
X021560Y028223D02*
X020640Y028223D01*
X020640Y026253D02*
X021560Y026253D01*
X034610Y029773D02*
X034610Y030693D01*
X036580Y030693D02*
X036580Y029773D01*
X022580Y005193D02*
X022580Y004273D01*
X020610Y004273D02*
X020610Y005193D01*
X014570Y004193D02*
X014570Y003273D01*
X012600Y003273D02*
X012600Y004193D01*
X010630Y004193D02*
X010630Y003273D01*
X033110Y003273D02*
X033110Y004193D01*
X035080Y004193D02*
X035080Y003273D01*
X005080Y029273D02*
X005080Y030193D01*
X003110Y030193D02*
X003110Y029273D01*
D16*
X002000Y026233D02*
X001200Y026233D01*
X001200Y024733D02*
X002000Y024733D01*
X005200Y024733D02*
X006000Y024733D01*
X006000Y026233D02*
X005200Y026233D01*
X015600Y020133D02*
X015600Y019333D01*
X015600Y016133D02*
X015600Y015333D01*
X015500Y013733D02*
X014700Y013733D01*
X011500Y013733D02*
X010700Y013733D01*
D17*
X013600Y018233D03*
X018600Y014733D03*
X017600Y010733D03*
X012100Y008233D03*
X008600Y027233D03*
X011600Y029233D03*
D18*
X011600Y027233D03*
X008600Y029233D03*
X011600Y018233D03*
X016600Y014733D03*
X017600Y012733D03*
X014100Y008233D03*
D19*
X010020Y009233D02*
X009180Y009233D01*
X009180Y010233D02*
X010020Y010233D01*
X010020Y011233D02*
X009180Y011233D01*
X009180Y018233D02*
X010020Y018233D01*
X010020Y019233D02*
X009180Y019233D01*
X009180Y020233D02*
X010020Y020233D01*
D20*
X009600Y020233D02*
X013100Y023733D01*
X017600Y023733D01*
X018600Y024733D01*
X021100Y024733D01*
X027100Y027733D02*
X027600Y027233D01*
X031600Y015733D02*
X031600Y012233D01*
X032600Y011233D02*
X032600Y014733D01*
X032600Y011233D02*
X029100Y011233D01*
X028600Y011733D01*
X028600Y012233D02*
X027600Y011233D01*
X024100Y011233D01*
X024100Y012233D01*
X016100Y013233D02*
X016100Y009733D01*
X016100Y013233D01*
X015600Y013233D01*
X015100Y013733D01*
D21*
X012600Y013733D03*
X013100Y006233D03*
X031600Y015733D03*
X032600Y014733D03*
D22*
X032600Y014733D03*
X031600Y015733D03*
D23*
X027100Y027733D03*
X016100Y009733D03*
D24*
X016100Y009733D03*
X013100Y006233D03*
X012600Y013733D03*
X022100Y012733D03*
X022600Y015233D03*
X025100Y019733D03*
X024100Y022233D03*
X021100Y024733D03*
X027100Y027733D03*
X028100Y022233D03*
X028600Y019733D03*
X030100Y017233D03*
X031600Y015733D03*
X032600Y014733D03*
X033600Y017233D03*
X034600Y010733D03*
X028600Y006733D03*
D25*
X030600Y008733D01*
X030600Y009233D01*
X031600Y009233D02*
X033100Y009233D01*
X034600Y010733D01*
X031600Y009233D02*
X030600Y010233D01*
X027600Y010233D01*
X027100Y009733D01*
X027100Y009233D01*
X028600Y011733D02*
X028600Y012233D01*
X029600Y012233D02*
X027600Y014233D01*
X026100Y014233D02*
X026100Y012233D01*
X029100Y014233D02*
X030600Y012733D01*
X030600Y012233D01*
X030100Y017233D02*
X033600Y017233D01*
X028600Y019733D02*
X028100Y020233D01*
X028100Y022233D01*
X025100Y021233D02*
X025100Y019733D01*
X025100Y021233D02*
X024100Y022233D01*
X027600Y026733D02*
X029100Y025233D01*
X029100Y026233D02*
X029600Y026233D01*
X030100Y026733D01*
X030100Y029233D01*
X028600Y030733D01*
X031100Y029233D02*
X031100Y026233D01*
X032100Y025233D01*
X031100Y029233D02*
X032600Y030733D01*
X027600Y027233D02*
X027600Y026733D01*
X022600Y015233D02*
X022100Y014733D01*
X022100Y012733D01*
X022100Y014733D01*
X013100Y013233D02*
X012600Y013733D01*
X013100Y013233D02*
X013100Y006233D01*
D26*
X001100Y002233D03*
X001100Y031733D03*
X038600Y031733D03*
X038600Y002233D03*
M02*
