G75*
G70*
%OFA0B0*%
%FSLAX24Y24*%
%IPPOS*%
%LPD*%
%AMOC8*
5,1,8,0,0,1.08239X$1,22.5*
%
%ADD10C,0.0520*%
%ADD11OC8,0.0700*%
%ADD12OC8,0.0520*%
%ADD13OC8,0.0560*%
%ADD14C,0.0780*%
%ADD15C,0.0600*%
%ADD16C,0.0750*%
%ADD17OC8,0.0750*%
%ADD18C,0.0660*%
%ADD19C,0.0400*%
%ADD20C,0.0320*%
%ADD21R,0.0396X0.0396*%
%ADD22R,0.0531X0.0531*%
%ADD23R,0.0500X0.0500*%
%ADD24R,0.0660X0.0660*%
%ADD25C,0.1000*%
D10*
X024100Y009233D03*
X025100Y009233D03*
X026100Y009233D03*
X027100Y009233D03*
X028600Y009233D03*
X029600Y009233D03*
X030600Y009233D03*
X031600Y009233D03*
X031600Y012233D03*
X030600Y012233D03*
X029600Y012233D03*
X028600Y012233D03*
X027100Y012233D03*
X026100Y012233D03*
X025100Y012233D03*
X024100Y012233D03*
X029100Y024233D03*
X029100Y025233D03*
X029100Y026233D03*
X029100Y027233D03*
X032100Y027233D03*
X032100Y026233D03*
X032100Y025233D03*
X032100Y024233D03*
D11*
X030100Y004733D03*
X030100Y002733D03*
X026100Y003733D03*
D12*
X025100Y004233D03*
X026600Y006733D03*
X025100Y008233D03*
X030600Y006733D03*
X029100Y014233D03*
X027600Y014233D03*
X026100Y014233D03*
X025100Y014233D03*
X025100Y018233D03*
X026100Y018233D03*
X027600Y018233D03*
X029100Y018233D03*
X026600Y021733D03*
X026600Y025733D03*
X026600Y026733D03*
X025100Y029733D03*
X025100Y030733D03*
X026600Y030733D03*
X028600Y030733D03*
X032600Y030733D03*
X021100Y030733D03*
X021100Y029733D03*
X009100Y031233D03*
X008100Y031233D03*
X006600Y031733D03*
X006600Y027733D03*
X009600Y016233D03*
X009600Y015233D03*
X011100Y011733D03*
X011100Y010233D03*
X015100Y010233D03*
X015100Y011733D03*
X013600Y015233D03*
X013600Y016233D03*
D13*
X019600Y019733D03*
X019600Y021733D03*
X019600Y023733D03*
X022600Y023733D03*
X022600Y021733D03*
X022600Y019733D03*
X023600Y019733D03*
X026600Y019733D03*
X027600Y019733D03*
X029100Y021733D03*
X030600Y019733D03*
X031600Y019733D03*
X032100Y021733D03*
X034600Y019733D03*
X025100Y025733D03*
X025100Y028733D03*
D14*
X021490Y028223D02*
X020710Y028223D01*
X020710Y026253D02*
X021490Y026253D01*
X034610Y029843D02*
X034610Y030623D01*
X036580Y030623D02*
X036580Y029843D01*
X022580Y005123D02*
X022580Y004343D01*
X020610Y004343D02*
X020610Y005123D01*
X014570Y004123D02*
X014570Y003343D01*
X012600Y003343D02*
X012600Y004123D01*
X010630Y004123D02*
X010630Y003343D01*
X033110Y003343D02*
X033110Y004123D01*
X035080Y004123D02*
X035080Y003343D01*
X005080Y029343D02*
X005080Y030123D01*
X003110Y030123D02*
X003110Y029343D01*
D15*
X001900Y026233D02*
X001300Y026233D01*
X001300Y024733D02*
X001900Y024733D01*
X005300Y024733D02*
X005900Y024733D01*
X005900Y026233D02*
X005300Y026233D01*
X015600Y020033D02*
X015600Y019433D01*
X015600Y016033D02*
X015600Y015433D01*
X015400Y013733D02*
X014800Y013733D01*
X011400Y013733D02*
X010800Y013733D01*
D16*
X013600Y018233D03*
X018600Y014733D03*
X017600Y010733D03*
X012100Y008233D03*
X008600Y027233D03*
X011600Y029233D03*
D17*
X011600Y027233D03*
X008600Y029233D03*
X011600Y018233D03*
X016600Y014733D03*
X017600Y012733D03*
X014100Y008233D03*
D18*
X009930Y009233D02*
X009270Y009233D01*
X009270Y010233D02*
X009930Y010233D01*
X009930Y011233D02*
X009270Y011233D01*
X009270Y018233D02*
X009930Y018233D01*
X009930Y019233D02*
X009270Y019233D01*
X009270Y020233D02*
X009930Y020233D01*
D19*
X009600Y020233D02*
X011600Y020233D01*
X012600Y019233D01*
X012600Y015233D01*
X013600Y015233D01*
X013600Y013733D01*
X014600Y012733D01*
X017600Y012733D01*
X018100Y011733D02*
X015100Y011733D01*
X013100Y011733D01*
X011100Y013733D01*
X010100Y012733D01*
X010100Y011733D01*
X009600Y011233D01*
X009600Y010233D02*
X011100Y010233D01*
X011100Y011733D01*
X011100Y010233D02*
X012100Y009233D01*
X012100Y008233D01*
X014100Y008233D02*
X015100Y009233D01*
X015600Y009233D01*
X016100Y009733D01*
X015100Y009233D02*
X015100Y010233D01*
X015600Y010733D01*
X017600Y010733D01*
X018100Y011733D02*
X018600Y012233D01*
X018600Y014733D01*
X021600Y014733D01*
X024100Y012233D01*
X019600Y015733D02*
X019600Y019733D01*
X019600Y021733D01*
X021600Y021733D02*
X019600Y023733D01*
X015600Y019733D01*
X014100Y018233D01*
X013600Y018233D01*
X013600Y016233D01*
X014600Y017233D01*
X016100Y017233D01*
X016600Y016733D01*
X016600Y014733D01*
X016100Y014733D01*
X015100Y013733D01*
X015100Y015233D02*
X013600Y015233D01*
X015100Y015233D02*
X015600Y015733D01*
X018600Y014733D02*
X019600Y015733D01*
X022600Y019733D02*
X022600Y021733D01*
X021600Y021733D01*
X022100Y023733D02*
X022600Y023733D01*
X025100Y025733D02*
X026600Y025733D01*
X026600Y026733D01*
X027100Y027733D02*
X026100Y028733D01*
X025100Y028733D01*
X025100Y029733D01*
X024580Y026253D02*
X021100Y026253D01*
X019600Y024753D01*
X019600Y023733D01*
X022600Y019733D02*
X023600Y019733D01*
X024600Y020733D01*
X029600Y020733D01*
X030600Y019733D01*
X031600Y018733D01*
X031600Y015733D01*
X032600Y014733D02*
X032600Y018733D01*
X034600Y019733D01*
X031600Y019733D02*
X030600Y019733D01*
X025100Y025733D02*
X024580Y026253D01*
X029100Y028733D02*
X035100Y028733D01*
X036580Y030213D01*
X036580Y030233D01*
X034610Y030233D02*
X034110Y030733D01*
X033100Y030733D01*
X031600Y012233D02*
X031600Y010733D01*
X032100Y010233D01*
X032600Y010233D01*
X032600Y009233D01*
X030600Y007233D01*
X030600Y006733D01*
X031100Y006233D01*
X031100Y002733D01*
X031600Y002733D01*
X032100Y002233D01*
X034600Y002233D01*
X035100Y002733D01*
X035100Y003713D01*
X031100Y002733D02*
X030100Y002733D01*
X011600Y018233D02*
X009600Y018233D01*
X009600Y016233D01*
X009600Y015233D01*
X007600Y018733D02*
X007100Y019233D01*
X007100Y022733D01*
X006600Y023233D01*
X005600Y023233D01*
X004100Y024733D01*
X004100Y025233D01*
X005100Y026233D01*
X005600Y026233D01*
X007600Y024733D02*
X008100Y024233D01*
X008100Y019733D01*
X008600Y019233D01*
X009600Y019233D01*
X007600Y018733D02*
X007600Y010233D01*
X008600Y009233D01*
X009600Y009233D01*
D20*
X013100Y006233D02*
X014570Y004763D01*
X014570Y003733D01*
X015600Y002733D02*
X015600Y006733D01*
X014100Y008233D01*
X016600Y008233D02*
X018600Y010233D01*
X018600Y014733D01*
X022100Y012733D02*
X022100Y005233D01*
X022580Y004753D01*
X022580Y004733D01*
X022100Y005233D02*
X022100Y012733D01*
X022600Y015233D02*
X022600Y019733D01*
X025100Y019733D02*
X026600Y019733D01*
X027600Y019733D01*
X028600Y019733D01*
X029100Y019233D01*
X029100Y018233D01*
X030100Y017233D01*
X027600Y018233D02*
X027600Y015733D01*
X029100Y014233D01*
X027600Y014233D02*
X026600Y015233D01*
X026600Y017233D01*
X026100Y017733D01*
X026100Y018233D01*
X025100Y018233D02*
X025100Y016233D01*
X026100Y015233D01*
X026100Y014233D01*
X026100Y013233D02*
X032100Y013233D01*
X033600Y011733D01*
X033600Y004223D01*
X033110Y003733D01*
X035080Y003733D02*
X035100Y003713D01*
X030100Y004733D02*
X030100Y005233D01*
X029600Y005733D01*
X029600Y009233D01*
X028600Y009233D01*
X027600Y007233D02*
X027600Y004233D01*
X026100Y003733D01*
X025100Y004233D02*
X025100Y005733D01*
X024100Y006733D01*
X024100Y009233D01*
X027100Y012233D01*
X026100Y013233D02*
X025100Y012233D01*
X025100Y014233D01*
X025100Y009233D02*
X025100Y008233D01*
X026600Y006733D01*
X027600Y007233D02*
X026100Y008733D01*
X026100Y009233D01*
X028600Y006733D02*
X028600Y004233D01*
X027100Y002733D01*
X022610Y002733D01*
X020610Y004733D01*
X016600Y002733D02*
X016600Y008233D01*
X012600Y003733D02*
X012600Y002733D01*
X013100Y002233D01*
X015100Y002233D01*
X015600Y002733D01*
X015600Y001733D02*
X016600Y002733D01*
X015600Y001733D02*
X011600Y001733D01*
X010630Y002703D01*
X010630Y003733D01*
X012600Y013733D02*
X012600Y015233D01*
X021100Y024733D02*
X022100Y023733D01*
X022600Y023733D02*
X024100Y022233D01*
X026600Y021733D02*
X026600Y023733D01*
X027600Y024733D01*
X027600Y025733D01*
X028100Y026233D01*
X029100Y026233D01*
X029100Y025233D02*
X029600Y025233D01*
X030100Y024733D01*
X030100Y022733D01*
X029100Y021733D01*
X028100Y022233D02*
X028100Y023233D01*
X029100Y024233D01*
X031100Y024733D02*
X031100Y022733D01*
X032100Y021733D01*
X033600Y020733D02*
X034600Y019733D01*
X033600Y020733D02*
X033600Y025233D01*
X032600Y026233D01*
X032100Y026233D01*
X032100Y025233D02*
X031600Y025233D01*
X031100Y024733D01*
X028100Y027233D02*
X028100Y027733D01*
X029100Y028733D01*
X028100Y027233D02*
X027600Y026733D01*
X026600Y026733D01*
X022600Y029733D02*
X023600Y030733D01*
X025100Y030733D01*
X026600Y030733D01*
X022600Y029733D02*
X021100Y029733D01*
X021100Y030733D02*
X020100Y030733D01*
X019600Y030233D01*
X019600Y029233D01*
X020610Y028223D01*
X021100Y028223D01*
X021100Y026253D02*
X018600Y028753D01*
X018600Y031233D01*
X018100Y031733D01*
X014600Y031733D01*
X012100Y029233D01*
X011600Y029233D01*
X008600Y029233D01*
X005580Y029233D01*
X005080Y029733D01*
X003110Y029733D02*
X001600Y028223D01*
X001600Y026233D01*
X001600Y024733D01*
X005110Y027733D02*
X003110Y029733D01*
X005110Y027733D02*
X006600Y027733D01*
X007600Y026233D02*
X005600Y026233D01*
X005600Y024733D02*
X007600Y024733D01*
X010100Y027233D01*
X011600Y027233D01*
X009100Y029733D02*
X008600Y029233D01*
X009100Y029733D02*
X009100Y031233D01*
X008100Y031233D02*
X007600Y031733D01*
X006600Y031733D01*
X008600Y027233D02*
X007600Y026233D01*
X032600Y030733D02*
X033100Y030733D01*
X033600Y017233D02*
X034600Y016233D01*
X034600Y010733D01*
D21*
X032600Y014733D03*
X031600Y015733D03*
X013100Y006233D03*
X012600Y013733D03*
D22*
X031600Y015733D03*
X032600Y014733D03*
D23*
X027100Y027733D03*
X016100Y009733D03*
D24*
X016100Y009733D03*
X013100Y006233D03*
X012600Y013733D03*
X022100Y012733D03*
X022600Y015233D03*
X025100Y019733D03*
X024100Y022233D03*
X021100Y024733D03*
X027100Y027733D03*
X028100Y022233D03*
X028600Y019733D03*
X030100Y017233D03*
X031600Y015733D03*
X032600Y014733D03*
X033600Y017233D03*
X034600Y010733D03*
X028600Y006733D03*
D25*
X001100Y002233D03*
X001100Y031733D03*
X038600Y031733D03*
X038600Y002233D03*
M02*
