%
M48
M72
T01C0.0236
T02C0.0320
T03C0.0354
T04C0.0360
T05C0.0400
T06C0.0440
T07C0.0520
T08C0.1300
%
T01
X16100Y9733
X16100Y9733
X22100Y12733
X22600Y15233
X25100Y19733
X24100Y22233
X21100Y24733
X27100Y27733
X27100Y27733
X28100Y22233
X28600Y19733
X30100Y17233
X31600Y15733
X31600Y15733
X32600Y14733
X32600Y14733
X33600Y17233
X34600Y10733
X28600Y6733
T02
X26600Y6733
X25100Y8233
X25100Y9233
X26100Y9233
X27100Y9233
X28600Y9233
X29600Y9233
X30600Y9233
X31600Y9233
X30600Y6733
X25100Y4233
X24100Y9233
X24100Y12233
X25100Y12233
X26100Y12233
X27100Y12233
X28600Y12233
X29600Y12233
X30600Y12233
X31600Y12233
X29100Y14233
X27600Y14233
X26100Y14233
X25100Y14233
X25100Y18233
X26100Y18233
X27600Y18233
X29100Y18233
X26600Y21733
X29100Y24233
X29100Y25233
X29100Y26233
X29100Y27233
X26600Y26733
X26600Y25733
X25100Y29733
X25100Y30733
X26600Y30733
X28600Y30733
X32600Y30733
X32100Y27233
X32100Y26233
X32100Y25233
X32100Y24233
X21100Y29733
X21100Y30733
X11600Y29233
X11600Y27233
X8600Y27233
X6600Y27733
X8600Y29233
X8100Y31233
X9100Y31233
X6600Y31733
X11600Y18233
X13600Y18233
X13600Y16233
X13600Y15233
X16600Y14733
X18600Y14733
X17600Y12733
X17600Y10733
X15100Y10233
X15100Y11733
X14100Y8233
X12100Y8233
X11100Y10233
X11100Y11733
X9600Y15233
X9600Y16233
T03
X1100Y2233
X31600Y15733
X32600Y14733
X38600Y2233
X38600Y31733
X1100Y31733
T04
X19600Y23733
X19600Y21733
X19600Y19733
X22600Y19733
X23600Y19733
X22600Y21733
X22600Y23733
X25100Y25733
X25100Y28733
X29100Y21733
X27600Y19733
X26600Y19733
X30600Y19733
X31600Y19733
X32100Y21733
X34600Y19733
T05
X30100Y4733
X30100Y2733
X26100Y3733
X15100Y13733
X15600Y15733
X11100Y13733
X15600Y19733
X5600Y24733
X5600Y26233
X1600Y26233
X1600Y24733
T06
X9600Y20233
X9600Y19233
X9600Y18233
X9600Y11233
X9600Y10233
X9600Y9233
T07
X20610Y4733
X22580Y4733
X33110Y3733
X35080Y3733
X21100Y26253
X21100Y28223
X34610Y30233
X36580Y30233
X5080Y29733
X3110Y29733
T08
X3700Y19233
X3700Y10233
M30
