G75*
G70*
%OFA0B0*%
%FSLAX24Y24*%
%IPPOS*%
%LPD*%
%AMOC8*
5,1,8,0,0,1.08239X$1,22.5*
%
%ADD10C,0.0920*%
%ADD11OC8,0.0640*%
%ADD12C,0.0640*%
%ADD13C,0.0750*%
%ADD14OC8,0.0750*%
%ADD15OC8,0.0720*%
%ADD16C,0.0640*%
%ADD17OC8,0.0920*%
%ADD18C,0.0872*%
%ADD19C,0.0240*%
%ADD20R,0.0500X0.0500*%
%ADD21R,0.0396X0.0396*%
D10*
X003773Y009610D02*
X004693Y009610D01*
X004693Y011580D02*
X003773Y011580D01*
X003773Y015130D02*
X004693Y015130D01*
X004693Y017100D02*
X003773Y017100D01*
X003773Y019070D02*
X004693Y019070D01*
X004193Y024150D02*
X003273Y024150D01*
X003273Y026110D02*
X004193Y026110D01*
X004193Y028090D02*
X003273Y028090D01*
X003273Y030050D02*
X004193Y030050D01*
X038743Y029640D02*
X038743Y030560D01*
X040713Y030560D02*
X040713Y029640D01*
D11*
X008733Y002600D03*
X010733Y002600D03*
X020233Y005100D03*
X022233Y005100D03*
X023233Y009100D03*
X025233Y009100D03*
X022733Y010600D03*
X020733Y010600D03*
X019733Y010100D03*
X017733Y010100D03*
X018733Y013600D03*
X017233Y015100D03*
X018733Y015600D03*
X015733Y018100D03*
X015733Y020100D03*
X016733Y020600D03*
X016733Y022600D03*
X015233Y023100D03*
X017233Y024100D03*
X015233Y025100D03*
X017233Y026100D03*
X018733Y027100D03*
X020233Y027100D03*
X020233Y025100D03*
X022733Y024100D03*
X023733Y023100D03*
X024733Y024100D03*
X024233Y025100D03*
X024233Y027100D03*
X025233Y027100D03*
X024733Y028100D03*
X024733Y030100D03*
X023733Y030100D03*
X021733Y030100D03*
X018733Y029100D03*
X015233Y029100D03*
X015233Y027100D03*
X011733Y025100D03*
X010733Y024100D03*
X011733Y023100D03*
X010733Y026100D03*
X008733Y027100D03*
X008733Y028100D03*
X006733Y028100D03*
X006733Y027100D03*
X006733Y026100D03*
X006733Y024100D03*
X006733Y023100D03*
X006733Y021100D03*
X012733Y019600D03*
X012733Y017600D03*
X013233Y015100D03*
X011233Y015100D03*
X008733Y012600D03*
X008733Y010600D03*
X015233Y015100D03*
X023233Y015100D03*
X024733Y014600D03*
X024733Y012600D03*
X028233Y009100D03*
X029733Y010100D03*
X030233Y009100D03*
X031733Y010100D03*
X031733Y011600D03*
X029733Y011600D03*
X023233Y017100D03*
X026233Y020100D03*
X026233Y022100D03*
X023733Y021100D03*
X029233Y020600D03*
X029233Y022600D03*
X029233Y024100D03*
X029233Y026100D03*
X030233Y027100D03*
X032233Y027100D03*
X033733Y027100D03*
X035733Y027100D03*
X034733Y023600D03*
X035733Y022100D03*
X036733Y022100D03*
X036733Y023600D03*
X036733Y020100D03*
X035733Y020100D03*
X027233Y027100D03*
X028233Y030100D03*
X030233Y030100D03*
X011233Y030600D03*
X009233Y030600D03*
X008233Y030600D03*
X006233Y030600D03*
D12*
X010413Y029100D02*
X011053Y029100D01*
X011053Y028100D02*
X010413Y028100D01*
X010413Y027100D02*
X011053Y027100D01*
X012233Y026920D02*
X012233Y026280D01*
X013233Y026280D02*
X013233Y026920D01*
X014233Y026920D02*
X014233Y026280D01*
X016913Y027100D02*
X017553Y027100D01*
X017553Y028100D02*
X016913Y028100D01*
X016913Y029100D02*
X017553Y029100D01*
X019913Y029100D02*
X020553Y029100D01*
X020553Y028100D02*
X019913Y028100D01*
X019913Y030100D02*
X020553Y030100D01*
X025913Y025100D02*
X026553Y025100D01*
X026553Y024100D02*
X025913Y024100D01*
X025913Y023100D02*
X026553Y023100D01*
X021553Y023100D02*
X020913Y023100D01*
X020913Y022100D02*
X021553Y022100D01*
X019553Y022100D02*
X018913Y022100D01*
X018913Y023100D02*
X019553Y023100D01*
X019553Y024100D02*
X018913Y024100D01*
X020913Y024100D02*
X021553Y024100D01*
X018733Y019420D02*
X018733Y018780D01*
X019413Y018100D02*
X020053Y018100D01*
X020053Y017100D02*
X019413Y017100D01*
X019413Y016100D02*
X020053Y016100D01*
X017733Y018780D02*
X017733Y019420D01*
X016733Y019420D02*
X016733Y018780D01*
X015553Y013600D02*
X014913Y013600D01*
X014913Y012600D02*
X015553Y012600D01*
X015553Y011600D02*
X014913Y011600D01*
X025913Y015600D02*
X026553Y015600D01*
X028913Y015600D02*
X029553Y015600D01*
X031733Y018780D02*
X031733Y019420D01*
X032733Y019420D02*
X032733Y018780D01*
X033733Y018780D02*
X033733Y019420D01*
X033733Y022280D02*
X033733Y022920D01*
X033733Y025280D02*
X033733Y025920D01*
X029553Y027100D02*
X028913Y027100D01*
X028913Y028100D02*
X029553Y028100D01*
X029553Y029100D02*
X028913Y029100D01*
X038913Y026100D02*
X039553Y026100D01*
X039553Y025100D02*
X038913Y025100D01*
X038913Y024100D02*
X039553Y024100D01*
X008553Y024100D02*
X007913Y024100D01*
X007913Y025100D02*
X008553Y025100D01*
X008553Y026100D02*
X007913Y026100D01*
D13*
X012733Y020600D03*
X022233Y020100D03*
X022233Y027100D03*
X026733Y030100D03*
X028233Y007100D03*
X010733Y007100D03*
D14*
X008733Y007100D03*
X020233Y020100D03*
X022233Y025100D03*
X026733Y028100D03*
X012733Y022600D03*
X030233Y007100D03*
D15*
X027233Y011100D03*
X024233Y011100D03*
X023233Y013600D03*
X026233Y013600D03*
X029233Y013600D03*
X024733Y017100D03*
X026233Y017600D03*
X027233Y019100D03*
X029233Y017600D03*
X030233Y019100D03*
X030733Y021100D03*
X030733Y022600D03*
X032233Y022600D03*
X033733Y021100D03*
X034733Y025100D03*
X032233Y025600D03*
X030733Y025600D03*
X024733Y020100D03*
X020233Y013600D03*
X014233Y016600D03*
X014233Y019600D03*
X013233Y013100D03*
X010233Y013100D03*
X008733Y004600D03*
X011733Y004600D03*
X013233Y004600D03*
X013233Y002600D03*
X016233Y002600D03*
X016233Y004600D03*
X019733Y003600D03*
X022733Y003600D03*
X037733Y025100D03*
D16*
X021733Y009100D03*
X021733Y008100D03*
X021733Y007100D03*
X021733Y006100D03*
X018733Y006100D03*
X018733Y007100D03*
X018733Y008100D03*
X018733Y009100D03*
D17*
X024233Y006600D03*
X025233Y007600D03*
X026233Y006600D03*
X012733Y007100D03*
X011733Y008100D03*
X012733Y009100D03*
D18*
X011202Y017631D03*
X009233Y017631D03*
X007265Y017631D03*
X007265Y019600D03*
X009233Y019600D03*
X011202Y019600D03*
D19*
X009233Y019600D01*
X007265Y017631D01*
X006233Y017100D02*
X006233Y018569D01*
X007265Y019600D01*
X006733Y021100D02*
X005733Y020100D01*
X005733Y018100D01*
X004733Y017100D01*
X004233Y017100D01*
X004233Y016100D01*
X005203Y016100D02*
X004233Y015130D01*
X004263Y015130D01*
X006233Y017100D01*
X005203Y016100D02*
X013233Y016100D01*
X014233Y015100D01*
X015233Y015100D01*
X015733Y015100D01*
X015233Y015100D02*
X015233Y013600D01*
X015233Y012600D02*
X015733Y012600D01*
X016733Y013600D01*
X018733Y013600D01*
X020233Y013600D01*
X018233Y014600D02*
X022733Y014600D01*
X023233Y015100D01*
X024233Y015600D02*
X023733Y016100D01*
X019733Y016100D01*
X019233Y016100D01*
X018733Y016600D01*
X014233Y016600D01*
X012733Y017600D02*
X009265Y017600D01*
X009233Y017631D01*
X012733Y019600D02*
X012733Y020600D01*
X013233Y021100D01*
X016233Y021100D01*
X016733Y020600D01*
X016733Y019100D01*
X017733Y019100D02*
X017733Y020600D01*
X016233Y022100D01*
X015733Y022100D01*
X015733Y023100D01*
X016233Y023100D01*
X017233Y024100D01*
X017233Y025100D02*
X018233Y025100D01*
X018233Y022100D01*
X019233Y022100D01*
X019233Y020100D01*
X020233Y020100D01*
X019233Y020100D02*
X018733Y019600D01*
X018733Y019100D01*
X019733Y018100D02*
X015733Y018100D01*
X014233Y019600D02*
X014733Y020100D01*
X015733Y020100D01*
X012733Y022600D02*
X012233Y022100D01*
X011233Y022100D01*
X010733Y022600D01*
X010733Y024100D01*
X012733Y024100D01*
X014233Y025600D01*
X014733Y025100D01*
X015233Y025100D01*
X016233Y025100D02*
X015233Y024100D01*
X013733Y024100D01*
X013233Y023600D01*
X012233Y023600D01*
X011733Y023100D01*
X010733Y024100D02*
X008233Y024100D01*
X007733Y023600D01*
X007733Y022600D01*
X006733Y021600D01*
X006733Y021100D01*
X003733Y024100D01*
X003733Y024150D01*
X003733Y026110D02*
X006723Y026110D01*
X006733Y026100D01*
X006733Y027100D02*
X007733Y028100D01*
X008733Y028100D01*
X010733Y028100D01*
X010733Y027100D02*
X010733Y026100D01*
X011733Y025100D02*
X012233Y025600D01*
X012233Y026600D01*
X013233Y026600D02*
X013233Y027600D01*
X012733Y028100D01*
X012733Y029600D01*
X011733Y029600D01*
X010733Y030100D01*
X009733Y030100D01*
X009233Y030600D01*
X008233Y030600D01*
X007733Y029100D02*
X010733Y029100D01*
X011733Y030100D02*
X011233Y030600D01*
X011733Y030100D02*
X013733Y030100D01*
X014233Y029600D01*
X014233Y026600D01*
X014233Y025600D01*
X015233Y027100D02*
X016233Y026100D01*
X016233Y025100D01*
X017233Y026100D02*
X017233Y027100D01*
X018733Y027100D01*
X019233Y026100D02*
X018233Y025100D01*
X019233Y024100D02*
X019733Y024100D01*
X020233Y024600D01*
X020733Y024100D01*
X021233Y024100D01*
X021233Y023100D02*
X023733Y023100D01*
X024733Y024100D02*
X026233Y024100D01*
X026233Y023100D02*
X025733Y023100D01*
X023733Y021100D01*
X022733Y020100D01*
X022233Y020100D01*
X021233Y022100D02*
X019233Y022100D01*
X020233Y024600D02*
X020233Y025100D01*
X021233Y026100D02*
X019233Y026100D01*
X020233Y027100D02*
X022233Y027100D01*
X024233Y027100D01*
X025233Y027100D01*
X026233Y026600D02*
X028733Y024100D01*
X029233Y024100D01*
X030733Y022600D01*
X029233Y022600D01*
X028733Y022600D01*
X028233Y022100D01*
X028233Y020100D01*
X029233Y019100D01*
X029233Y017600D01*
X027733Y017600D02*
X026233Y017600D01*
X026233Y020100D01*
X027233Y020600D02*
X026733Y021100D01*
X025733Y021100D01*
X024733Y020100D01*
X026233Y022100D02*
X026233Y023100D01*
X024733Y025100D02*
X024233Y025100D01*
X022233Y025100D01*
X021233Y026100D01*
X020233Y027100D02*
X020233Y028100D01*
X020233Y029100D02*
X018733Y029100D01*
X020233Y030100D02*
X021733Y030100D01*
X023733Y030100D02*
X024733Y030100D01*
X026733Y030100D01*
X028233Y030100D01*
X029233Y029100D02*
X030233Y030100D01*
X030733Y030100D01*
X033733Y027100D01*
X034233Y028100D01*
X035733Y028100D01*
X037733Y026100D01*
X039233Y026100D01*
X039233Y025100D02*
X037733Y025100D01*
X040233Y025100D01*
X040733Y024600D01*
X040733Y023600D01*
X040233Y023100D01*
X037733Y023100D01*
X036733Y022100D01*
X035733Y022100D02*
X035733Y027100D01*
X033733Y025600D02*
X032233Y025600D01*
X030733Y025600D01*
X029233Y026100D02*
X029233Y027100D01*
X030233Y027100D01*
X029233Y028100D02*
X028233Y028100D01*
X027233Y027100D01*
X026233Y026600D02*
X026233Y027600D01*
X026733Y028100D01*
X026233Y026600D02*
X024733Y025100D01*
X027233Y020600D02*
X027233Y019100D01*
X027733Y017600D02*
X029233Y016100D01*
X029233Y015600D01*
X029233Y013600D01*
X027733Y012600D02*
X026733Y012600D01*
X025233Y011100D01*
X024233Y011100D01*
X025233Y010100D01*
X025233Y009100D01*
X025733Y008100D02*
X028233Y008100D01*
X029233Y009100D01*
X029733Y010100D01*
X029733Y011100D02*
X030733Y010100D01*
X030733Y009600D01*
X031233Y009100D01*
X031233Y007100D01*
X028733Y004600D01*
X024733Y004600D01*
X023733Y003600D01*
X023733Y003100D01*
X022733Y002100D01*
X019233Y002100D01*
X018233Y003100D01*
X018233Y004100D01*
X015733Y006600D01*
X015733Y007100D01*
X018733Y007100D01*
X018733Y008100D02*
X014733Y008100D01*
X012233Y010600D01*
X008733Y010600D01*
X008733Y007100D01*
X008733Y004600D01*
X008733Y002600D01*
X010733Y002600D02*
X011233Y002600D01*
X011733Y003100D01*
X011733Y004600D01*
X011733Y006100D01*
X012733Y007100D01*
X015733Y007100D01*
X015233Y006100D02*
X015233Y004100D01*
X016233Y003100D01*
X016233Y002600D01*
X017233Y001600D01*
X017733Y001600D01*
X018733Y003100D02*
X019233Y002600D01*
X021733Y002600D01*
X022733Y003600D01*
X022733Y004600D01*
X022233Y005100D01*
X028233Y005100D01*
X030233Y007100D01*
X030233Y009100D01*
X031733Y010100D02*
X031733Y010600D01*
X032733Y011100D01*
X032733Y015600D01*
X033233Y016100D01*
X035233Y016100D01*
X038733Y019600D01*
X038733Y021600D01*
X039233Y022100D01*
X040233Y022100D01*
X041733Y023600D01*
X041733Y025100D01*
X040733Y026100D01*
X040733Y030100D01*
X040713Y030100D01*
X038743Y030100D02*
X038743Y028090D01*
X040233Y026600D01*
X040233Y025600D01*
X041233Y024600D01*
X041233Y023600D01*
X040233Y022600D01*
X038733Y022600D01*
X038233Y022100D01*
X038233Y020100D01*
X034733Y016600D01*
X031733Y016600D01*
X031233Y016100D01*
X031233Y012100D01*
X031733Y011600D01*
X029733Y011600D02*
X029733Y011100D01*
X028233Y010100D02*
X027233Y011100D01*
X028233Y010100D02*
X028233Y009100D01*
X028233Y007100D02*
X026733Y007100D01*
X026233Y006600D01*
X025233Y007600D02*
X025733Y008100D01*
X025233Y007600D02*
X024233Y006600D01*
X023733Y006100D01*
X021733Y006100D01*
X020733Y005100D01*
X020233Y005100D01*
X019733Y004600D01*
X019733Y003600D01*
X018733Y004100D02*
X018733Y003100D01*
X018733Y004100D02*
X019233Y004600D01*
X019233Y005100D01*
X021233Y007100D01*
X021733Y007100D01*
X021733Y008100D02*
X020733Y008100D01*
X020733Y009100D01*
X022233Y010600D01*
X022733Y010600D01*
X020733Y010600D02*
X020233Y011100D01*
X018733Y011100D01*
X017733Y010100D01*
X016733Y009100D01*
X014733Y009100D01*
X012733Y009100D02*
X011233Y009100D01*
X010733Y008600D01*
X010733Y007100D01*
X011733Y008100D02*
X012733Y007100D01*
X014233Y006100D02*
X013233Y005100D01*
X013233Y004600D01*
X013233Y002600D01*
X016233Y004600D02*
X016733Y004600D01*
X017233Y004100D01*
X018733Y009100D02*
X019733Y010100D01*
X020733Y011600D02*
X016733Y011600D01*
X015733Y010600D01*
X014233Y010600D01*
X013233Y011600D01*
X007233Y011600D01*
X005243Y009610D01*
X004233Y009610D01*
X004233Y011580D02*
X005733Y013080D01*
X005733Y013100D01*
X008733Y012600D02*
X009733Y012600D01*
X010233Y013100D01*
X013233Y013100D02*
X013233Y015100D01*
X013233Y013100D02*
X013733Y012600D01*
X013733Y012100D01*
X014233Y011600D01*
X015233Y011600D01*
X015733Y011600D01*
X016733Y012600D01*
X024733Y012600D01*
X025733Y013600D02*
X024733Y014600D01*
X024233Y014600D01*
X023233Y013600D01*
X025733Y013600D02*
X026233Y013600D01*
X026233Y015600D02*
X024233Y015600D01*
X024733Y017100D02*
X023233Y017100D01*
X019733Y017100D01*
X017733Y015100D02*
X017233Y015100D01*
X017733Y015100D02*
X018233Y014600D01*
X021733Y009100D02*
X023233Y009100D01*
X031233Y018100D02*
X032233Y018100D01*
X032733Y018600D01*
X032733Y019100D01*
X032733Y018600D02*
X033233Y018100D01*
X034233Y018100D01*
X035733Y019600D01*
X035733Y020100D01*
X033733Y021100D02*
X033733Y019100D01*
X031733Y019100D02*
X031733Y019600D01*
X031233Y020100D01*
X029733Y020100D01*
X029233Y020600D01*
X030733Y021100D02*
X030733Y022600D01*
X032233Y022600D02*
X032233Y023100D01*
X032733Y023600D01*
X034733Y023600D01*
X034733Y025100D01*
X036733Y023600D02*
X037233Y024100D01*
X039233Y024100D01*
X033733Y022600D02*
X033733Y021100D01*
X031233Y018100D02*
X030233Y019100D01*
X032233Y025600D02*
X032233Y027100D01*
X017233Y028100D02*
X016233Y028100D01*
X015233Y027100D01*
X015233Y029100D02*
X017233Y029100D01*
X015733Y023100D02*
X015233Y023100D01*
X008733Y027100D02*
X008233Y026600D01*
X008233Y026100D01*
X008233Y025100D02*
X007733Y025100D01*
X006733Y024100D01*
X006733Y023100D01*
X004233Y019070D02*
X004233Y018100D01*
X003733Y028090D02*
X006733Y028090D01*
X006733Y028100D01*
X007733Y029100D01*
X006233Y030600D02*
X004283Y030600D01*
X003733Y030050D01*
D20*
X017233Y025100D03*
D21*
X004233Y018100D03*
X004233Y016100D03*
X005733Y013100D03*
X014233Y006100D03*
X015233Y006100D03*
X017233Y004100D03*
X017733Y001600D03*
X014733Y009100D03*
X020733Y011600D03*
X027733Y012600D03*
X039233Y026100D03*
M02*
