%
M48
M72
T01C0.0236
T02C0.0320
T03C0.0360
T04C0.0472
T05C0.0520
%
T01
X14233Y6100
X15233Y6100
X17233Y4100
X17733Y1600
X14733Y9100
X20733Y11600
X27733Y12600
X17233Y25100
X4233Y18100
X4233Y16100
X5733Y13100
X39233Y26100
T02
X8733Y2600
X10733Y2600
X10733Y7100
X8733Y7100
X8733Y10600
X8733Y12600
X11233Y15100
X13233Y15100
X15233Y15100
X15233Y13600
X15233Y12600
X15233Y11600
X17733Y10100
X18733Y9100
X18733Y8100
X18733Y7100
X18733Y6100
X20233Y5100
X21733Y6100
X21733Y7100
X21733Y8100
X21733Y9100
X23233Y9100
X25233Y9100
X22733Y10600
X20733Y10600
X19733Y10100
X18733Y13600
X17233Y15100
X18733Y15600
X19733Y16100
X19733Y17100
X19733Y18100
X18733Y19100
X17733Y19100
X16733Y19100
X15733Y18100
X15733Y20100
X16733Y20600
X16733Y22600
X15233Y23100
X17233Y24100
X15233Y25100
X14233Y26600
X13233Y26600
X12233Y26600
X10733Y26100
X10733Y27100
X10733Y28100
X10733Y29100
X11233Y30600
X9233Y30600
X8233Y30600
X6233Y30600
X6733Y28100
X6733Y27100
X6733Y26100
X8233Y26100
X8233Y25100
X8233Y24100
X6733Y24100
X6733Y23100
X6733Y21100
X10733Y24100
X11733Y23100
X12733Y22600
X12733Y20600
X12733Y19600
X12733Y17600
X19233Y22100
X19233Y23100
X19233Y24100
X20233Y25100
X21233Y24100
X21233Y23100
X21233Y22100
X20233Y20100
X22233Y20100
X23733Y21100
X23733Y23100
X22733Y24100
X22233Y25100
X24233Y25100
X24733Y24100
X26233Y24100
X26233Y23100
X26233Y22100
X26233Y20100
X29233Y20600
X29233Y22600
X29233Y24100
X29233Y26100
X29233Y27100
X30233Y27100
X29233Y28100
X29233Y29100
X28233Y30100
X26733Y30100
X24733Y30100
X23733Y30100
X21733Y30100
X20233Y30100
X20233Y29100
X20233Y28100
X20233Y27100
X18733Y27100
X17233Y27100
X17233Y26100
X15233Y27100
X17233Y28100
X17233Y29100
X18733Y29100
X15233Y29100
X11733Y25100
X8733Y27100
X8733Y28100
X22233Y27100
X24233Y27100
X25233Y27100
X24733Y28100
X26733Y28100
X27233Y27100
X26233Y25100
X32233Y27100
X33733Y27100
X33733Y25600
X35733Y27100
X39233Y26100
X39233Y25100
X39233Y24100
X36733Y23600
X36733Y22100
X35733Y22100
X34733Y23600
X33733Y22600
X35733Y20100
X36733Y20100
X33733Y19100
X32733Y19100
X31733Y19100
X29233Y15600
X26233Y15600
X24733Y14600
X23233Y15100
X23233Y17100
X24733Y12600
X28233Y9100
X29733Y10100
X30233Y9100
X31733Y10100
X31733Y11600
X29733Y11600
X30233Y7100
X28233Y7100
X22233Y5100
X30233Y30100
T03
X30733Y25600
X32233Y25600
X34733Y25100
X37733Y25100
X33733Y21100
X32233Y22600
X30733Y22600
X30733Y21100
X30233Y19100
X29233Y17600
X27233Y19100
X26233Y17600
X24733Y17100
X24733Y20100
X23233Y13600
X26233Y13600
X29233Y13600
X27233Y11100
X24233Y11100
X20233Y13600
X14233Y16600
X14233Y19600
X13233Y13100
X10233Y13100
X8733Y4600
X11733Y4600
X13233Y4600
X13233Y2600
X16233Y2600
X16233Y4600
X19733Y3600
X22733Y3600
T04
X11202Y17631
X9233Y17631
X7265Y17631
X7265Y19600
X9233Y19600
X11202Y19600
T05
X4233Y19070
X4233Y17100
X4233Y15130
X4233Y11580
X4233Y9610
X11733Y8100
X12733Y9100
X12733Y7100
X24233Y6600
X25233Y7600
X26233Y6600
X3733Y24150
X3733Y26110
X3733Y28090
X3733Y30050
X38743Y30100
X40713Y30100
M30
