%
M48
M72
T01C0.0236
T02C0.0320
T03C0.0360
T04C0.0520
%
T01
X10733Y11100
X11733Y14100
X8233Y14100
X6733Y15100
X5233Y13600
X4233Y18100
X15233Y26100
X18233Y28600
X19233Y26600
X19233Y25600
X21233Y26100
X21233Y27100
X24733Y29100
X27233Y31100
X34233Y27600
X34733Y24100
X28233Y24600
X21233Y23100
X27733Y15100
X25233Y14600
X31733Y9100
X24733Y8600
X17233Y7600
X16233Y7100
X29233Y600
T02
X27733Y2100
X27733Y3600
X29233Y6100
X29233Y7600
X27733Y6600
X26233Y9100
X27733Y10700
X27733Y11500
X29233Y10100
X30233Y9100
X33233Y10100
X34733Y9500
X34733Y8700
X33233Y7600
X34733Y7100
X35483Y6600
X34733Y6100
X33233Y6100
X23733Y6600
X22233Y6600
X22233Y5600
X22233Y4600
X22233Y3600
X23733Y3600
X23733Y2100
X19233Y3600
X19233Y4600
X19233Y5600
X19233Y6600
X22233Y7600
X22233Y8600
X22233Y9600
X23733Y9100
X23733Y13100
X21633Y15100
X20833Y15100
X19733Y17600
X19733Y19100
X17233Y18600
X14233Y15600
X12733Y17100
X13233Y18600
X10733Y17100
X10733Y16100
X10733Y15100
X10733Y14000
X10733Y13200
X10233Y12100
X12733Y13100
X14233Y11600
X12233Y9100
X12733Y7600
X14233Y7100
X14233Y6100
X12733Y5600
X12733Y4600
X13733Y2100
X17733Y2100
X14233Y8100
X9233Y9100
X7733Y9600
X5233Y11100
X6233Y12100
X7233Y13700
X7233Y14500
X5233Y15100
X5233Y16100
X5233Y17100
X8733Y19600
X10233Y19600
X11733Y21600
X11733Y22600
X11733Y23600
X13233Y22600
X15233Y23600
X15233Y24600
X11233Y26600
X11233Y27600
X11233Y28600
X9733Y27100
X8733Y25100
X8733Y23600
X10233Y23600
X6233Y21100
X2233Y21100
X5733Y25100
X5733Y27100
X9233Y29600
X13233Y29600
X14733Y29600
X15233Y28600
X16733Y30600
X18733Y29600
X19733Y29600
X20733Y30600
X23733Y29600
X22233Y28100
X22233Y27100
X22233Y26100
X22233Y25100
X22733Y24100
X23733Y24100
X25233Y25100
X25233Y26100
X25233Y27100
X25233Y28100
X26233Y26100
X26233Y22100
X23733Y20100
X22733Y20100
X23733Y19100
X23733Y17600
X17233Y14600
X9233Y16100
X9233Y17100
X3733Y9600
X8733Y7600
X8733Y5600
X8733Y4600
X19233Y23600
T03
X21233Y24100
X21233Y25600
X21233Y27600
X18233Y27600
X16733Y28100
X18233Y25600
X16733Y25100
X13233Y25100
X10233Y25100
X21233Y21100
X24733Y20100
X27733Y20100
X27733Y23100
X29233Y23100
X29233Y26100
X27733Y26100
X26733Y28600
X26733Y30100
X29733Y30100
X31233Y30100
X31233Y28600
X29733Y28600
X34233Y28600
X34233Y30100
X25233Y13100
X25233Y10100
X19233Y10100
X16233Y10100
X11733Y10600
X8733Y10600
X7233Y8100
X7233Y6100
X4233Y6100
X4233Y8100
X3733Y11100
X3733Y14100
X14233Y4600
X17233Y4600
X23733Y5100
X26733Y5100
T04
X3733Y1610
X3733Y3580
X16733Y12600
X17733Y11600
X18733Y12600
X17233Y20100
X16233Y21100
X18233Y21100
X3733Y23130
X3733Y25100
X3733Y27070
X3233Y18100
X2233Y17100
X3233Y16100
X30233Y3600
X31233Y4600
X32233Y3600
X37733Y23130
X37733Y25100
X37733Y27070
M30
