G75*
G70*
%OFA0B0*%
%FSLAX24Y24*%
%IPPOS*%
%LPD*%
%AMOC8*
5,1,8,0,0,1.08239X$1,22.5*
%
%ADD10OC8,0.0656*%
%ADD11C,0.0656*%
%ADD12OC8,0.0728*%
%ADD13C,0.0656*%
%ADD14OC8,0.1016*%
%ADD15C,0.1016*%
%ADD16R,0.0552X0.0552*%
D10*
X008733Y004600D03*
X008733Y005600D03*
X008733Y007600D03*
X007733Y009600D03*
X005233Y011100D03*
X006233Y012100D03*
X007233Y014500D03*
X005233Y015100D03*
X005233Y016100D03*
X005233Y017100D03*
X008733Y019600D03*
X010233Y019600D03*
X013233Y018600D03*
X012733Y017100D03*
X014233Y015600D03*
X017233Y014600D03*
X020833Y015100D03*
X023733Y013100D03*
X027733Y011500D03*
X029233Y010100D03*
X030233Y009100D03*
X029233Y007600D03*
X029233Y006100D03*
X027733Y006600D03*
X026233Y009100D03*
X023733Y009100D03*
X023733Y006600D03*
X023733Y003600D03*
X023733Y002100D03*
X027733Y002100D03*
X027733Y003600D03*
X033233Y006100D03*
X034733Y006100D03*
X035483Y006600D03*
X034733Y007100D03*
X033233Y007600D03*
X034733Y008700D03*
X033233Y010100D03*
X023733Y017600D03*
X023733Y019100D03*
X023733Y020100D03*
X022733Y020100D03*
X019733Y019100D03*
X019733Y017600D03*
X017233Y018600D03*
X013233Y022600D03*
X015233Y023600D03*
X015233Y024600D03*
X019233Y023600D03*
X022733Y024100D03*
X023733Y024100D03*
X026233Y022100D03*
X026233Y026100D03*
X023733Y029600D03*
X020733Y030600D03*
X019733Y029600D03*
X018733Y029600D03*
X016733Y030600D03*
X014733Y029600D03*
X015233Y028600D03*
X013233Y029600D03*
X009733Y027100D03*
X009233Y029600D03*
X005733Y027100D03*
X008733Y023600D03*
X010233Y023600D03*
X006233Y021100D03*
X002233Y021100D03*
X009233Y017100D03*
X009233Y016100D03*
X010733Y014000D03*
X012733Y013100D03*
X014233Y011600D03*
X010233Y012100D03*
X012733Y007600D03*
X012733Y005600D03*
X012733Y004600D03*
X013733Y002100D03*
X017733Y002100D03*
X003733Y009600D03*
D11*
X008945Y009100D02*
X009521Y009100D01*
X011945Y009100D02*
X012521Y009100D01*
X013945Y008100D02*
X014521Y008100D01*
X014521Y007100D02*
X013945Y007100D01*
X013945Y006100D02*
X014521Y006100D01*
X021945Y007600D02*
X022521Y007600D01*
X022521Y008600D02*
X021945Y008600D01*
X021945Y009600D02*
X022521Y009600D01*
X011021Y015100D02*
X010445Y015100D01*
X010445Y016100D02*
X011021Y016100D01*
X011021Y017100D02*
X010445Y017100D01*
X011445Y021600D02*
X012021Y021600D01*
X012021Y022600D02*
X011445Y022600D01*
X011445Y023600D02*
X012021Y023600D01*
X009021Y025100D02*
X008445Y025100D01*
X006021Y025100D02*
X005445Y025100D01*
X010945Y026600D02*
X011521Y026600D01*
X011521Y027600D02*
X010945Y027600D01*
X010945Y028600D02*
X011521Y028600D01*
D12*
X010233Y025100D03*
X013233Y025100D03*
X016733Y025100D03*
X018233Y025600D03*
X018233Y027600D03*
X016733Y028100D03*
X021233Y027600D03*
X021233Y025600D03*
X021233Y024100D03*
X021233Y021100D03*
X024733Y020100D03*
X027733Y020100D03*
X027733Y023100D03*
X029233Y023100D03*
X029233Y026100D03*
X027733Y026100D03*
X026733Y028600D03*
X026733Y030100D03*
X029733Y030100D03*
X031233Y030100D03*
X031233Y028600D03*
X029733Y028600D03*
X034233Y028600D03*
X034233Y030100D03*
X025233Y013100D03*
X025233Y010100D03*
X019233Y010100D03*
X016233Y010100D03*
X011733Y010600D03*
X008733Y010600D03*
X007233Y008100D03*
X007233Y006100D03*
X004233Y006100D03*
X004233Y008100D03*
X003733Y011100D03*
X003733Y014100D03*
X014233Y004600D03*
X017233Y004600D03*
X023733Y005100D03*
X026733Y005100D03*
D13*
X022233Y004600D03*
X022233Y003600D03*
X022233Y005600D03*
X022233Y006600D03*
X019233Y006600D03*
X019233Y005600D03*
X019233Y004600D03*
X019233Y003600D03*
X027733Y010700D03*
X021633Y015100D03*
X010733Y013200D03*
X007233Y013700D03*
X022233Y025100D03*
X022233Y026100D03*
X022233Y027100D03*
X022233Y028100D03*
X025233Y028100D03*
X025233Y027100D03*
X025233Y026100D03*
X025233Y025100D03*
X034733Y009500D03*
D14*
X031233Y004600D03*
X030233Y003600D03*
X032233Y003600D03*
X018733Y012600D03*
X017733Y011600D03*
X016733Y012600D03*
X017233Y020100D03*
X016233Y021100D03*
X018233Y021100D03*
X003233Y018100D03*
X002233Y017100D03*
X003233Y016100D03*
D15*
X003265Y001610D02*
X004201Y001610D01*
X004201Y003580D02*
X003265Y003580D01*
X003265Y023130D02*
X004201Y023130D01*
X004201Y025100D02*
X003265Y025100D01*
X003265Y027070D02*
X004201Y027070D01*
X037265Y027070D02*
X038201Y027070D01*
X038201Y025100D02*
X037265Y025100D01*
X037265Y023130D02*
X038201Y023130D01*
D16*
X017233Y007600D03*
X016233Y007100D03*
X015233Y026100D03*
M02*
