G75*
G70*
%OFA0B0*%
%FSLAX24Y24*%
%IPPOS*%
%LPD*%
%AMOC8*
5,1,8,0,0,1.08239X$1,22.5*
%
%ADD10C,0.0060*%
%ADD11R,0.0340X0.0240*%
%ADD12R,0.0240X0.0340*%
%ADD13C,0.0050*%
%ADD14C,0.0160*%
%ADD15R,0.0200X0.0800*%
%ADD16R,0.0250X0.0200*%
D10*
X001283Y000600D02*
X002483Y000600D01*
X002483Y004600D01*
X003083Y004600D01*
X003483Y004600D01*
X003483Y004230D01*
X003633Y004230D02*
X003633Y004380D01*
X005433Y004380D01*
X006183Y004380D01*
X006183Y004600D01*
X005783Y004600D01*
X005333Y004600D01*
X003483Y004600D01*
X003183Y004800D02*
X003083Y004600D01*
X003183Y004800D02*
X001283Y004800D01*
X001283Y004600D01*
X001283Y000600D01*
X001383Y000810D02*
X001383Y002410D01*
X002383Y002410D01*
X002383Y000810D01*
X001383Y000810D01*
X001983Y000970D02*
X001733Y002170D01*
X001783Y002220D02*
X002033Y001020D01*
X002107Y001047D02*
X002090Y001021D01*
X002071Y000998D01*
X002048Y000978D01*
X002024Y000961D01*
X001997Y000947D01*
X001968Y000936D01*
X001939Y000930D01*
X001909Y000927D01*
X001878Y000928D01*
X001849Y000933D01*
X001820Y000942D01*
X001792Y000955D01*
X001767Y000971D01*
X001743Y000990D01*
X002093Y001030D02*
X002129Y001078D01*
X002162Y001129D01*
X002192Y001181D01*
X002218Y001235D01*
X002241Y001291D01*
X002261Y001348D01*
X002277Y001406D01*
X002289Y001465D01*
X002297Y001525D01*
X002302Y001585D01*
X002303Y001645D01*
X002300Y001705D01*
X002293Y001765D01*
X002283Y001825D01*
X002269Y001883D01*
X002251Y001941D01*
X002230Y001997D01*
X002205Y002052D01*
X002177Y002105D01*
X002146Y002157D01*
X002111Y002206D01*
X002125Y002188D02*
X002103Y002210D01*
X002080Y002229D01*
X002054Y002245D01*
X002027Y002258D01*
X001998Y002268D01*
X001969Y002275D01*
X001938Y002279D01*
X001908Y002279D01*
X001878Y002275D01*
X001848Y002268D01*
X001820Y002258D01*
X001792Y002245D01*
X001767Y002229D01*
X001743Y002210D01*
X001741Y002212D02*
X001701Y002175D01*
X001664Y002135D01*
X001629Y002093D01*
X001598Y002049D01*
X001569Y002003D01*
X001544Y001955D01*
X001521Y001905D01*
X001503Y001854D01*
X001487Y001802D01*
X001476Y001748D01*
X001468Y001695D01*
X001463Y001640D01*
X001462Y001586D01*
X001465Y001531D01*
X001471Y001477D01*
X001481Y001424D01*
X001495Y001371D01*
X001512Y001320D01*
X001533Y001269D01*
X001556Y001220D01*
X001584Y001173D01*
X001614Y001128D01*
X001647Y001084D01*
X001683Y001044D01*
X001722Y001005D01*
X001763Y000970D01*
X002483Y000600D02*
X003483Y000600D01*
X003483Y000960D01*
X003633Y000960D02*
X003633Y000810D01*
X005433Y000810D01*
X006183Y000810D01*
X006183Y002410D01*
X006183Y002780D01*
X006183Y004380D01*
X005783Y004600D02*
X005883Y004800D01*
X005233Y004800D01*
X005333Y004600D01*
X005433Y004380D02*
X005433Y002780D01*
X003633Y002780D01*
X003633Y002930D01*
X003483Y002930D02*
X003483Y002260D01*
X003633Y002260D02*
X003633Y002410D01*
X005433Y002410D01*
X005433Y000810D01*
X005183Y000960D02*
X003933Y000960D01*
X003483Y000600D02*
X006183Y000600D01*
X006183Y000810D01*
X005183Y000960D02*
X005183Y002260D01*
X003933Y002260D01*
X003933Y002930D02*
X005183Y002930D01*
X005183Y004230D01*
X003933Y004230D01*
X003833Y005300D02*
X007633Y005300D01*
X007650Y005302D01*
X007667Y005306D01*
X007683Y005313D01*
X007697Y005323D01*
X007710Y005336D01*
X007720Y005350D01*
X007727Y005366D01*
X007731Y005383D01*
X007733Y005400D01*
X007733Y006800D01*
X007731Y006817D01*
X007727Y006834D01*
X007720Y006850D01*
X007710Y006864D01*
X007697Y006877D01*
X007683Y006887D01*
X007667Y006894D01*
X007650Y006898D01*
X007633Y006900D01*
X003833Y006900D01*
X003816Y006898D01*
X003799Y006894D01*
X003783Y006887D01*
X003769Y006877D01*
X003756Y006864D01*
X003746Y006850D01*
X003739Y006834D01*
X003735Y006817D01*
X003733Y006800D01*
X003733Y005400D01*
X003735Y005383D01*
X003739Y005366D01*
X003746Y005350D01*
X003756Y005336D01*
X003769Y005323D01*
X003783Y005313D01*
X003799Y005306D01*
X003816Y005302D01*
X003833Y005300D01*
X004683Y006100D02*
X004883Y006100D01*
X005233Y006100D02*
X006783Y006100D01*
X007633Y007300D02*
X003833Y007300D01*
X003816Y007302D01*
X003799Y007306D01*
X003783Y007313D01*
X003769Y007323D01*
X003756Y007336D01*
X003746Y007350D01*
X003739Y007366D01*
X003735Y007383D01*
X003733Y007400D01*
X003733Y008800D01*
X003735Y008817D01*
X003739Y008834D01*
X003746Y008850D01*
X003756Y008864D01*
X003769Y008877D01*
X003783Y008887D01*
X003799Y008894D01*
X003816Y008898D01*
X003833Y008900D01*
X007633Y008900D01*
X007650Y008898D01*
X007667Y008894D01*
X007683Y008887D01*
X007697Y008877D01*
X007710Y008864D01*
X007720Y008850D01*
X007727Y008834D01*
X007731Y008817D01*
X007733Y008800D01*
X007733Y007400D01*
X007731Y007383D01*
X007727Y007366D01*
X007720Y007350D01*
X007710Y007336D01*
X007697Y007323D01*
X007683Y007313D01*
X007667Y007306D01*
X007650Y007302D01*
X007633Y007300D01*
X006783Y008100D02*
X006583Y008100D01*
X006233Y008100D02*
X004683Y008100D01*
X004733Y009150D02*
X004583Y009150D01*
X004566Y009152D01*
X004549Y009156D01*
X004533Y009163D01*
X004519Y009173D01*
X004506Y009186D01*
X004496Y009200D01*
X004489Y009216D01*
X004485Y009233D01*
X004483Y009250D01*
X004483Y009950D01*
X004485Y009967D01*
X004489Y009984D01*
X004496Y010000D01*
X004506Y010014D01*
X004519Y010027D01*
X004533Y010037D01*
X004549Y010044D01*
X004566Y010048D01*
X004583Y010050D01*
X004733Y010050D01*
X004783Y010000D01*
X006683Y010000D01*
X006733Y010050D01*
X006883Y010050D01*
X006900Y010048D01*
X006917Y010044D01*
X006933Y010037D01*
X006947Y010027D01*
X006960Y010014D01*
X006970Y010000D01*
X006977Y009984D01*
X006981Y009967D01*
X006983Y009950D01*
X006983Y009250D01*
X006981Y009233D01*
X006977Y009216D01*
X006970Y009200D01*
X006960Y009186D01*
X006947Y009173D01*
X006933Y009163D01*
X006917Y009156D01*
X006900Y009152D01*
X006883Y009150D01*
X006733Y009150D01*
X006683Y009200D01*
X004783Y009200D01*
X004733Y009150D01*
X004433Y010600D02*
X003033Y010600D01*
X003016Y010602D01*
X002999Y010606D01*
X002983Y010613D01*
X002969Y010623D01*
X002956Y010636D01*
X002946Y010650D01*
X002939Y010666D01*
X002935Y010683D01*
X002933Y010700D01*
X002933Y014500D01*
X002935Y014517D01*
X002939Y014534D01*
X002946Y014550D01*
X002956Y014564D01*
X002969Y014577D01*
X002983Y014587D01*
X002999Y014594D01*
X003016Y014598D01*
X003033Y014600D01*
X004433Y014600D01*
X004450Y014598D01*
X004467Y014594D01*
X004483Y014587D01*
X004497Y014577D01*
X004510Y014564D01*
X004520Y014550D01*
X004527Y014534D01*
X004531Y014517D01*
X004533Y014500D01*
X004533Y010700D01*
X004531Y010683D01*
X004527Y010666D01*
X004520Y010650D01*
X004510Y010636D01*
X004497Y010623D01*
X004483Y010613D01*
X004467Y010606D01*
X004450Y010602D01*
X004433Y010600D01*
X003733Y011550D02*
X003733Y013100D01*
X003733Y013450D02*
X003733Y013650D01*
X004783Y014100D02*
X004783Y014250D01*
X004785Y014267D01*
X004789Y014284D01*
X004796Y014300D01*
X004806Y014314D01*
X004819Y014327D01*
X004833Y014337D01*
X004849Y014344D01*
X004866Y014348D01*
X004883Y014350D01*
X005583Y014350D01*
X005600Y014348D01*
X005617Y014344D01*
X005633Y014337D01*
X005647Y014327D01*
X005660Y014314D01*
X005670Y014300D01*
X005677Y014284D01*
X005681Y014267D01*
X005683Y014250D01*
X005683Y014100D01*
X005633Y014050D01*
X005633Y012150D01*
X005683Y012100D01*
X005683Y011950D01*
X005681Y011933D01*
X005677Y011916D01*
X005670Y011900D01*
X005660Y011886D01*
X005647Y011873D01*
X005633Y011863D01*
X005617Y011856D01*
X005600Y011852D01*
X005583Y011850D01*
X004883Y011850D01*
X004866Y011852D01*
X004849Y011856D01*
X004833Y011863D01*
X004819Y011873D01*
X004806Y011886D01*
X004796Y011900D01*
X004789Y011916D01*
X004785Y011933D01*
X004783Y011950D01*
X004783Y012100D01*
X004833Y012150D01*
X004833Y014050D01*
X004783Y014100D01*
X004233Y015150D02*
X001933Y015150D01*
X001933Y015450D01*
X002233Y015450D01*
X002233Y016500D01*
X002233Y017700D02*
X002233Y018750D01*
X001933Y018750D01*
X001933Y019050D01*
X004233Y019050D01*
X004233Y015150D01*
X005983Y015750D02*
X005983Y016450D01*
X005985Y016467D01*
X005989Y016484D01*
X005996Y016500D01*
X006006Y016514D01*
X006019Y016527D01*
X006033Y016537D01*
X006049Y016544D01*
X006066Y016548D01*
X006083Y016550D01*
X006233Y016550D01*
X006283Y016500D01*
X008183Y016500D01*
X008233Y016550D01*
X008383Y016550D01*
X008383Y016650D02*
X008233Y016650D01*
X008183Y016700D01*
X006283Y016700D01*
X006233Y016650D01*
X006083Y016650D01*
X006066Y016652D01*
X006049Y016656D01*
X006033Y016663D01*
X006019Y016673D01*
X006006Y016686D01*
X005996Y016700D01*
X005989Y016716D01*
X005985Y016733D01*
X005983Y016750D01*
X005983Y017450D01*
X005985Y017467D01*
X005989Y017484D01*
X005996Y017500D01*
X006006Y017514D01*
X006019Y017527D01*
X006033Y017537D01*
X006049Y017544D01*
X006066Y017548D01*
X006083Y017550D01*
X006233Y017550D01*
X006283Y017500D01*
X008183Y017500D01*
X008233Y017550D01*
X008383Y017550D01*
X008400Y017548D01*
X008417Y017544D01*
X008433Y017537D01*
X008447Y017527D01*
X008460Y017514D01*
X008470Y017500D01*
X008477Y017484D01*
X008481Y017467D01*
X008483Y017450D01*
X008483Y016750D01*
X008481Y016733D01*
X008477Y016716D01*
X008470Y016700D01*
X008460Y016686D01*
X008447Y016673D01*
X008433Y016663D01*
X008417Y016656D01*
X008400Y016652D01*
X008383Y016650D01*
X008383Y016550D02*
X008400Y016548D01*
X008417Y016544D01*
X008433Y016537D01*
X008447Y016527D01*
X008460Y016514D01*
X008470Y016500D01*
X008477Y016484D01*
X008481Y016467D01*
X008483Y016450D01*
X008483Y015750D01*
X008481Y015733D01*
X008477Y015716D01*
X008470Y015700D01*
X008460Y015686D01*
X008447Y015673D01*
X008433Y015663D01*
X008417Y015656D01*
X008400Y015652D01*
X008383Y015650D01*
X008233Y015650D01*
X008183Y015700D01*
X006283Y015700D01*
X006233Y015650D01*
X006083Y015650D01*
X006066Y015652D01*
X006049Y015656D01*
X006033Y015663D01*
X006019Y015673D01*
X006006Y015686D01*
X005996Y015700D01*
X005989Y015716D01*
X005985Y015733D01*
X005983Y015750D01*
X006233Y014100D02*
X006235Y014163D01*
X006241Y014225D01*
X006251Y014287D01*
X006264Y014349D01*
X006282Y014409D01*
X006303Y014468D01*
X006328Y014526D01*
X006357Y014582D01*
X006389Y014636D01*
X006424Y014688D01*
X006462Y014737D01*
X006504Y014785D01*
X006548Y014829D01*
X006596Y014871D01*
X006645Y014909D01*
X006697Y014944D01*
X006751Y014976D01*
X006807Y015005D01*
X006865Y015030D01*
X006924Y015051D01*
X006984Y015069D01*
X007046Y015082D01*
X007108Y015092D01*
X007170Y015098D01*
X007233Y015100D01*
X007296Y015098D01*
X007358Y015092D01*
X007420Y015082D01*
X007482Y015069D01*
X007542Y015051D01*
X007601Y015030D01*
X007659Y015005D01*
X007715Y014976D01*
X007769Y014944D01*
X007821Y014909D01*
X007870Y014871D01*
X007918Y014829D01*
X007962Y014785D01*
X008004Y014737D01*
X008042Y014688D01*
X008077Y014636D01*
X008109Y014582D01*
X008138Y014526D01*
X008163Y014468D01*
X008184Y014409D01*
X008202Y014349D01*
X008215Y014287D01*
X008225Y014225D01*
X008231Y014163D01*
X008233Y014100D01*
X008231Y014037D01*
X008225Y013975D01*
X008215Y013913D01*
X008202Y013851D01*
X008184Y013791D01*
X008163Y013732D01*
X008138Y013674D01*
X008109Y013618D01*
X008077Y013564D01*
X008042Y013512D01*
X008004Y013463D01*
X007962Y013415D01*
X007918Y013371D01*
X007870Y013329D01*
X007821Y013291D01*
X007769Y013256D01*
X007715Y013224D01*
X007659Y013195D01*
X007601Y013170D01*
X007542Y013149D01*
X007482Y013131D01*
X007420Y013118D01*
X007358Y013108D01*
X007296Y013102D01*
X007233Y013100D01*
X007170Y013102D01*
X007108Y013108D01*
X007046Y013118D01*
X006984Y013131D01*
X006924Y013149D01*
X006865Y013170D01*
X006807Y013195D01*
X006751Y013224D01*
X006697Y013256D01*
X006645Y013291D01*
X006596Y013329D01*
X006548Y013371D01*
X006504Y013415D01*
X006462Y013463D01*
X006424Y013512D01*
X006389Y013564D01*
X006357Y013618D01*
X006328Y013674D01*
X006303Y013732D01*
X006282Y013791D01*
X006264Y013851D01*
X006251Y013913D01*
X006241Y013975D01*
X006235Y014037D01*
X006233Y014100D01*
X006533Y013800D02*
X006533Y013600D01*
X006633Y013700D02*
X006433Y013700D01*
X007083Y012550D02*
X007233Y012550D01*
X007283Y012500D01*
X009183Y012500D01*
X009233Y012550D01*
X009383Y012550D01*
X009400Y012548D01*
X009417Y012544D01*
X009433Y012537D01*
X009447Y012527D01*
X009460Y012514D01*
X009470Y012500D01*
X009477Y012484D01*
X009481Y012467D01*
X009483Y012450D01*
X009483Y011750D01*
X009481Y011733D01*
X009477Y011716D01*
X009470Y011700D01*
X009460Y011686D01*
X009447Y011673D01*
X009433Y011663D01*
X009417Y011656D01*
X009400Y011652D01*
X009383Y011650D01*
X009233Y011650D01*
X009183Y011700D01*
X007283Y011700D01*
X007233Y011650D01*
X007083Y011650D01*
X007066Y011652D01*
X007049Y011656D01*
X007033Y011663D01*
X007019Y011673D01*
X007006Y011686D01*
X006996Y011700D01*
X006989Y011716D01*
X006985Y011733D01*
X006983Y011750D01*
X006983Y012450D01*
X006985Y012467D01*
X006989Y012484D01*
X006996Y012500D01*
X007006Y012514D01*
X007019Y012527D01*
X007033Y012537D01*
X007049Y012544D01*
X007066Y012548D01*
X007083Y012550D01*
X008233Y011300D02*
X008233Y009900D01*
X008235Y009883D01*
X008239Y009866D01*
X008246Y009850D01*
X008256Y009836D01*
X008269Y009823D01*
X008283Y009813D01*
X008299Y009806D01*
X008316Y009802D01*
X008333Y009800D01*
X012133Y009800D01*
X012150Y009802D01*
X012167Y009806D01*
X012183Y009813D01*
X012197Y009823D01*
X012210Y009836D01*
X012220Y009850D01*
X012227Y009866D01*
X012231Y009883D01*
X012233Y009900D01*
X012233Y011300D01*
X012231Y011317D01*
X012227Y011334D01*
X012220Y011350D01*
X012210Y011364D01*
X012197Y011377D01*
X012183Y011387D01*
X012167Y011394D01*
X012150Y011398D01*
X012133Y011400D01*
X008333Y011400D01*
X008316Y011398D01*
X008299Y011394D01*
X008283Y011387D01*
X008269Y011377D01*
X008256Y011364D01*
X008246Y011350D01*
X008239Y011334D01*
X008235Y011317D01*
X008233Y011300D01*
X009183Y010600D02*
X009383Y010600D01*
X009733Y010600D02*
X011283Y010600D01*
X011533Y009500D02*
X009933Y009500D01*
X009916Y009498D01*
X009899Y009494D01*
X009883Y009487D01*
X009869Y009477D01*
X009856Y009464D01*
X009846Y009450D01*
X009839Y009434D01*
X009835Y009417D01*
X009833Y009400D01*
X009833Y008800D01*
X009835Y008783D01*
X009839Y008766D01*
X009846Y008750D01*
X009856Y008736D01*
X009869Y008723D01*
X009883Y008713D01*
X009899Y008706D01*
X009916Y008702D01*
X009933Y008700D01*
X011533Y008700D01*
X011550Y008702D01*
X011567Y008706D01*
X011583Y008713D01*
X011597Y008723D01*
X011610Y008736D01*
X011620Y008750D01*
X011627Y008766D01*
X011631Y008783D01*
X011633Y008800D01*
X011633Y009400D01*
X011631Y009417D01*
X011627Y009434D01*
X011620Y009450D01*
X011610Y009464D01*
X011597Y009477D01*
X011583Y009487D01*
X011567Y009494D01*
X011550Y009498D01*
X011533Y009500D01*
X010983Y009100D02*
X010733Y009100D01*
X010733Y009350D01*
X010733Y009100D02*
X010133Y009100D01*
X010333Y008850D02*
X010733Y009100D01*
X010733Y008850D01*
X010733Y009100D02*
X010333Y009350D01*
X010333Y008850D01*
X009733Y008050D02*
X009783Y008000D01*
X011683Y008000D01*
X011733Y008050D01*
X011883Y008050D01*
X011900Y008048D01*
X011917Y008044D01*
X011933Y008037D01*
X011947Y008027D01*
X011960Y008014D01*
X011970Y008000D01*
X011977Y007984D01*
X011981Y007967D01*
X011983Y007950D01*
X011983Y007250D01*
X011981Y007233D01*
X011977Y007216D01*
X011970Y007200D01*
X011960Y007186D01*
X011947Y007173D01*
X011933Y007163D01*
X011917Y007156D01*
X011900Y007152D01*
X011883Y007150D01*
X011733Y007150D01*
X011683Y007200D01*
X009783Y007200D01*
X009733Y007150D01*
X009583Y007150D01*
X009566Y007152D01*
X009549Y007156D01*
X009533Y007163D01*
X009519Y007173D01*
X009506Y007186D01*
X009496Y007200D01*
X009489Y007216D01*
X009485Y007233D01*
X009483Y007250D01*
X009483Y007950D01*
X009485Y007967D01*
X009489Y007984D01*
X009496Y008000D01*
X009506Y008014D01*
X009519Y008027D01*
X009533Y008037D01*
X009549Y008044D01*
X009566Y008048D01*
X009583Y008050D01*
X009733Y008050D01*
X009733Y006050D02*
X009783Y006000D01*
X011683Y006000D01*
X011733Y006050D01*
X011883Y006050D01*
X011900Y006048D01*
X011917Y006044D01*
X011933Y006037D01*
X011947Y006027D01*
X011960Y006014D01*
X011970Y006000D01*
X011977Y005984D01*
X011981Y005967D01*
X011983Y005950D01*
X011983Y005250D01*
X011981Y005233D01*
X011977Y005216D01*
X011970Y005200D01*
X011960Y005186D01*
X011947Y005173D01*
X011933Y005163D01*
X011917Y005156D01*
X011900Y005152D01*
X011883Y005150D01*
X011733Y005150D01*
X011683Y005200D01*
X009783Y005200D01*
X009733Y005150D01*
X009583Y005150D01*
X009566Y005152D01*
X009549Y005156D01*
X009533Y005163D01*
X009519Y005173D01*
X009506Y005186D01*
X009496Y005200D01*
X009489Y005216D01*
X009485Y005233D01*
X009483Y005250D01*
X009483Y005950D01*
X009485Y005967D01*
X009489Y005984D01*
X009496Y006000D01*
X009506Y006014D01*
X009519Y006027D01*
X009533Y006037D01*
X009549Y006044D01*
X009566Y006048D01*
X009583Y006050D01*
X009733Y006050D01*
X009733Y005050D02*
X009583Y005050D01*
X009566Y005048D01*
X009549Y005044D01*
X009533Y005037D01*
X009519Y005027D01*
X009506Y005014D01*
X009496Y005000D01*
X009489Y004984D01*
X009485Y004967D01*
X009483Y004950D01*
X009483Y004250D01*
X009485Y004233D01*
X009489Y004216D01*
X009496Y004200D01*
X009506Y004186D01*
X009519Y004173D01*
X009533Y004163D01*
X009549Y004156D01*
X009566Y004152D01*
X009583Y004150D01*
X009733Y004150D01*
X009783Y004200D01*
X011683Y004200D01*
X011733Y004150D01*
X011883Y004150D01*
X011900Y004152D01*
X011917Y004156D01*
X011933Y004163D01*
X011947Y004173D01*
X011960Y004186D01*
X011970Y004200D01*
X011977Y004216D01*
X011981Y004233D01*
X011983Y004250D01*
X011983Y004950D01*
X011981Y004967D01*
X011977Y004984D01*
X011970Y005000D01*
X011960Y005014D01*
X011947Y005027D01*
X011933Y005037D01*
X011917Y005044D01*
X011900Y005048D01*
X011883Y005050D01*
X011733Y005050D01*
X011683Y005000D01*
X009783Y005000D01*
X009733Y005050D01*
X006183Y002780D02*
X005433Y002780D01*
X005433Y002410D02*
X006183Y002410D01*
X002383Y002780D02*
X002383Y004380D01*
X001383Y004380D01*
X001383Y002780D01*
X002383Y002780D01*
X002033Y002990D02*
X001783Y004190D01*
X001733Y004140D02*
X001983Y002940D01*
X002107Y003017D02*
X002090Y002991D01*
X002071Y002968D01*
X002048Y002948D01*
X002024Y002931D01*
X001997Y002917D01*
X001968Y002906D01*
X001939Y002900D01*
X001909Y002897D01*
X001878Y002898D01*
X001849Y002903D01*
X001820Y002912D01*
X001792Y002925D01*
X001767Y002941D01*
X001743Y002960D01*
X002093Y003000D02*
X002129Y003048D01*
X002162Y003099D01*
X002192Y003151D01*
X002218Y003205D01*
X002241Y003261D01*
X002261Y003318D01*
X002277Y003376D01*
X002289Y003435D01*
X002297Y003495D01*
X002302Y003555D01*
X002303Y003615D01*
X002300Y003675D01*
X002293Y003735D01*
X002283Y003795D01*
X002269Y003853D01*
X002251Y003911D01*
X002230Y003967D01*
X002205Y004022D01*
X002177Y004075D01*
X002146Y004127D01*
X002111Y004176D01*
X002125Y004158D02*
X002103Y004180D01*
X002080Y004199D01*
X002054Y004215D01*
X002027Y004228D01*
X001998Y004238D01*
X001969Y004245D01*
X001938Y004249D01*
X001908Y004249D01*
X001878Y004245D01*
X001848Y004238D01*
X001820Y004228D01*
X001792Y004215D01*
X001767Y004199D01*
X001743Y004180D01*
X001283Y004600D02*
X002483Y004600D01*
X001741Y004182D02*
X001701Y004145D01*
X001664Y004105D01*
X001629Y004063D01*
X001598Y004019D01*
X001569Y003973D01*
X001544Y003925D01*
X001522Y003875D01*
X001503Y003824D01*
X001487Y003772D01*
X001476Y003718D01*
X001468Y003665D01*
X001463Y003610D01*
X001462Y003556D01*
X001465Y003502D01*
X001471Y003447D01*
X001481Y003394D01*
X001495Y003341D01*
X001512Y003290D01*
X001533Y003239D01*
X001556Y003190D01*
X001584Y003143D01*
X001614Y003098D01*
X001647Y003055D01*
X001683Y003014D01*
X001722Y002975D01*
X001763Y002940D01*
X013733Y003900D02*
X013733Y005300D01*
X013735Y005317D01*
X013739Y005334D01*
X013746Y005350D01*
X013756Y005364D01*
X013769Y005377D01*
X013783Y005387D01*
X013799Y005394D01*
X013816Y005398D01*
X013833Y005400D01*
X017633Y005400D01*
X017650Y005398D01*
X017667Y005394D01*
X017683Y005387D01*
X017697Y005377D01*
X017710Y005364D01*
X017720Y005350D01*
X017727Y005334D01*
X017731Y005317D01*
X017733Y005300D01*
X017733Y003900D01*
X017731Y003883D01*
X017727Y003866D01*
X017720Y003850D01*
X017710Y003836D01*
X017697Y003823D01*
X017683Y003813D01*
X017667Y003806D01*
X017650Y003802D01*
X017633Y003800D01*
X013833Y003800D01*
X013816Y003802D01*
X013799Y003806D01*
X013783Y003813D01*
X013769Y003823D01*
X013756Y003836D01*
X013746Y003850D01*
X013739Y003866D01*
X013735Y003883D01*
X013733Y003900D01*
X014683Y004600D02*
X016233Y004600D01*
X016583Y004600D02*
X016783Y004600D01*
X016733Y002550D02*
X016683Y002500D01*
X014783Y002500D01*
X014733Y002550D01*
X014583Y002550D01*
X014566Y002548D01*
X014549Y002544D01*
X014533Y002537D01*
X014519Y002527D01*
X014506Y002514D01*
X014496Y002500D01*
X014489Y002484D01*
X014485Y002467D01*
X014483Y002450D01*
X014483Y001750D01*
X014485Y001733D01*
X014489Y001716D01*
X014496Y001700D01*
X014506Y001686D01*
X014519Y001673D01*
X014533Y001663D01*
X014549Y001656D01*
X014566Y001652D01*
X014583Y001650D01*
X014733Y001650D01*
X014783Y001700D01*
X016683Y001700D01*
X016733Y001650D01*
X016883Y001650D01*
X016900Y001652D01*
X016917Y001656D01*
X016933Y001663D01*
X016947Y001673D01*
X016960Y001686D01*
X016970Y001700D01*
X016977Y001716D01*
X016981Y001733D01*
X016983Y001750D01*
X016983Y002450D01*
X016981Y002467D01*
X016977Y002484D01*
X016970Y002500D01*
X016960Y002514D01*
X016947Y002527D01*
X016933Y002537D01*
X016917Y002544D01*
X016900Y002548D01*
X016883Y002550D01*
X016733Y002550D01*
X019583Y003100D02*
X021883Y003100D01*
X021883Y007100D01*
X021133Y007100D01*
X021131Y007061D01*
X021125Y007022D01*
X021116Y006984D01*
X021103Y006947D01*
X021086Y006911D01*
X021066Y006878D01*
X021042Y006846D01*
X021016Y006817D01*
X020987Y006791D01*
X020955Y006767D01*
X020922Y006747D01*
X020886Y006730D01*
X020849Y006717D01*
X020811Y006708D01*
X020772Y006702D01*
X020733Y006700D01*
X020694Y006702D01*
X020655Y006708D01*
X020617Y006717D01*
X020580Y006730D01*
X020544Y006747D01*
X020511Y006767D01*
X020479Y006791D01*
X020450Y006817D01*
X020424Y006846D01*
X020400Y006878D01*
X020380Y006911D01*
X020363Y006947D01*
X020350Y006984D01*
X020341Y007022D01*
X020335Y007061D01*
X020333Y007100D01*
X019583Y007100D01*
X019583Y003100D01*
X023233Y004400D02*
X023233Y005800D01*
X023235Y005817D01*
X023239Y005834D01*
X023246Y005850D01*
X023256Y005864D01*
X023269Y005877D01*
X023283Y005887D01*
X023299Y005894D01*
X023316Y005898D01*
X023333Y005900D01*
X027133Y005900D01*
X027150Y005898D01*
X027167Y005894D01*
X027183Y005887D01*
X027197Y005877D01*
X027210Y005864D01*
X027220Y005850D01*
X027227Y005834D01*
X027231Y005817D01*
X027233Y005800D01*
X027233Y004400D01*
X027231Y004383D01*
X027227Y004366D01*
X027220Y004350D01*
X027210Y004336D01*
X027197Y004323D01*
X027183Y004313D01*
X027167Y004306D01*
X027150Y004302D01*
X027133Y004300D01*
X023333Y004300D01*
X023316Y004302D01*
X023299Y004306D01*
X023283Y004313D01*
X023269Y004323D01*
X023256Y004336D01*
X023246Y004350D01*
X023239Y004366D01*
X023235Y004383D01*
X023233Y004400D01*
X024183Y005100D02*
X025733Y005100D01*
X026083Y005100D02*
X026283Y005100D01*
X026733Y006150D02*
X026883Y006150D01*
X026900Y006152D01*
X026917Y006156D01*
X026933Y006163D01*
X026947Y006173D01*
X026960Y006186D01*
X026970Y006200D01*
X026977Y006216D01*
X026981Y006233D01*
X026983Y006250D01*
X026983Y006950D01*
X026981Y006967D01*
X026977Y006984D01*
X026970Y007000D01*
X026960Y007014D01*
X026947Y007027D01*
X026933Y007037D01*
X026917Y007044D01*
X026900Y007048D01*
X026883Y007050D01*
X026733Y007050D01*
X026683Y007000D01*
X024783Y007000D01*
X024733Y007050D01*
X024583Y007050D01*
X024566Y007048D01*
X024549Y007044D01*
X024533Y007037D01*
X024519Y007027D01*
X024506Y007014D01*
X024496Y007000D01*
X024489Y006984D01*
X024485Y006967D01*
X024483Y006950D01*
X024483Y006250D01*
X024485Y006233D01*
X024489Y006216D01*
X024496Y006200D01*
X024506Y006186D01*
X024519Y006173D01*
X024533Y006163D01*
X024549Y006156D01*
X024566Y006152D01*
X024583Y006150D01*
X024733Y006150D01*
X024783Y006200D01*
X026683Y006200D01*
X026733Y006150D01*
X029283Y004900D02*
X029283Y002600D01*
X033183Y002600D01*
X033183Y004900D01*
X032883Y004900D01*
X032883Y004600D01*
X031833Y004600D01*
X032233Y005650D02*
X032383Y005650D01*
X032400Y005652D01*
X032417Y005656D01*
X032433Y005663D01*
X032447Y005673D01*
X032460Y005686D01*
X032470Y005700D01*
X032477Y005716D01*
X032481Y005733D01*
X032483Y005750D01*
X032483Y006450D01*
X032481Y006467D01*
X032477Y006484D01*
X032470Y006500D01*
X032460Y006514D01*
X032447Y006527D01*
X032433Y006537D01*
X032417Y006544D01*
X032400Y006548D01*
X032383Y006550D01*
X032233Y006550D01*
X032183Y006500D01*
X030283Y006500D01*
X030233Y006550D01*
X030083Y006550D01*
X030066Y006548D01*
X030049Y006544D01*
X030033Y006537D01*
X030019Y006527D01*
X030006Y006514D01*
X029996Y006500D01*
X029989Y006484D01*
X029985Y006467D01*
X029983Y006450D01*
X029983Y005750D01*
X029985Y005733D01*
X029989Y005716D01*
X029996Y005700D01*
X030006Y005686D01*
X030019Y005673D01*
X030033Y005663D01*
X030049Y005656D01*
X030066Y005652D01*
X030083Y005650D01*
X030233Y005650D01*
X030283Y005700D01*
X032183Y005700D01*
X032233Y005650D01*
X030633Y004600D02*
X029583Y004600D01*
X029583Y004900D01*
X029283Y004900D01*
X026983Y003950D02*
X026983Y003250D01*
X026981Y003233D01*
X026977Y003216D01*
X026970Y003200D01*
X026960Y003186D01*
X026947Y003173D01*
X026933Y003163D01*
X026917Y003156D01*
X026900Y003152D01*
X026883Y003150D01*
X026733Y003150D01*
X026683Y003200D01*
X024783Y003200D01*
X024733Y003150D01*
X024583Y003150D01*
X024566Y003152D01*
X024549Y003156D01*
X024533Y003163D01*
X024519Y003173D01*
X024506Y003186D01*
X024496Y003200D01*
X024489Y003216D01*
X024485Y003233D01*
X024483Y003250D01*
X024483Y003950D01*
X024485Y003967D01*
X024489Y003984D01*
X024496Y004000D01*
X024506Y004014D01*
X024519Y004027D01*
X024533Y004037D01*
X024549Y004044D01*
X024566Y004048D01*
X024583Y004050D01*
X024733Y004050D01*
X024783Y004000D01*
X026683Y004000D01*
X026733Y004050D01*
X026883Y004050D01*
X026900Y004048D01*
X026917Y004044D01*
X026933Y004037D01*
X026947Y004027D01*
X026960Y004014D01*
X026970Y004000D01*
X026977Y003984D01*
X026981Y003967D01*
X026983Y003950D01*
X026883Y002550D02*
X026733Y002550D01*
X026683Y002500D01*
X024783Y002500D01*
X024733Y002550D01*
X024583Y002550D01*
X024566Y002548D01*
X024549Y002544D01*
X024533Y002537D01*
X024519Y002527D01*
X024506Y002514D01*
X024496Y002500D01*
X024489Y002484D01*
X024485Y002467D01*
X024483Y002450D01*
X024483Y001750D01*
X024485Y001733D01*
X024489Y001716D01*
X024496Y001700D01*
X024506Y001686D01*
X024519Y001673D01*
X024533Y001663D01*
X024549Y001656D01*
X024566Y001652D01*
X024583Y001650D01*
X024733Y001650D01*
X024783Y001700D01*
X026683Y001700D01*
X026733Y001650D01*
X026883Y001650D01*
X026900Y001652D01*
X026917Y001656D01*
X026933Y001663D01*
X026947Y001673D01*
X026960Y001686D01*
X026970Y001700D01*
X026977Y001716D01*
X026981Y001733D01*
X026983Y001750D01*
X026983Y002450D01*
X026981Y002467D01*
X026977Y002484D01*
X026970Y002500D01*
X026960Y002514D01*
X026947Y002527D01*
X026933Y002537D01*
X026917Y002544D01*
X026900Y002548D01*
X026883Y002550D01*
X030083Y007150D02*
X030233Y007150D01*
X030283Y007200D01*
X032183Y007200D01*
X032233Y007150D01*
X032383Y007150D01*
X032400Y007152D01*
X032417Y007156D01*
X032433Y007163D01*
X032447Y007173D01*
X032460Y007186D01*
X032470Y007200D01*
X032477Y007216D01*
X032481Y007233D01*
X032483Y007250D01*
X032483Y007950D01*
X032481Y007967D01*
X032477Y007984D01*
X032470Y008000D01*
X032460Y008014D01*
X032447Y008027D01*
X032433Y008037D01*
X032417Y008044D01*
X032400Y008048D01*
X032383Y008050D01*
X032233Y008050D01*
X032183Y008000D01*
X030283Y008000D01*
X030233Y008050D01*
X030083Y008050D01*
X030066Y008048D01*
X030049Y008044D01*
X030033Y008037D01*
X030019Y008027D01*
X030006Y008014D01*
X029996Y008000D01*
X029989Y007984D01*
X029985Y007967D01*
X029983Y007950D01*
X029983Y007250D01*
X029985Y007233D01*
X029989Y007216D01*
X029996Y007200D01*
X030006Y007186D01*
X030019Y007173D01*
X030033Y007163D01*
X030049Y007156D01*
X030066Y007152D01*
X030083Y007150D01*
X029383Y008650D02*
X029233Y008650D01*
X029183Y008700D01*
X027283Y008700D01*
X027233Y008650D01*
X027083Y008650D01*
X027066Y008652D01*
X027049Y008656D01*
X027033Y008663D01*
X027019Y008673D01*
X027006Y008686D01*
X026996Y008700D01*
X026989Y008716D01*
X026985Y008733D01*
X026983Y008750D01*
X026983Y009450D01*
X026985Y009467D01*
X026989Y009484D01*
X026996Y009500D01*
X027006Y009514D01*
X027019Y009527D01*
X027033Y009537D01*
X027049Y009544D01*
X027066Y009548D01*
X027083Y009550D01*
X027233Y009550D01*
X027283Y009500D01*
X029183Y009500D01*
X029233Y009550D01*
X029383Y009550D01*
X029400Y009548D01*
X029417Y009544D01*
X029433Y009537D01*
X029447Y009527D01*
X029460Y009514D01*
X029470Y009500D01*
X029477Y009484D01*
X029481Y009467D01*
X029483Y009450D01*
X029483Y008750D01*
X029481Y008733D01*
X029477Y008716D01*
X029470Y008700D01*
X029460Y008686D01*
X029447Y008673D01*
X029433Y008663D01*
X029417Y008656D01*
X029400Y008652D01*
X029383Y008650D01*
X030083Y009650D02*
X030233Y009650D01*
X030283Y009700D01*
X032183Y009700D01*
X032233Y009650D01*
X032383Y009650D01*
X032400Y009652D01*
X032417Y009656D01*
X032433Y009663D01*
X032447Y009673D01*
X032460Y009686D01*
X032470Y009700D01*
X032477Y009716D01*
X032481Y009733D01*
X032483Y009750D01*
X032483Y010450D01*
X032481Y010467D01*
X032477Y010484D01*
X032470Y010500D01*
X032460Y010514D01*
X032447Y010527D01*
X032433Y010537D01*
X032417Y010544D01*
X032400Y010548D01*
X032383Y010550D01*
X032233Y010550D01*
X032183Y010500D01*
X030283Y010500D01*
X030233Y010550D01*
X030083Y010550D01*
X030066Y010548D01*
X030049Y010544D01*
X030033Y010537D01*
X030019Y010527D01*
X030006Y010514D01*
X029996Y010500D01*
X029989Y010484D01*
X029985Y010467D01*
X029983Y010450D01*
X029983Y009750D01*
X029985Y009733D01*
X029989Y009716D01*
X029996Y009700D01*
X030006Y009686D01*
X030019Y009673D01*
X030033Y009663D01*
X030049Y009656D01*
X030066Y009652D01*
X030083Y009650D01*
X026733Y011100D02*
X026735Y011163D01*
X026741Y011225D01*
X026751Y011287D01*
X026764Y011349D01*
X026782Y011409D01*
X026803Y011468D01*
X026828Y011526D01*
X026857Y011582D01*
X026889Y011636D01*
X026924Y011688D01*
X026962Y011737D01*
X027004Y011785D01*
X027048Y011829D01*
X027096Y011871D01*
X027145Y011909D01*
X027197Y011944D01*
X027251Y011976D01*
X027307Y012005D01*
X027365Y012030D01*
X027424Y012051D01*
X027484Y012069D01*
X027546Y012082D01*
X027608Y012092D01*
X027670Y012098D01*
X027733Y012100D01*
X027796Y012098D01*
X027858Y012092D01*
X027920Y012082D01*
X027982Y012069D01*
X028042Y012051D01*
X028101Y012030D01*
X028159Y012005D01*
X028215Y011976D01*
X028269Y011944D01*
X028321Y011909D01*
X028370Y011871D01*
X028418Y011829D01*
X028462Y011785D01*
X028504Y011737D01*
X028542Y011688D01*
X028577Y011636D01*
X028609Y011582D01*
X028638Y011526D01*
X028663Y011468D01*
X028684Y011409D01*
X028702Y011349D01*
X028715Y011287D01*
X028725Y011225D01*
X028731Y011163D01*
X028733Y011100D01*
X028731Y011037D01*
X028725Y010975D01*
X028715Y010913D01*
X028702Y010851D01*
X028684Y010791D01*
X028663Y010732D01*
X028638Y010674D01*
X028609Y010618D01*
X028577Y010564D01*
X028542Y010512D01*
X028504Y010463D01*
X028462Y010415D01*
X028418Y010371D01*
X028370Y010329D01*
X028321Y010291D01*
X028269Y010256D01*
X028215Y010224D01*
X028159Y010195D01*
X028101Y010170D01*
X028042Y010149D01*
X027982Y010131D01*
X027920Y010118D01*
X027858Y010108D01*
X027796Y010102D01*
X027733Y010100D01*
X027670Y010102D01*
X027608Y010108D01*
X027546Y010118D01*
X027484Y010131D01*
X027424Y010149D01*
X027365Y010170D01*
X027307Y010195D01*
X027251Y010224D01*
X027197Y010256D01*
X027145Y010291D01*
X027096Y010329D01*
X027048Y010371D01*
X027004Y010415D01*
X026962Y010463D01*
X026924Y010512D01*
X026889Y010564D01*
X026857Y010618D01*
X026828Y010674D01*
X026803Y010732D01*
X026782Y010791D01*
X026764Y010851D01*
X026751Y010913D01*
X026741Y010975D01*
X026735Y011037D01*
X026733Y011100D01*
X027033Y010800D02*
X027033Y010600D01*
X027133Y010700D02*
X026933Y010700D01*
X026033Y009700D02*
X026033Y013500D01*
X026031Y013517D01*
X026027Y013534D01*
X026020Y013550D01*
X026010Y013564D01*
X025997Y013577D01*
X025983Y013587D01*
X025967Y013594D01*
X025950Y013598D01*
X025933Y013600D01*
X024533Y013600D01*
X024516Y013598D01*
X024499Y013594D01*
X024483Y013587D01*
X024469Y013577D01*
X024456Y013564D01*
X024446Y013550D01*
X024439Y013534D01*
X024435Y013517D01*
X024433Y013500D01*
X024433Y009700D01*
X024435Y009683D01*
X024439Y009666D01*
X024446Y009650D01*
X024456Y009636D01*
X024469Y009623D01*
X024483Y009613D01*
X024499Y009606D01*
X024516Y009602D01*
X024533Y009600D01*
X025933Y009600D01*
X025950Y009602D01*
X025967Y009606D01*
X025983Y009613D01*
X025997Y009623D01*
X026010Y009636D01*
X026020Y009650D01*
X026027Y009666D01*
X026031Y009683D01*
X026033Y009700D01*
X025233Y010550D02*
X025233Y010750D01*
X025233Y011100D02*
X025233Y012650D01*
X024183Y012250D02*
X024183Y012100D01*
X024133Y012050D01*
X024133Y010150D01*
X024183Y010100D01*
X024183Y009950D01*
X024181Y009933D01*
X024177Y009916D01*
X024170Y009900D01*
X024160Y009886D01*
X024147Y009873D01*
X024133Y009863D01*
X024117Y009856D01*
X024100Y009852D01*
X024083Y009850D01*
X023383Y009850D01*
X023366Y009852D01*
X023349Y009856D01*
X023333Y009863D01*
X023319Y009873D01*
X023306Y009886D01*
X023296Y009900D01*
X023289Y009916D01*
X023285Y009933D01*
X023283Y009950D01*
X023283Y010100D01*
X023333Y010150D01*
X023333Y012050D01*
X023283Y012100D01*
X023283Y012250D01*
X023285Y012267D01*
X023289Y012284D01*
X023296Y012300D01*
X023306Y012314D01*
X023319Y012327D01*
X023333Y012337D01*
X023349Y012344D01*
X023366Y012348D01*
X023383Y012350D01*
X024083Y012350D01*
X024100Y012348D01*
X024117Y012344D01*
X024133Y012337D01*
X024147Y012327D01*
X024160Y012314D01*
X024170Y012300D01*
X024177Y012284D01*
X024181Y012267D01*
X024183Y012250D01*
X021633Y014300D02*
X021633Y014500D01*
X021733Y014400D02*
X021533Y014400D01*
X020233Y015100D02*
X020235Y015163D01*
X020241Y015225D01*
X020251Y015287D01*
X020264Y015349D01*
X020282Y015409D01*
X020303Y015468D01*
X020328Y015526D01*
X020357Y015582D01*
X020389Y015636D01*
X020424Y015688D01*
X020462Y015737D01*
X020504Y015785D01*
X020548Y015829D01*
X020596Y015871D01*
X020645Y015909D01*
X020697Y015944D01*
X020751Y015976D01*
X020807Y016005D01*
X020865Y016030D01*
X020924Y016051D01*
X020984Y016069D01*
X021046Y016082D01*
X021108Y016092D01*
X021170Y016098D01*
X021233Y016100D01*
X021296Y016098D01*
X021358Y016092D01*
X021420Y016082D01*
X021482Y016069D01*
X021542Y016051D01*
X021601Y016030D01*
X021659Y016005D01*
X021715Y015976D01*
X021769Y015944D01*
X021821Y015909D01*
X021870Y015871D01*
X021918Y015829D01*
X021962Y015785D01*
X022004Y015737D01*
X022042Y015688D01*
X022077Y015636D01*
X022109Y015582D01*
X022138Y015526D01*
X022163Y015468D01*
X022184Y015409D01*
X022202Y015349D01*
X022215Y015287D01*
X022225Y015225D01*
X022231Y015163D01*
X022233Y015100D01*
X022231Y015037D01*
X022225Y014975D01*
X022215Y014913D01*
X022202Y014851D01*
X022184Y014791D01*
X022163Y014732D01*
X022138Y014674D01*
X022109Y014618D01*
X022077Y014564D01*
X022042Y014512D01*
X022004Y014463D01*
X021962Y014415D01*
X021918Y014371D01*
X021870Y014329D01*
X021821Y014291D01*
X021769Y014256D01*
X021715Y014224D01*
X021659Y014195D01*
X021601Y014170D01*
X021542Y014149D01*
X021482Y014131D01*
X021420Y014118D01*
X021358Y014108D01*
X021296Y014102D01*
X021233Y014100D01*
X021170Y014102D01*
X021108Y014108D01*
X021046Y014118D01*
X020984Y014131D01*
X020924Y014149D01*
X020865Y014170D01*
X020807Y014195D01*
X020751Y014224D01*
X020697Y014256D01*
X020645Y014291D01*
X020596Y014329D01*
X020548Y014371D01*
X020504Y014415D01*
X020462Y014463D01*
X020424Y014512D01*
X020389Y014564D01*
X020357Y014618D01*
X020328Y014674D01*
X020303Y014732D01*
X020282Y014791D01*
X020264Y014851D01*
X020251Y014913D01*
X020241Y014975D01*
X020235Y015037D01*
X020233Y015100D01*
X019683Y013600D02*
X019683Y011300D01*
X019383Y011300D01*
X019383Y011600D01*
X018333Y011600D01*
X017133Y011600D02*
X016083Y011600D01*
X016083Y011300D01*
X015783Y011300D01*
X015783Y013600D01*
X019683Y013600D01*
X017683Y015450D02*
X017683Y015600D01*
X017633Y015650D01*
X017633Y017550D01*
X017683Y017600D01*
X017683Y017750D01*
X017681Y017767D01*
X017677Y017784D01*
X017670Y017800D01*
X017660Y017814D01*
X017647Y017827D01*
X017633Y017837D01*
X017617Y017844D01*
X017600Y017848D01*
X017583Y017850D01*
X016883Y017850D01*
X016866Y017848D01*
X016849Y017844D01*
X016833Y017837D01*
X016819Y017827D01*
X016806Y017814D01*
X016796Y017800D01*
X016789Y017784D01*
X016785Y017767D01*
X016783Y017750D01*
X016783Y017600D01*
X016833Y017550D01*
X016833Y015650D01*
X016783Y015600D01*
X016783Y015450D01*
X016785Y015433D01*
X016789Y015416D01*
X016796Y015400D01*
X016806Y015386D01*
X016819Y015373D01*
X016833Y015363D01*
X016849Y015356D01*
X016866Y015352D01*
X016883Y015350D01*
X017583Y015350D01*
X017600Y015352D01*
X017617Y015356D01*
X017633Y015363D01*
X017647Y015373D01*
X017660Y015386D01*
X017670Y015400D01*
X017677Y015416D01*
X017681Y015433D01*
X017683Y015450D01*
X014683Y014750D02*
X014683Y014600D01*
X014633Y014550D01*
X014633Y012650D01*
X014683Y012600D01*
X014683Y012450D01*
X014681Y012433D01*
X014677Y012416D01*
X014670Y012400D01*
X014660Y012386D01*
X014647Y012373D01*
X014633Y012363D01*
X014617Y012356D01*
X014600Y012352D01*
X014583Y012350D01*
X013883Y012350D01*
X013866Y012352D01*
X013849Y012356D01*
X013833Y012363D01*
X013819Y012373D01*
X013806Y012386D01*
X013796Y012400D01*
X013789Y012416D01*
X013785Y012433D01*
X013783Y012450D01*
X013783Y012600D01*
X013833Y012650D01*
X013833Y014550D01*
X013783Y014600D01*
X013783Y014750D01*
X013785Y014767D01*
X013789Y014784D01*
X013796Y014800D01*
X013806Y014814D01*
X013819Y014827D01*
X013833Y014837D01*
X013849Y014844D01*
X013866Y014848D01*
X013883Y014850D01*
X014583Y014850D01*
X014600Y014848D01*
X014617Y014844D01*
X014633Y014837D01*
X014647Y014827D01*
X014660Y014814D01*
X014670Y014800D01*
X014677Y014784D01*
X014681Y014767D01*
X014683Y014750D01*
X013183Y014100D02*
X013183Y013950D01*
X013181Y013933D01*
X013177Y013916D01*
X013170Y013900D01*
X013160Y013886D01*
X013147Y013873D01*
X013133Y013863D01*
X013117Y013856D01*
X013100Y013852D01*
X013083Y013850D01*
X012383Y013850D01*
X012366Y013852D01*
X012349Y013856D01*
X012333Y013863D01*
X012319Y013873D01*
X012306Y013886D01*
X012296Y013900D01*
X012289Y013916D01*
X012285Y013933D01*
X012283Y013950D01*
X012283Y014100D01*
X012333Y014150D01*
X012333Y016050D01*
X012283Y016100D01*
X012283Y016250D01*
X012285Y016267D01*
X012289Y016284D01*
X012296Y016300D01*
X012306Y016314D01*
X012319Y016327D01*
X012333Y016337D01*
X012349Y016344D01*
X012366Y016348D01*
X012383Y016350D01*
X013083Y016350D01*
X013100Y016348D01*
X013117Y016344D01*
X013133Y016337D01*
X013147Y016327D01*
X013160Y016314D01*
X013170Y016300D01*
X013177Y016284D01*
X013181Y016267D01*
X013183Y016250D01*
X013183Y016100D01*
X013133Y016050D01*
X013133Y014150D01*
X013183Y014100D01*
X009733Y013600D02*
X009735Y013663D01*
X009741Y013725D01*
X009751Y013787D01*
X009764Y013849D01*
X009782Y013909D01*
X009803Y013968D01*
X009828Y014026D01*
X009857Y014082D01*
X009889Y014136D01*
X009924Y014188D01*
X009962Y014237D01*
X010004Y014285D01*
X010048Y014329D01*
X010096Y014371D01*
X010145Y014409D01*
X010197Y014444D01*
X010251Y014476D01*
X010307Y014505D01*
X010365Y014530D01*
X010424Y014551D01*
X010484Y014569D01*
X010546Y014582D01*
X010608Y014592D01*
X010670Y014598D01*
X010733Y014600D01*
X010796Y014598D01*
X010858Y014592D01*
X010920Y014582D01*
X010982Y014569D01*
X011042Y014551D01*
X011101Y014530D01*
X011159Y014505D01*
X011215Y014476D01*
X011269Y014444D01*
X011321Y014409D01*
X011370Y014371D01*
X011418Y014329D01*
X011462Y014285D01*
X011504Y014237D01*
X011542Y014188D01*
X011577Y014136D01*
X011609Y014082D01*
X011638Y014026D01*
X011663Y013968D01*
X011684Y013909D01*
X011702Y013849D01*
X011715Y013787D01*
X011725Y013725D01*
X011731Y013663D01*
X011733Y013600D01*
X011731Y013537D01*
X011725Y013475D01*
X011715Y013413D01*
X011702Y013351D01*
X011684Y013291D01*
X011663Y013232D01*
X011638Y013174D01*
X011609Y013118D01*
X011577Y013064D01*
X011542Y013012D01*
X011504Y012963D01*
X011462Y012915D01*
X011418Y012871D01*
X011370Y012829D01*
X011321Y012791D01*
X011269Y012756D01*
X011215Y012724D01*
X011159Y012695D01*
X011101Y012670D01*
X011042Y012649D01*
X010982Y012631D01*
X010920Y012618D01*
X010858Y012608D01*
X010796Y012602D01*
X010733Y012600D01*
X010670Y012602D01*
X010608Y012608D01*
X010546Y012618D01*
X010484Y012631D01*
X010424Y012649D01*
X010365Y012670D01*
X010307Y012695D01*
X010251Y012724D01*
X010197Y012756D01*
X010145Y012791D01*
X010096Y012829D01*
X010048Y012871D01*
X010004Y012915D01*
X009962Y012963D01*
X009924Y013012D01*
X009889Y013064D01*
X009857Y013118D01*
X009828Y013174D01*
X009803Y013232D01*
X009782Y013291D01*
X009764Y013351D01*
X009751Y013413D01*
X009741Y013475D01*
X009735Y013537D01*
X009733Y013600D01*
X010033Y013300D02*
X010033Y013100D01*
X010133Y013200D02*
X009933Y013200D01*
X015733Y010800D02*
X015733Y009400D01*
X015735Y009383D01*
X015739Y009366D01*
X015746Y009350D01*
X015756Y009336D01*
X015769Y009323D01*
X015783Y009313D01*
X015799Y009306D01*
X015816Y009302D01*
X015833Y009300D01*
X019633Y009300D01*
X019650Y009302D01*
X019667Y009306D01*
X019683Y009313D01*
X019697Y009323D01*
X019710Y009336D01*
X019720Y009350D01*
X019727Y009366D01*
X019731Y009383D01*
X019733Y009400D01*
X019733Y010800D01*
X019731Y010817D01*
X019727Y010834D01*
X019720Y010850D01*
X019710Y010864D01*
X019697Y010877D01*
X019683Y010887D01*
X019667Y010894D01*
X019650Y010898D01*
X019633Y010900D01*
X015833Y010900D01*
X015816Y010898D01*
X015799Y010894D01*
X015783Y010887D01*
X015769Y010877D01*
X015756Y010864D01*
X015746Y010850D01*
X015739Y010834D01*
X015735Y010817D01*
X015733Y010800D01*
X016683Y010100D02*
X016883Y010100D01*
X017233Y010100D02*
X018783Y010100D01*
X020583Y017150D02*
X020733Y017150D01*
X020783Y017200D01*
X022683Y017200D01*
X022733Y017150D01*
X022883Y017150D01*
X022900Y017152D01*
X022917Y017156D01*
X022933Y017163D01*
X022947Y017173D01*
X022960Y017186D01*
X022970Y017200D01*
X022977Y017216D01*
X022981Y017233D01*
X022983Y017250D01*
X022983Y017950D01*
X022981Y017967D01*
X022977Y017984D01*
X022970Y018000D01*
X022960Y018014D01*
X022947Y018027D01*
X022933Y018037D01*
X022917Y018044D01*
X022900Y018048D01*
X022883Y018050D01*
X022733Y018050D01*
X022683Y018000D01*
X020783Y018000D01*
X020733Y018050D01*
X020583Y018050D01*
X020566Y018048D01*
X020549Y018044D01*
X020533Y018037D01*
X020519Y018027D01*
X020506Y018014D01*
X020496Y018000D01*
X020489Y017984D01*
X020485Y017967D01*
X020483Y017950D01*
X020483Y017250D01*
X020485Y017233D01*
X020489Y017216D01*
X020496Y017200D01*
X020506Y017186D01*
X020519Y017173D01*
X020533Y017163D01*
X020549Y017156D01*
X020566Y017152D01*
X020583Y017150D01*
X020583Y018650D02*
X020733Y018650D01*
X020783Y018700D01*
X022683Y018700D01*
X022733Y018650D01*
X022883Y018650D01*
X022900Y018652D01*
X022917Y018656D01*
X022933Y018663D01*
X022947Y018673D01*
X022960Y018686D01*
X022970Y018700D01*
X022977Y018716D01*
X022981Y018733D01*
X022983Y018750D01*
X022983Y019450D01*
X022981Y019467D01*
X022977Y019484D01*
X022970Y019500D01*
X022960Y019514D01*
X022947Y019527D01*
X022933Y019537D01*
X022917Y019544D01*
X022900Y019548D01*
X022883Y019550D01*
X022733Y019550D01*
X022683Y019500D01*
X020783Y019500D01*
X020733Y019550D01*
X020583Y019550D01*
X020566Y019548D01*
X020549Y019544D01*
X020533Y019537D01*
X020519Y019527D01*
X020506Y019514D01*
X020496Y019500D01*
X020489Y019484D01*
X020485Y019467D01*
X020483Y019450D01*
X020483Y018750D01*
X020485Y018733D01*
X020489Y018716D01*
X020496Y018700D01*
X020506Y018686D01*
X020519Y018673D01*
X020533Y018663D01*
X020549Y018656D01*
X020566Y018652D01*
X020583Y018650D01*
X019183Y019800D02*
X018883Y019800D01*
X018883Y020100D01*
X017833Y020100D01*
X016633Y020100D02*
X015583Y020100D01*
X015583Y019800D01*
X015283Y019800D01*
X015283Y022100D01*
X019183Y022100D01*
X019183Y019800D01*
X020433Y020700D02*
X020433Y024500D01*
X020435Y024517D01*
X020439Y024534D01*
X020446Y024550D01*
X020456Y024564D01*
X020469Y024577D01*
X020483Y024587D01*
X020499Y024594D01*
X020516Y024598D01*
X020533Y024600D01*
X021933Y024600D01*
X021950Y024598D01*
X021967Y024594D01*
X021983Y024587D01*
X021997Y024577D01*
X022010Y024564D01*
X022020Y024550D01*
X022027Y024534D01*
X022031Y024517D01*
X022033Y024500D01*
X022033Y020700D01*
X022031Y020683D01*
X022027Y020666D01*
X022020Y020650D01*
X022010Y020636D01*
X021997Y020623D01*
X021983Y020613D01*
X021967Y020606D01*
X021950Y020602D01*
X021933Y020600D01*
X020533Y020600D01*
X020516Y020602D01*
X020499Y020606D01*
X020483Y020613D01*
X020469Y020623D01*
X020456Y020636D01*
X020446Y020650D01*
X020439Y020666D01*
X020435Y020683D01*
X020433Y020700D01*
X021233Y021550D02*
X021233Y021750D01*
X021233Y022100D02*
X021233Y023650D01*
X022283Y023250D02*
X022283Y023100D01*
X022333Y023050D01*
X022333Y021150D01*
X022283Y021100D01*
X022283Y020950D01*
X022285Y020933D01*
X022289Y020916D01*
X022296Y020900D01*
X022306Y020886D01*
X022319Y020873D01*
X022333Y020863D01*
X022349Y020856D01*
X022366Y020852D01*
X022383Y020850D01*
X023083Y020850D01*
X023100Y020852D01*
X023117Y020856D01*
X023133Y020863D01*
X023147Y020873D01*
X023160Y020886D01*
X023170Y020900D01*
X023177Y020916D01*
X023181Y020933D01*
X023183Y020950D01*
X023183Y021100D01*
X023133Y021150D01*
X023133Y023050D01*
X023183Y023100D01*
X023183Y023250D01*
X023181Y023267D01*
X023177Y023284D01*
X023170Y023300D01*
X023160Y023314D01*
X023147Y023327D01*
X023133Y023337D01*
X023117Y023344D01*
X023100Y023348D01*
X023083Y023350D01*
X022383Y023350D01*
X022366Y023348D01*
X022349Y023344D01*
X022333Y023337D01*
X022319Y023327D01*
X022306Y023314D01*
X022296Y023300D01*
X022289Y023284D01*
X022285Y023267D01*
X022283Y023250D01*
X023283Y023250D02*
X023283Y023100D01*
X023333Y023050D01*
X023333Y021150D01*
X023283Y021100D01*
X023283Y020950D01*
X023285Y020933D01*
X023289Y020916D01*
X023296Y020900D01*
X023306Y020886D01*
X023319Y020873D01*
X023333Y020863D01*
X023349Y020856D01*
X023366Y020852D01*
X023383Y020850D01*
X024083Y020850D01*
X024100Y020852D01*
X024117Y020856D01*
X024133Y020863D01*
X024147Y020873D01*
X024160Y020886D01*
X024170Y020900D01*
X024177Y020916D01*
X024181Y020933D01*
X024183Y020950D01*
X024183Y021100D01*
X024133Y021150D01*
X024133Y023050D01*
X024183Y023100D01*
X024183Y023250D01*
X024181Y023267D01*
X024177Y023284D01*
X024170Y023300D01*
X024160Y023314D01*
X024147Y023327D01*
X024133Y023337D01*
X024117Y023344D01*
X024100Y023348D01*
X024083Y023350D01*
X023383Y023350D01*
X023366Y023348D01*
X023349Y023344D01*
X023333Y023337D01*
X023319Y023327D01*
X023306Y023314D01*
X023296Y023300D01*
X023289Y023284D01*
X023285Y023267D01*
X023283Y023250D01*
X022583Y024600D02*
X024883Y024600D01*
X024883Y028600D01*
X024133Y028600D01*
X024131Y028561D01*
X024125Y028522D01*
X024116Y028484D01*
X024103Y028447D01*
X024086Y028411D01*
X024066Y028378D01*
X024042Y028346D01*
X024016Y028317D01*
X023987Y028291D01*
X023955Y028267D01*
X023922Y028247D01*
X023886Y028230D01*
X023849Y028217D01*
X023811Y028208D01*
X023772Y028202D01*
X023733Y028200D01*
X023694Y028202D01*
X023655Y028208D01*
X023617Y028217D01*
X023580Y028230D01*
X023544Y028247D01*
X023511Y028267D01*
X023479Y028291D01*
X023450Y028317D01*
X023424Y028346D01*
X023400Y028378D01*
X023380Y028411D01*
X023363Y028447D01*
X023350Y028484D01*
X023341Y028522D01*
X023335Y028561D01*
X023333Y028600D01*
X022583Y028600D01*
X022583Y024600D01*
X021733Y024900D02*
X021733Y026300D01*
X021731Y026317D01*
X021727Y026334D01*
X021720Y026350D01*
X021710Y026364D01*
X021697Y026377D01*
X021683Y026387D01*
X021667Y026394D01*
X021650Y026398D01*
X021633Y026400D01*
X017833Y026400D01*
X017816Y026398D01*
X017799Y026394D01*
X017783Y026387D01*
X017769Y026377D01*
X017756Y026364D01*
X017746Y026350D01*
X017739Y026334D01*
X017735Y026317D01*
X017733Y026300D01*
X017733Y024900D01*
X017735Y024883D01*
X017739Y024866D01*
X017746Y024850D01*
X017756Y024836D01*
X017769Y024823D01*
X017783Y024813D01*
X017799Y024806D01*
X017816Y024802D01*
X017833Y024800D01*
X021633Y024800D01*
X021650Y024802D01*
X021667Y024806D01*
X021683Y024813D01*
X021697Y024823D01*
X021710Y024836D01*
X021720Y024850D01*
X021727Y024866D01*
X021731Y024883D01*
X021733Y024900D01*
X020783Y025600D02*
X020583Y025600D01*
X020233Y025600D02*
X018683Y025600D01*
X017533Y024700D02*
X017533Y028500D01*
X017531Y028517D01*
X017527Y028534D01*
X017520Y028550D01*
X017510Y028564D01*
X017497Y028577D01*
X017483Y028587D01*
X017467Y028594D01*
X017450Y028598D01*
X017433Y028600D01*
X016033Y028600D01*
X016016Y028598D01*
X015999Y028594D01*
X015983Y028587D01*
X015969Y028577D01*
X015956Y028564D01*
X015946Y028550D01*
X015939Y028534D01*
X015935Y028517D01*
X015933Y028500D01*
X015933Y024700D01*
X015935Y024683D01*
X015939Y024666D01*
X015946Y024650D01*
X015956Y024636D01*
X015969Y024623D01*
X015983Y024613D01*
X015999Y024606D01*
X016016Y024602D01*
X016033Y024600D01*
X017433Y024600D01*
X017450Y024602D01*
X017467Y024606D01*
X017483Y024613D01*
X017497Y024623D01*
X017510Y024636D01*
X017520Y024650D01*
X017527Y024666D01*
X017531Y024683D01*
X017533Y024700D01*
X018183Y024000D02*
X016283Y024000D01*
X016233Y024050D01*
X016083Y024050D01*
X016066Y024048D01*
X016049Y024044D01*
X016033Y024037D01*
X016019Y024027D01*
X016006Y024014D01*
X015996Y024000D01*
X015989Y023984D01*
X015985Y023967D01*
X015983Y023950D01*
X015983Y023250D01*
X015985Y023233D01*
X015989Y023216D01*
X015996Y023200D01*
X016006Y023186D01*
X016019Y023173D01*
X016033Y023163D01*
X016049Y023156D01*
X016066Y023152D01*
X016083Y023150D01*
X016233Y023150D01*
X016283Y023200D01*
X018183Y023200D01*
X018233Y023150D01*
X018383Y023150D01*
X018400Y023152D01*
X018417Y023156D01*
X018433Y023163D01*
X018447Y023173D01*
X018460Y023186D01*
X018470Y023200D01*
X018477Y023216D01*
X018481Y023233D01*
X018483Y023250D01*
X018483Y023950D01*
X018481Y023967D01*
X018477Y023984D01*
X018470Y024000D01*
X018460Y024014D01*
X018447Y024027D01*
X018433Y024037D01*
X018417Y024044D01*
X018400Y024048D01*
X018383Y024050D01*
X018233Y024050D01*
X018183Y024000D01*
X016733Y025550D02*
X016733Y027100D01*
X016733Y027450D02*
X016733Y027650D01*
X017733Y028300D02*
X017733Y026900D01*
X017735Y026883D01*
X017739Y026866D01*
X017746Y026850D01*
X017756Y026836D01*
X017769Y026823D01*
X017783Y026813D01*
X017799Y026806D01*
X017816Y026802D01*
X017833Y026800D01*
X021633Y026800D01*
X021650Y026802D01*
X021667Y026806D01*
X021683Y026813D01*
X021697Y026823D01*
X021710Y026836D01*
X021720Y026850D01*
X021727Y026866D01*
X021731Y026883D01*
X021733Y026900D01*
X021733Y028300D01*
X021731Y028317D01*
X021727Y028334D01*
X021720Y028350D01*
X021710Y028364D01*
X021697Y028377D01*
X021683Y028387D01*
X021667Y028394D01*
X021650Y028398D01*
X021633Y028400D01*
X017833Y028400D01*
X017816Y028398D01*
X017799Y028394D01*
X017783Y028387D01*
X017769Y028377D01*
X017756Y028364D01*
X017746Y028350D01*
X017739Y028334D01*
X017735Y028317D01*
X017733Y028300D01*
X017733Y029150D02*
X017883Y029150D01*
X017900Y029152D01*
X017917Y029156D01*
X017933Y029163D01*
X017947Y029173D01*
X017960Y029186D01*
X017970Y029200D01*
X017977Y029216D01*
X017981Y029233D01*
X017983Y029250D01*
X017983Y029950D01*
X017981Y029967D01*
X017977Y029984D01*
X017970Y030000D01*
X017960Y030014D01*
X017947Y030027D01*
X017933Y030037D01*
X017917Y030044D01*
X017900Y030048D01*
X017883Y030050D01*
X017733Y030050D01*
X017683Y030000D01*
X015783Y030000D01*
X015733Y030050D01*
X015583Y030050D01*
X015566Y030048D01*
X015549Y030044D01*
X015533Y030037D01*
X015519Y030027D01*
X015506Y030014D01*
X015496Y030000D01*
X015489Y029984D01*
X015485Y029967D01*
X015483Y029950D01*
X015483Y029250D01*
X015485Y029233D01*
X015489Y029216D01*
X015496Y029200D01*
X015506Y029186D01*
X015519Y029173D01*
X015533Y029163D01*
X015549Y029156D01*
X015566Y029152D01*
X015583Y029150D01*
X015733Y029150D01*
X015783Y029200D01*
X017683Y029200D01*
X017733Y029150D01*
X017733Y030150D02*
X017583Y030150D01*
X017566Y030152D01*
X017549Y030156D01*
X017533Y030163D01*
X017519Y030173D01*
X017506Y030186D01*
X017496Y030200D01*
X017489Y030216D01*
X017485Y030233D01*
X017483Y030250D01*
X017483Y030950D01*
X017485Y030967D01*
X017489Y030984D01*
X017496Y031000D01*
X017506Y031014D01*
X017519Y031027D01*
X017533Y031037D01*
X017549Y031044D01*
X017566Y031048D01*
X017583Y031050D01*
X017733Y031050D01*
X017783Y031000D01*
X019683Y031000D01*
X019733Y031050D01*
X019883Y031050D01*
X019900Y031048D01*
X019917Y031044D01*
X019933Y031037D01*
X019947Y031027D01*
X019960Y031014D01*
X019970Y031000D01*
X019977Y030984D01*
X019981Y030967D01*
X019983Y030950D01*
X019983Y030250D01*
X019981Y030233D01*
X019977Y030216D01*
X019970Y030200D01*
X019960Y030186D01*
X019947Y030173D01*
X019933Y030163D01*
X019917Y030156D01*
X019900Y030152D01*
X019883Y030150D01*
X019733Y030150D01*
X019683Y030200D01*
X017783Y030200D01*
X017733Y030150D01*
X020483Y029950D02*
X020483Y029250D01*
X020485Y029233D01*
X020489Y029216D01*
X020496Y029200D01*
X020506Y029186D01*
X020519Y029173D01*
X020533Y029163D01*
X020549Y029156D01*
X020566Y029152D01*
X020583Y029150D01*
X020733Y029150D01*
X020783Y029200D01*
X022683Y029200D01*
X022733Y029150D01*
X022883Y029150D01*
X022900Y029152D01*
X022917Y029156D01*
X022933Y029163D01*
X022947Y029173D01*
X022960Y029186D01*
X022970Y029200D01*
X022977Y029216D01*
X022981Y029233D01*
X022983Y029250D01*
X022983Y029950D01*
X022981Y029967D01*
X022977Y029984D01*
X022970Y030000D01*
X022960Y030014D01*
X022947Y030027D01*
X022933Y030037D01*
X022917Y030044D01*
X022900Y030048D01*
X022883Y030050D01*
X022733Y030050D01*
X022683Y030000D01*
X020783Y030000D01*
X020733Y030050D01*
X020583Y030050D01*
X020566Y030048D01*
X020549Y030044D01*
X020533Y030037D01*
X020519Y030027D01*
X020506Y030014D01*
X020496Y030000D01*
X020489Y029984D01*
X020485Y029967D01*
X020483Y029950D01*
X020783Y027600D02*
X019233Y027600D01*
X018883Y027600D02*
X018683Y027600D01*
X015683Y027600D02*
X015633Y027550D01*
X015633Y025650D01*
X015683Y025600D01*
X015683Y025450D01*
X015681Y025433D01*
X015677Y025416D01*
X015670Y025400D01*
X015660Y025386D01*
X015647Y025373D01*
X015633Y025363D01*
X015617Y025356D01*
X015600Y025352D01*
X015583Y025350D01*
X014883Y025350D01*
X014866Y025352D01*
X014849Y025356D01*
X014833Y025363D01*
X014819Y025373D01*
X014806Y025386D01*
X014796Y025400D01*
X014789Y025416D01*
X014785Y025433D01*
X014783Y025450D01*
X014783Y025600D01*
X014833Y025650D01*
X014833Y027550D01*
X014783Y027600D01*
X014783Y027750D01*
X014785Y027767D01*
X014789Y027784D01*
X014796Y027800D01*
X014806Y027814D01*
X014819Y027827D01*
X014833Y027837D01*
X014849Y027844D01*
X014866Y027848D01*
X014883Y027850D01*
X015583Y027850D01*
X015600Y027848D01*
X015617Y027844D01*
X015633Y027837D01*
X015647Y027827D01*
X015660Y027814D01*
X015670Y027800D01*
X015677Y027784D01*
X015681Y027767D01*
X015683Y027750D01*
X015683Y027600D01*
X013733Y025800D02*
X013733Y024400D01*
X013731Y024383D01*
X013727Y024366D01*
X013720Y024350D01*
X013710Y024336D01*
X013697Y024323D01*
X013683Y024313D01*
X013667Y024306D01*
X013650Y024302D01*
X013633Y024300D01*
X009833Y024300D01*
X009816Y024302D01*
X009799Y024306D01*
X009783Y024313D01*
X009769Y024323D01*
X009756Y024336D01*
X009746Y024350D01*
X009739Y024366D01*
X009735Y024383D01*
X009733Y024400D01*
X009733Y025800D01*
X009735Y025817D01*
X009739Y025834D01*
X009746Y025850D01*
X009756Y025864D01*
X009769Y025877D01*
X009783Y025887D01*
X009799Y025894D01*
X009816Y025898D01*
X009833Y025900D01*
X013633Y025900D01*
X013650Y025898D01*
X013667Y025894D01*
X013683Y025887D01*
X013697Y025877D01*
X013710Y025864D01*
X013720Y025850D01*
X013727Y025834D01*
X013731Y025817D01*
X013733Y025800D01*
X012783Y025100D02*
X011233Y025100D01*
X010883Y025100D02*
X010683Y025100D01*
X008883Y026650D02*
X008733Y026650D01*
X008683Y026700D01*
X006783Y026700D01*
X006733Y026650D01*
X006583Y026650D01*
X006566Y026652D01*
X006549Y026656D01*
X006533Y026663D01*
X006519Y026673D01*
X006506Y026686D01*
X006496Y026700D01*
X006489Y026716D01*
X006485Y026733D01*
X006483Y026750D01*
X006483Y027450D01*
X006485Y027467D01*
X006489Y027484D01*
X006496Y027500D01*
X006506Y027514D01*
X006519Y027527D01*
X006533Y027537D01*
X006549Y027544D01*
X006566Y027548D01*
X006583Y027550D01*
X006733Y027550D01*
X006783Y027500D01*
X008683Y027500D01*
X008733Y027550D01*
X008883Y027550D01*
X008900Y027548D01*
X008917Y027544D01*
X008933Y027537D01*
X008947Y027527D01*
X008960Y027514D01*
X008970Y027500D01*
X008977Y027484D01*
X008981Y027467D01*
X008983Y027450D01*
X008983Y026750D01*
X008981Y026733D01*
X008977Y026716D01*
X008970Y026700D01*
X008960Y026686D01*
X008947Y026673D01*
X008933Y026663D01*
X008917Y026656D01*
X008900Y026652D01*
X008883Y026650D01*
X008033Y025500D02*
X006433Y025500D01*
X006416Y025498D01*
X006399Y025494D01*
X006383Y025487D01*
X006369Y025477D01*
X006356Y025464D01*
X006346Y025450D01*
X006339Y025434D01*
X006335Y025417D01*
X006333Y025400D01*
X006333Y024800D01*
X006335Y024783D01*
X006339Y024766D01*
X006346Y024750D01*
X006356Y024736D01*
X006369Y024723D01*
X006383Y024713D01*
X006399Y024706D01*
X006416Y024702D01*
X006433Y024700D01*
X008033Y024700D01*
X008050Y024702D01*
X008067Y024706D01*
X008083Y024713D01*
X008097Y024723D01*
X008110Y024736D01*
X008120Y024750D01*
X008127Y024766D01*
X008131Y024783D01*
X008133Y024800D01*
X008133Y025400D01*
X008131Y025417D01*
X008127Y025434D01*
X008120Y025450D01*
X008110Y025464D01*
X008097Y025477D01*
X008083Y025487D01*
X008067Y025494D01*
X008050Y025498D01*
X008033Y025500D01*
X007483Y025100D02*
X007233Y025100D01*
X007233Y025350D01*
X007233Y025100D02*
X006833Y024850D01*
X006833Y025350D01*
X007233Y025100D01*
X007233Y024850D01*
X007233Y025100D02*
X006633Y025100D01*
X005373Y025680D02*
X005337Y025632D01*
X005304Y025581D01*
X005274Y025529D01*
X005248Y025475D01*
X005225Y025419D01*
X005205Y025362D01*
X005189Y025304D01*
X005177Y025245D01*
X005169Y025185D01*
X005164Y025125D01*
X005163Y025065D01*
X005166Y025005D01*
X005173Y024945D01*
X005183Y024885D01*
X005197Y024827D01*
X005215Y024769D01*
X005236Y024713D01*
X005261Y024658D01*
X005289Y024605D01*
X005320Y024553D01*
X005355Y024504D01*
X005341Y024522D02*
X005363Y024500D01*
X005386Y024481D01*
X005412Y024465D01*
X005439Y024452D01*
X005468Y024442D01*
X005497Y024435D01*
X005528Y024431D01*
X005558Y024431D01*
X005588Y024435D01*
X005618Y024442D01*
X005646Y024452D01*
X005674Y024465D01*
X005699Y024481D01*
X005723Y024500D01*
X005683Y024490D02*
X005433Y025690D01*
X005483Y025740D02*
X005733Y024540D01*
X006083Y024300D02*
X005083Y024300D01*
X005083Y025900D01*
X006083Y025900D01*
X006083Y024300D01*
X006083Y023930D02*
X006083Y022330D01*
X005083Y022330D01*
X005083Y023930D01*
X006083Y023930D01*
X005483Y023770D02*
X005733Y022570D01*
X005683Y022520D02*
X005433Y023720D01*
X005359Y023693D02*
X005376Y023719D01*
X005395Y023742D01*
X005418Y023762D01*
X005442Y023779D01*
X005469Y023793D01*
X005498Y023804D01*
X005527Y023810D01*
X005557Y023813D01*
X005588Y023812D01*
X005617Y023807D01*
X005646Y023798D01*
X005674Y023785D01*
X005699Y023769D01*
X005723Y023750D01*
X005373Y023710D02*
X005337Y023662D01*
X005304Y023611D01*
X005274Y023559D01*
X005248Y023505D01*
X005225Y023449D01*
X005205Y023392D01*
X005189Y023334D01*
X005177Y023275D01*
X005169Y023215D01*
X005164Y023155D01*
X005163Y023095D01*
X005166Y023035D01*
X005173Y022975D01*
X005183Y022915D01*
X005197Y022857D01*
X005215Y022799D01*
X005236Y022743D01*
X005261Y022688D01*
X005289Y022635D01*
X005320Y022583D01*
X005355Y022534D01*
X005341Y022552D02*
X005363Y022530D01*
X005386Y022511D01*
X005412Y022495D01*
X005439Y022482D01*
X005468Y022472D01*
X005497Y022465D01*
X005528Y022461D01*
X005558Y022461D01*
X005588Y022465D01*
X005618Y022472D01*
X005646Y022482D01*
X005674Y022495D01*
X005699Y022511D01*
X005723Y022530D01*
X006183Y022130D02*
X004983Y022130D01*
X004383Y022130D01*
X003983Y022130D01*
X003983Y022480D01*
X003833Y022480D02*
X003833Y022330D01*
X002033Y022330D01*
X002033Y023930D01*
X003833Y023930D01*
X003833Y023770D01*
X003983Y023780D02*
X003983Y024440D01*
X003833Y024450D02*
X003833Y024300D01*
X002033Y024300D01*
X001283Y024300D01*
X001283Y023930D01*
X001283Y022330D01*
X002033Y022330D01*
X002133Y022130D02*
X001683Y022130D01*
X001283Y022130D01*
X001283Y022330D01*
X001683Y022130D02*
X001583Y021930D01*
X002233Y021930D01*
X002133Y022130D01*
X003983Y022130D01*
X004283Y021930D02*
X004383Y022130D01*
X004283Y021930D02*
X006183Y021930D01*
X006183Y022130D01*
X006183Y028070D01*
X004983Y028070D01*
X004983Y022130D01*
X005233Y021550D02*
X005383Y021550D01*
X005400Y021548D01*
X005417Y021544D01*
X005433Y021537D01*
X005447Y021527D01*
X005460Y021514D01*
X005470Y021500D01*
X005477Y021484D01*
X005481Y021467D01*
X005483Y021450D01*
X005483Y020750D01*
X005481Y020733D01*
X005477Y020716D01*
X005470Y020700D01*
X005460Y020686D01*
X005447Y020673D01*
X005433Y020663D01*
X005417Y020656D01*
X005400Y020652D01*
X005383Y020650D01*
X005233Y020650D01*
X005183Y020700D01*
X003283Y020700D01*
X003233Y020650D01*
X003083Y020650D01*
X003066Y020652D01*
X003049Y020656D01*
X003033Y020663D01*
X003019Y020673D01*
X003006Y020686D01*
X002996Y020700D01*
X002989Y020716D01*
X002985Y020733D01*
X002983Y020750D01*
X002983Y021450D01*
X002985Y021467D01*
X002989Y021484D01*
X002996Y021500D01*
X003006Y021514D01*
X003019Y021527D01*
X003033Y021537D01*
X003049Y021544D01*
X003066Y021548D01*
X003083Y021550D01*
X003233Y021550D01*
X003283Y021500D01*
X005183Y021500D01*
X005233Y021550D01*
X003533Y022480D02*
X002283Y022480D01*
X002283Y023780D01*
X003533Y023780D01*
X003533Y024450D02*
X002283Y024450D01*
X002283Y025750D01*
X003533Y025750D01*
X003833Y025750D02*
X003833Y025900D01*
X002033Y025900D01*
X002033Y024300D01*
X002033Y023930D02*
X001283Y023930D01*
X001283Y024300D02*
X001283Y025900D01*
X001283Y026270D01*
X001283Y027870D01*
X002033Y027870D01*
X002033Y026270D01*
X003833Y026270D01*
X003833Y026420D01*
X003983Y026420D02*
X003983Y025750D01*
X003533Y026420D02*
X002283Y026420D01*
X002283Y027720D01*
X003533Y027720D01*
X003833Y027720D02*
X003833Y027870D01*
X002033Y027870D01*
X001283Y027870D02*
X001283Y028070D01*
X003983Y028070D01*
X003983Y027720D01*
X003983Y028070D02*
X004983Y028070D01*
X005083Y027870D02*
X006083Y027870D01*
X006083Y026270D01*
X005083Y026270D01*
X005083Y027870D01*
X005433Y027650D02*
X005683Y026450D01*
X005733Y026500D02*
X005483Y027700D01*
X005359Y027623D02*
X005376Y027649D01*
X005395Y027672D01*
X005418Y027692D01*
X005442Y027709D01*
X005469Y027723D01*
X005498Y027734D01*
X005527Y027740D01*
X005557Y027743D01*
X005588Y027742D01*
X005617Y027737D01*
X005646Y027728D01*
X005674Y027715D01*
X005699Y027699D01*
X005723Y027680D01*
X005703Y027700D02*
X005744Y027665D01*
X005783Y027626D01*
X005819Y027586D01*
X005852Y027542D01*
X005882Y027497D01*
X005910Y027450D01*
X005933Y027401D01*
X005954Y027350D01*
X005971Y027299D01*
X005985Y027246D01*
X005995Y027193D01*
X006001Y027139D01*
X006004Y027084D01*
X006003Y027030D01*
X005998Y026975D01*
X005990Y026922D01*
X005979Y026868D01*
X005963Y026816D01*
X005945Y026765D01*
X005922Y026715D01*
X005897Y026667D01*
X005868Y026621D01*
X005837Y026577D01*
X005802Y026535D01*
X005765Y026495D01*
X005725Y026458D01*
X005723Y026460D02*
X005699Y026441D01*
X005674Y026425D01*
X005646Y026412D01*
X005618Y026402D01*
X005588Y026395D01*
X005558Y026391D01*
X005528Y026391D01*
X005497Y026395D01*
X005468Y026402D01*
X005439Y026412D01*
X005412Y026425D01*
X005386Y026441D01*
X005363Y026460D01*
X005341Y026482D01*
X005355Y026464D02*
X005320Y026513D01*
X005289Y026565D01*
X005261Y026618D01*
X005236Y026673D01*
X005215Y026729D01*
X005197Y026787D01*
X005183Y026845D01*
X005173Y026905D01*
X005166Y026965D01*
X005163Y027025D01*
X005164Y027085D01*
X005169Y027145D01*
X005177Y027205D01*
X005189Y027264D01*
X005205Y027322D01*
X005225Y027379D01*
X005248Y027435D01*
X005274Y027489D01*
X005304Y027541D01*
X005337Y027592D01*
X005373Y027640D01*
X005723Y025720D02*
X005699Y025739D01*
X005674Y025755D01*
X005646Y025768D01*
X005617Y025777D01*
X005588Y025782D01*
X005557Y025783D01*
X005527Y025780D01*
X005498Y025774D01*
X005469Y025763D01*
X005442Y025749D01*
X005418Y025732D01*
X005395Y025712D01*
X005376Y025689D01*
X005359Y025663D01*
X005703Y025740D02*
X005744Y025705D01*
X005783Y025666D01*
X005819Y025626D01*
X005852Y025582D01*
X005882Y025537D01*
X005910Y025490D01*
X005933Y025441D01*
X005954Y025390D01*
X005971Y025339D01*
X005985Y025286D01*
X005995Y025233D01*
X006001Y025179D01*
X006004Y025124D01*
X006003Y025070D01*
X005998Y025015D01*
X005990Y024962D01*
X005979Y024908D01*
X005963Y024856D01*
X005945Y024805D01*
X005922Y024755D01*
X005897Y024707D01*
X005868Y024661D01*
X005837Y024617D01*
X005802Y024575D01*
X005765Y024535D01*
X005725Y024498D01*
X005703Y023770D02*
X005744Y023735D01*
X005783Y023696D01*
X005819Y023655D01*
X005852Y023612D01*
X005882Y023567D01*
X005910Y023520D01*
X005933Y023471D01*
X005954Y023420D01*
X005971Y023369D01*
X005985Y023316D01*
X005995Y023263D01*
X006001Y023208D01*
X006004Y023154D01*
X006003Y023100D01*
X005998Y023045D01*
X005990Y022992D01*
X005979Y022938D01*
X005963Y022886D01*
X005944Y022835D01*
X005922Y022785D01*
X005897Y022737D01*
X005868Y022691D01*
X005837Y022647D01*
X005802Y022605D01*
X005765Y022565D01*
X005725Y022528D01*
X008283Y022600D02*
X008333Y022550D01*
X008333Y020650D01*
X008283Y020600D01*
X008283Y020450D01*
X008285Y020433D01*
X008289Y020416D01*
X008296Y020400D01*
X008306Y020386D01*
X008319Y020373D01*
X008333Y020363D01*
X008349Y020356D01*
X008366Y020352D01*
X008383Y020350D01*
X009083Y020350D01*
X009100Y020352D01*
X009117Y020356D01*
X009133Y020363D01*
X009147Y020373D01*
X009160Y020386D01*
X009170Y020400D01*
X009177Y020416D01*
X009181Y020433D01*
X009183Y020450D01*
X009183Y020600D01*
X009133Y020650D01*
X009133Y022550D01*
X009183Y022600D01*
X009183Y022750D01*
X009181Y022767D01*
X009177Y022784D01*
X009170Y022800D01*
X009160Y022814D01*
X009147Y022827D01*
X009133Y022837D01*
X009117Y022844D01*
X009100Y022848D01*
X009083Y022850D01*
X008383Y022850D01*
X008366Y022848D01*
X008349Y022844D01*
X008333Y022837D01*
X008319Y022827D01*
X008306Y022814D01*
X008296Y022800D01*
X008289Y022784D01*
X008285Y022767D01*
X008283Y022750D01*
X008283Y022600D01*
X009783Y022600D02*
X009833Y022550D01*
X009833Y020650D01*
X009783Y020600D01*
X009783Y020450D01*
X009785Y020433D01*
X009789Y020416D01*
X009796Y020400D01*
X009806Y020386D01*
X009819Y020373D01*
X009833Y020363D01*
X009849Y020356D01*
X009866Y020352D01*
X009883Y020350D01*
X010583Y020350D01*
X010600Y020352D01*
X010617Y020356D01*
X010633Y020363D01*
X010647Y020373D01*
X010660Y020386D01*
X010670Y020400D01*
X010677Y020416D01*
X010681Y020433D01*
X010683Y020450D01*
X010683Y020600D01*
X010633Y020650D01*
X010633Y022550D01*
X010683Y022600D01*
X010683Y022750D01*
X010681Y022767D01*
X010677Y022784D01*
X010670Y022800D01*
X010660Y022814D01*
X010647Y022827D01*
X010633Y022837D01*
X010617Y022844D01*
X010600Y022848D01*
X010583Y022850D01*
X009883Y022850D01*
X009866Y022848D01*
X009849Y022844D01*
X009833Y022837D01*
X009819Y022827D01*
X009806Y022814D01*
X009796Y022800D01*
X009789Y022784D01*
X009785Y022767D01*
X009783Y022750D01*
X009783Y022600D01*
X012783Y021750D02*
X012783Y021600D01*
X012833Y021550D01*
X012833Y019650D01*
X012783Y019600D01*
X012783Y019450D01*
X012785Y019433D01*
X012789Y019416D01*
X012796Y019400D01*
X012806Y019386D01*
X012819Y019373D01*
X012833Y019363D01*
X012849Y019356D01*
X012866Y019352D01*
X012883Y019350D01*
X013583Y019350D01*
X013600Y019352D01*
X013617Y019356D01*
X013633Y019363D01*
X013647Y019373D01*
X013660Y019386D01*
X013670Y019400D01*
X013677Y019416D01*
X013681Y019433D01*
X013683Y019450D01*
X013683Y019600D01*
X013633Y019650D01*
X013633Y021550D01*
X013683Y021600D01*
X013683Y021750D01*
X013681Y021767D01*
X013677Y021784D01*
X013670Y021800D01*
X013660Y021814D01*
X013647Y021827D01*
X013633Y021837D01*
X013617Y021844D01*
X013600Y021848D01*
X013583Y021850D01*
X012883Y021850D01*
X012866Y021848D01*
X012849Y021844D01*
X012833Y021837D01*
X012819Y021827D01*
X012806Y021814D01*
X012796Y021800D01*
X012789Y021784D01*
X012785Y021767D01*
X012783Y021750D01*
X012383Y029150D02*
X012233Y029150D01*
X012183Y029200D01*
X010283Y029200D01*
X010233Y029150D01*
X010083Y029150D01*
X010066Y029152D01*
X010049Y029156D01*
X010033Y029163D01*
X010019Y029173D01*
X010006Y029186D01*
X009996Y029200D01*
X009989Y029216D01*
X009985Y029233D01*
X009983Y029250D01*
X009983Y029950D01*
X009985Y029967D01*
X009989Y029984D01*
X009996Y030000D01*
X010006Y030014D01*
X010019Y030027D01*
X010033Y030037D01*
X010049Y030044D01*
X010066Y030048D01*
X010083Y030050D01*
X010233Y030050D01*
X010283Y030000D01*
X012183Y030000D01*
X012233Y030050D01*
X012383Y030050D01*
X012400Y030048D01*
X012417Y030044D01*
X012433Y030037D01*
X012447Y030027D01*
X012460Y030014D01*
X012470Y030000D01*
X012477Y029984D01*
X012481Y029967D01*
X012483Y029950D01*
X012483Y029250D01*
X012481Y029233D01*
X012477Y029216D01*
X012470Y029200D01*
X012460Y029186D01*
X012447Y029173D01*
X012433Y029163D01*
X012417Y029156D01*
X012400Y029152D01*
X012383Y029150D01*
X002033Y026270D02*
X001283Y026270D01*
X001283Y025900D02*
X002033Y025900D01*
X024233Y020800D02*
X024233Y019400D01*
X024235Y019383D01*
X024239Y019366D01*
X024246Y019350D01*
X024256Y019336D01*
X024269Y019323D01*
X024283Y019313D01*
X024299Y019306D01*
X024316Y019302D01*
X024333Y019300D01*
X028133Y019300D01*
X028150Y019302D01*
X028167Y019306D01*
X028183Y019313D01*
X028197Y019323D01*
X028210Y019336D01*
X028220Y019350D01*
X028227Y019366D01*
X028231Y019383D01*
X028233Y019400D01*
X028233Y020800D01*
X028231Y020817D01*
X028227Y020834D01*
X028220Y020850D01*
X028210Y020864D01*
X028197Y020877D01*
X028183Y020887D01*
X028167Y020894D01*
X028150Y020898D01*
X028133Y020900D01*
X024333Y020900D01*
X024316Y020898D01*
X024299Y020894D01*
X024283Y020887D01*
X024269Y020877D01*
X024256Y020864D01*
X024246Y020850D01*
X024239Y020834D01*
X024235Y020817D01*
X024233Y020800D01*
X025183Y020100D02*
X026733Y020100D01*
X027083Y020100D02*
X027283Y020100D01*
X027033Y022600D02*
X028433Y022600D01*
X028450Y022602D01*
X028467Y022606D01*
X028483Y022613D01*
X028497Y022623D01*
X028510Y022636D01*
X028520Y022650D01*
X028527Y022666D01*
X028531Y022683D01*
X028533Y022700D01*
X028433Y022700D02*
X028435Y022683D01*
X028439Y022666D01*
X028446Y022650D01*
X028456Y022636D01*
X028469Y022623D01*
X028483Y022613D01*
X028499Y022606D01*
X028516Y022602D01*
X028533Y022600D01*
X029933Y022600D01*
X029950Y022602D01*
X029967Y022606D01*
X029983Y022613D01*
X029997Y022623D01*
X030010Y022636D01*
X030020Y022650D01*
X030027Y022666D01*
X030031Y022683D01*
X030033Y022700D01*
X030033Y026500D01*
X030031Y026517D01*
X030027Y026534D01*
X030020Y026550D01*
X030010Y026564D01*
X029997Y026577D01*
X029983Y026587D01*
X029967Y026594D01*
X029950Y026598D01*
X029933Y026600D01*
X028533Y026600D01*
X028433Y026600D02*
X027033Y026600D01*
X027016Y026598D01*
X026999Y026594D01*
X026983Y026587D01*
X026969Y026577D01*
X026956Y026564D01*
X026946Y026550D01*
X026939Y026534D01*
X026935Y026517D01*
X026933Y026500D01*
X026933Y022700D01*
X026935Y022683D01*
X026939Y022666D01*
X026946Y022650D01*
X026956Y022636D01*
X026969Y022623D01*
X026983Y022613D01*
X026999Y022606D01*
X027016Y022602D01*
X027033Y022600D01*
X026683Y022950D02*
X026683Y023100D01*
X026633Y023150D01*
X026633Y025050D01*
X026683Y025100D01*
X026683Y025250D01*
X026681Y025267D01*
X026677Y025284D01*
X026670Y025300D01*
X026660Y025314D01*
X026647Y025327D01*
X026633Y025337D01*
X026617Y025344D01*
X026600Y025348D01*
X026583Y025350D01*
X025883Y025350D01*
X025866Y025348D01*
X025849Y025344D01*
X025833Y025337D01*
X025819Y025327D01*
X025806Y025314D01*
X025796Y025300D01*
X025789Y025284D01*
X025785Y025267D01*
X025783Y025250D01*
X025783Y025100D01*
X025833Y025050D01*
X025833Y023150D01*
X025783Y023100D01*
X025783Y022950D01*
X025785Y022933D01*
X025789Y022916D01*
X025796Y022900D01*
X025806Y022886D01*
X025819Y022873D01*
X025833Y022863D01*
X025849Y022856D01*
X025866Y022852D01*
X025883Y022850D01*
X026583Y022850D01*
X026600Y022852D01*
X026617Y022856D01*
X026633Y022863D01*
X026647Y022873D01*
X026660Y022886D01*
X026670Y022900D01*
X026677Y022916D01*
X026681Y022933D01*
X026683Y022950D01*
X027733Y023550D02*
X027733Y023750D01*
X027733Y024100D02*
X027733Y025650D01*
X028533Y026500D02*
X028531Y026517D01*
X028527Y026534D01*
X028520Y026550D01*
X028510Y026564D01*
X028497Y026577D01*
X028483Y026587D01*
X028467Y026594D01*
X028450Y026598D01*
X028433Y026600D01*
X028433Y026500D02*
X028433Y022700D01*
X028533Y022700D02*
X028533Y026500D01*
X028533Y026600D02*
X028516Y026598D01*
X028499Y026594D01*
X028483Y026587D01*
X028469Y026577D01*
X028456Y026564D01*
X028446Y026550D01*
X028439Y026534D01*
X028435Y026517D01*
X028433Y026500D01*
X029233Y025650D02*
X029233Y025450D01*
X029233Y025100D02*
X029233Y023550D01*
X030133Y027800D02*
X026333Y027800D01*
X026316Y027802D01*
X026299Y027806D01*
X026283Y027813D01*
X026269Y027823D01*
X026256Y027836D01*
X026246Y027850D01*
X026239Y027866D01*
X026235Y027883D01*
X026233Y027900D01*
X026233Y029300D01*
X026233Y029400D02*
X026233Y030800D01*
X026235Y030817D01*
X026239Y030834D01*
X026246Y030850D01*
X026256Y030864D01*
X026269Y030877D01*
X026283Y030887D01*
X026299Y030894D01*
X026316Y030898D01*
X026333Y030900D01*
X030133Y030900D01*
X030150Y030898D01*
X030167Y030894D01*
X030183Y030887D01*
X030197Y030877D01*
X030210Y030864D01*
X030220Y030850D01*
X030227Y030834D01*
X030231Y030817D01*
X030233Y030800D01*
X030233Y029400D01*
X030231Y029383D01*
X030227Y029366D01*
X030220Y029350D01*
X030210Y029336D01*
X030197Y029323D01*
X030183Y029313D01*
X030167Y029306D01*
X030150Y029302D01*
X030133Y029300D01*
X030233Y029300D02*
X030231Y029317D01*
X030227Y029334D01*
X030220Y029350D01*
X030210Y029364D01*
X030197Y029377D01*
X030183Y029387D01*
X030167Y029394D01*
X030150Y029398D01*
X030133Y029400D01*
X026333Y029400D01*
X026233Y029400D02*
X026235Y029383D01*
X026239Y029366D01*
X026246Y029350D01*
X026256Y029336D01*
X026269Y029323D01*
X026283Y029313D01*
X026299Y029306D01*
X026316Y029302D01*
X026333Y029300D01*
X026333Y029400D02*
X026316Y029398D01*
X026299Y029394D01*
X026283Y029387D01*
X026269Y029377D01*
X026256Y029364D01*
X026246Y029350D01*
X026239Y029334D01*
X026235Y029317D01*
X026233Y029300D01*
X026333Y029300D02*
X030133Y029300D01*
X030233Y029300D02*
X030233Y027900D01*
X030231Y027883D01*
X030227Y027866D01*
X030220Y027850D01*
X030210Y027836D01*
X030197Y027823D01*
X030183Y027813D01*
X030167Y027806D01*
X030150Y027802D01*
X030133Y027800D01*
X030733Y027900D02*
X030733Y029300D01*
X030733Y029400D02*
X030733Y030800D01*
X030735Y030817D01*
X030739Y030834D01*
X030746Y030850D01*
X030756Y030864D01*
X030769Y030877D01*
X030783Y030887D01*
X030799Y030894D01*
X030816Y030898D01*
X030833Y030900D01*
X034633Y030900D01*
X034650Y030898D01*
X034667Y030894D01*
X034683Y030887D01*
X034697Y030877D01*
X034710Y030864D01*
X034720Y030850D01*
X034727Y030834D01*
X034731Y030817D01*
X034733Y030800D01*
X034733Y029400D01*
X034731Y029383D01*
X034727Y029366D01*
X034720Y029350D01*
X034710Y029336D01*
X034697Y029323D01*
X034683Y029313D01*
X034667Y029306D01*
X034650Y029302D01*
X034633Y029300D01*
X034733Y029300D02*
X034731Y029317D01*
X034727Y029334D01*
X034720Y029350D01*
X034710Y029364D01*
X034697Y029377D01*
X034683Y029387D01*
X034667Y029394D01*
X034650Y029398D01*
X034633Y029400D01*
X030833Y029400D01*
X030733Y029400D02*
X030735Y029383D01*
X030739Y029366D01*
X030746Y029350D01*
X030756Y029336D01*
X030769Y029323D01*
X030783Y029313D01*
X030799Y029306D01*
X030816Y029302D01*
X030833Y029300D01*
X030833Y029400D02*
X030816Y029398D01*
X030799Y029394D01*
X030783Y029387D01*
X030769Y029377D01*
X030756Y029364D01*
X030746Y029350D01*
X030739Y029334D01*
X030735Y029317D01*
X030733Y029300D01*
X030833Y029300D02*
X034633Y029300D01*
X034733Y029300D02*
X034733Y027900D01*
X034731Y027883D01*
X034727Y027866D01*
X034720Y027850D01*
X034710Y027836D01*
X034697Y027823D01*
X034683Y027813D01*
X034667Y027806D01*
X034650Y027802D01*
X034633Y027800D01*
X030833Y027800D01*
X030816Y027802D01*
X030799Y027806D01*
X030783Y027813D01*
X030769Y027823D01*
X030756Y027836D01*
X030746Y027850D01*
X030739Y027866D01*
X030735Y027883D01*
X030733Y027900D01*
X031683Y028600D02*
X031883Y028600D01*
X032233Y028600D02*
X033783Y028600D01*
X035283Y028070D02*
X035283Y027870D01*
X036033Y027870D01*
X036033Y026270D01*
X037833Y026270D01*
X037833Y026420D01*
X037983Y026420D02*
X037983Y025750D01*
X037833Y025750D02*
X037833Y025900D01*
X036033Y025900D01*
X036033Y024300D01*
X035283Y024300D01*
X035283Y023930D01*
X035283Y022330D01*
X036033Y022330D01*
X036033Y023930D01*
X037833Y023930D01*
X037833Y023770D01*
X037983Y023780D02*
X037983Y024440D01*
X037833Y024450D02*
X037833Y024300D01*
X036033Y024300D01*
X036283Y024450D02*
X036283Y025750D01*
X037533Y025750D01*
X037533Y026420D02*
X036283Y026420D01*
X036283Y027720D01*
X037533Y027720D01*
X037833Y027720D02*
X037833Y027870D01*
X036033Y027870D01*
X035283Y027870D02*
X035283Y026270D01*
X035283Y025900D01*
X035283Y024300D01*
X035283Y023930D02*
X036033Y023930D01*
X036283Y023780D02*
X037533Y023780D01*
X037533Y024450D02*
X036283Y024450D01*
X036283Y023780D02*
X036283Y022480D01*
X037533Y022480D01*
X037833Y022480D02*
X037833Y022330D01*
X036033Y022330D01*
X036133Y022130D02*
X035683Y022130D01*
X035283Y022130D01*
X035283Y022330D01*
X035683Y022130D02*
X035583Y021930D01*
X036233Y021930D01*
X036133Y022130D01*
X037983Y022130D01*
X037983Y022480D01*
X037983Y022130D02*
X038383Y022130D01*
X038983Y022130D01*
X038983Y028070D01*
X040183Y028070D01*
X040183Y022130D01*
X040183Y021930D01*
X038283Y021930D01*
X038383Y022130D01*
X038983Y022130D02*
X040183Y022130D01*
X040083Y022330D02*
X039083Y022330D01*
X039083Y023930D01*
X040083Y023930D01*
X040083Y022330D01*
X039733Y022570D02*
X039483Y023770D01*
X039433Y023720D02*
X039683Y022520D01*
X039723Y022530D02*
X039699Y022511D01*
X039674Y022495D01*
X039646Y022482D01*
X039618Y022472D01*
X039588Y022465D01*
X039558Y022461D01*
X039528Y022461D01*
X039497Y022465D01*
X039468Y022472D01*
X039439Y022482D01*
X039412Y022495D01*
X039386Y022511D01*
X039363Y022530D01*
X039341Y022552D01*
X039725Y022528D02*
X039765Y022565D01*
X039802Y022605D01*
X039837Y022647D01*
X039868Y022691D01*
X039897Y022737D01*
X039922Y022785D01*
X039944Y022835D01*
X039963Y022886D01*
X039979Y022938D01*
X039990Y022992D01*
X039998Y023045D01*
X040003Y023100D01*
X040004Y023154D01*
X040001Y023208D01*
X039995Y023263D01*
X039985Y023316D01*
X039971Y023369D01*
X039954Y023420D01*
X039933Y023471D01*
X039910Y023520D01*
X039882Y023567D01*
X039852Y023612D01*
X039819Y023655D01*
X039783Y023696D01*
X039744Y023735D01*
X039703Y023770D01*
X039723Y023750D02*
X039699Y023769D01*
X039674Y023785D01*
X039646Y023798D01*
X039617Y023807D01*
X039588Y023812D01*
X039557Y023813D01*
X039527Y023810D01*
X039498Y023804D01*
X039469Y023793D01*
X039442Y023779D01*
X039418Y023762D01*
X039395Y023742D01*
X039376Y023719D01*
X039359Y023693D01*
X039083Y024300D02*
X039083Y025900D01*
X040083Y025900D01*
X040083Y024300D01*
X039083Y024300D01*
X039341Y024522D02*
X039363Y024500D01*
X039386Y024481D01*
X039412Y024465D01*
X039439Y024452D01*
X039468Y024442D01*
X039497Y024435D01*
X039528Y024431D01*
X039558Y024431D01*
X039588Y024435D01*
X039618Y024442D01*
X039646Y024452D01*
X039674Y024465D01*
X039699Y024481D01*
X039723Y024500D01*
X039683Y024490D02*
X039433Y025690D01*
X039483Y025740D02*
X039733Y024540D01*
X039355Y024504D02*
X039320Y024553D01*
X039289Y024605D01*
X039261Y024658D01*
X039236Y024713D01*
X039215Y024769D01*
X039197Y024827D01*
X039183Y024885D01*
X039173Y024945D01*
X039166Y025005D01*
X039163Y025065D01*
X039164Y025125D01*
X039169Y025185D01*
X039177Y025245D01*
X039189Y025304D01*
X039205Y025362D01*
X039225Y025419D01*
X039248Y025475D01*
X039274Y025529D01*
X039304Y025581D01*
X039337Y025632D01*
X039373Y025680D01*
X039359Y025663D02*
X039376Y025689D01*
X039395Y025712D01*
X039418Y025732D01*
X039442Y025749D01*
X039469Y025763D01*
X039498Y025774D01*
X039527Y025780D01*
X039557Y025783D01*
X039588Y025782D01*
X039617Y025777D01*
X039646Y025768D01*
X039674Y025755D01*
X039699Y025739D01*
X039723Y025720D01*
X040083Y026270D02*
X039083Y026270D01*
X039083Y027870D01*
X040083Y027870D01*
X040083Y026270D01*
X039733Y026500D02*
X039483Y027700D01*
X039433Y027650D02*
X039683Y026450D01*
X039723Y026460D02*
X039699Y026441D01*
X039674Y026425D01*
X039646Y026412D01*
X039618Y026402D01*
X039588Y026395D01*
X039558Y026391D01*
X039528Y026391D01*
X039497Y026395D01*
X039468Y026402D01*
X039439Y026412D01*
X039412Y026425D01*
X039386Y026441D01*
X039363Y026460D01*
X039341Y026482D01*
X039725Y026458D02*
X039765Y026495D01*
X039802Y026535D01*
X039837Y026577D01*
X039868Y026621D01*
X039897Y026667D01*
X039922Y026715D01*
X039945Y026765D01*
X039963Y026816D01*
X039979Y026868D01*
X039990Y026922D01*
X039998Y026975D01*
X040003Y027030D01*
X040004Y027084D01*
X040001Y027139D01*
X039995Y027193D01*
X039985Y027246D01*
X039971Y027299D01*
X039954Y027350D01*
X039933Y027401D01*
X039910Y027450D01*
X039882Y027497D01*
X039852Y027542D01*
X039819Y027586D01*
X039783Y027626D01*
X039744Y027665D01*
X039703Y027700D01*
X039723Y027680D02*
X039699Y027699D01*
X039674Y027715D01*
X039646Y027728D01*
X039617Y027737D01*
X039588Y027742D01*
X039557Y027743D01*
X039527Y027740D01*
X039498Y027734D01*
X039469Y027723D01*
X039442Y027709D01*
X039418Y027692D01*
X039395Y027672D01*
X039376Y027649D01*
X039359Y027623D01*
X038983Y028070D02*
X037983Y028070D01*
X037983Y027720D01*
X037983Y028070D02*
X035283Y028070D01*
X035283Y026270D02*
X036033Y026270D01*
X036033Y025900D02*
X035283Y025900D01*
X039703Y025740D02*
X039744Y025705D01*
X039783Y025666D01*
X039819Y025626D01*
X039852Y025582D01*
X039882Y025537D01*
X039910Y025490D01*
X039933Y025441D01*
X039954Y025390D01*
X039971Y025339D01*
X039985Y025286D01*
X039995Y025233D01*
X040001Y025179D01*
X040004Y025124D01*
X040003Y025070D01*
X039998Y025015D01*
X039990Y024962D01*
X039979Y024908D01*
X039963Y024856D01*
X039945Y024805D01*
X039922Y024755D01*
X039897Y024707D01*
X039868Y024661D01*
X039837Y024617D01*
X039802Y024575D01*
X039765Y024535D01*
X039725Y024498D01*
X039373Y023710D02*
X039337Y023662D01*
X039304Y023611D01*
X039274Y023559D01*
X039248Y023505D01*
X039225Y023449D01*
X039205Y023392D01*
X039189Y023334D01*
X039177Y023275D01*
X039169Y023215D01*
X039164Y023155D01*
X039163Y023095D01*
X039166Y023035D01*
X039173Y022975D01*
X039183Y022915D01*
X039197Y022857D01*
X039215Y022799D01*
X039236Y022743D01*
X039261Y022688D01*
X039289Y022635D01*
X039320Y022583D01*
X039355Y022534D01*
X039355Y026464D02*
X039320Y026513D01*
X039289Y026565D01*
X039261Y026618D01*
X039236Y026673D01*
X039215Y026729D01*
X039197Y026787D01*
X039183Y026845D01*
X039173Y026905D01*
X039166Y026965D01*
X039163Y027025D01*
X039164Y027085D01*
X039169Y027145D01*
X039177Y027205D01*
X039189Y027264D01*
X039205Y027322D01*
X039225Y027379D01*
X039248Y027435D01*
X039274Y027489D01*
X039304Y027541D01*
X039337Y027592D01*
X039373Y027640D01*
X033783Y030100D02*
X032233Y030100D01*
X031883Y030100D02*
X031683Y030100D01*
X029283Y030100D02*
X027733Y030100D01*
X027383Y030100D02*
X027183Y030100D01*
X027183Y028600D02*
X027383Y028600D01*
X027733Y028600D02*
X029283Y028600D01*
X035433Y009600D02*
X035433Y009400D01*
X035333Y009500D02*
X035533Y009500D01*
X033733Y009100D02*
X033735Y009163D01*
X033741Y009225D01*
X033751Y009287D01*
X033764Y009349D01*
X033782Y009409D01*
X033803Y009468D01*
X033828Y009526D01*
X033857Y009582D01*
X033889Y009636D01*
X033924Y009688D01*
X033962Y009737D01*
X034004Y009785D01*
X034048Y009829D01*
X034096Y009871D01*
X034145Y009909D01*
X034197Y009944D01*
X034251Y009976D01*
X034307Y010005D01*
X034365Y010030D01*
X034424Y010051D01*
X034484Y010069D01*
X034546Y010082D01*
X034608Y010092D01*
X034670Y010098D01*
X034733Y010100D01*
X034796Y010098D01*
X034858Y010092D01*
X034920Y010082D01*
X034982Y010069D01*
X035042Y010051D01*
X035101Y010030D01*
X035159Y010005D01*
X035215Y009976D01*
X035269Y009944D01*
X035321Y009909D01*
X035370Y009871D01*
X035418Y009829D01*
X035462Y009785D01*
X035504Y009737D01*
X035542Y009688D01*
X035577Y009636D01*
X035609Y009582D01*
X035638Y009526D01*
X035663Y009468D01*
X035684Y009409D01*
X035702Y009349D01*
X035715Y009287D01*
X035725Y009225D01*
X035731Y009163D01*
X035733Y009100D01*
X035731Y009037D01*
X035725Y008975D01*
X035715Y008913D01*
X035702Y008851D01*
X035684Y008791D01*
X035663Y008732D01*
X035638Y008674D01*
X035609Y008618D01*
X035577Y008564D01*
X035542Y008512D01*
X035504Y008463D01*
X035462Y008415D01*
X035418Y008371D01*
X035370Y008329D01*
X035321Y008291D01*
X035269Y008256D01*
X035215Y008224D01*
X035159Y008195D01*
X035101Y008170D01*
X035042Y008149D01*
X034982Y008131D01*
X034920Y008118D01*
X034858Y008108D01*
X034796Y008102D01*
X034733Y008100D01*
X034670Y008102D01*
X034608Y008108D01*
X034546Y008118D01*
X034484Y008131D01*
X034424Y008149D01*
X034365Y008170D01*
X034307Y008195D01*
X034251Y008224D01*
X034197Y008256D01*
X034145Y008291D01*
X034096Y008329D01*
X034048Y008371D01*
X034004Y008415D01*
X033962Y008463D01*
X033924Y008512D01*
X033889Y008564D01*
X033857Y008618D01*
X033828Y008674D01*
X033803Y008732D01*
X033782Y008791D01*
X033764Y008851D01*
X033751Y008913D01*
X033741Y008975D01*
X033735Y009037D01*
X033733Y009100D01*
X034633Y007645D02*
X034633Y007487D01*
X034083Y007425D02*
X034083Y005775D01*
X034633Y005713D02*
X034633Y005555D01*
X034633Y006487D02*
X034633Y006713D01*
X034083Y007425D02*
X034134Y007462D01*
X034187Y007497D01*
X034243Y007529D01*
X034300Y007557D01*
X034359Y007581D01*
X034419Y007602D01*
X034480Y007619D01*
X034542Y007633D01*
X034605Y007642D01*
X034668Y007648D01*
X034732Y007650D01*
X034796Y007648D01*
X034859Y007642D01*
X034922Y007633D01*
X034984Y007620D01*
X035045Y007602D01*
X035105Y007582D01*
X035164Y007557D01*
X035221Y007529D01*
X035277Y007498D01*
X035330Y007464D01*
X035381Y007426D01*
X035430Y007385D01*
X035476Y007341D01*
X035520Y007295D01*
X035561Y007246D01*
X035598Y007195D01*
X035633Y007141D01*
X035664Y007086D01*
X035692Y007029D01*
X035716Y006970D01*
X035736Y006910D01*
X035736Y006290D02*
X035716Y006230D01*
X035692Y006171D01*
X035664Y006114D01*
X035633Y006059D01*
X035598Y006005D01*
X035561Y005954D01*
X035520Y005905D01*
X035476Y005859D01*
X035430Y005815D01*
X035381Y005774D01*
X035330Y005736D01*
X035277Y005702D01*
X035221Y005670D01*
X035164Y005643D01*
X035105Y005618D01*
X035045Y005598D01*
X034984Y005580D01*
X034922Y005567D01*
X034859Y005558D01*
X034796Y005552D01*
X034732Y005550D01*
X034668Y005552D01*
X034605Y005558D01*
X034542Y005567D01*
X034480Y005581D01*
X034419Y005598D01*
X034359Y005619D01*
X034300Y005643D01*
X034243Y005671D01*
X034187Y005703D01*
X034134Y005738D01*
X034083Y005775D01*
D11*
X032653Y006100D03*
X032653Y007600D03*
X029813Y007600D03*
X029813Y006100D03*
X027153Y006600D03*
X024313Y006600D03*
X026813Y009100D03*
X029653Y009100D03*
X029813Y010100D03*
X032653Y010100D03*
X027153Y003600D03*
X027153Y002100D03*
X024313Y002100D03*
X024313Y003600D03*
X017153Y002100D03*
X014313Y002100D03*
X012153Y004600D03*
X012153Y005600D03*
X012153Y007600D03*
X009313Y007600D03*
X009313Y005600D03*
X009313Y004600D03*
X007153Y009600D03*
X004313Y009600D03*
X006813Y012100D03*
X009653Y012100D03*
X008653Y016100D03*
X008653Y017100D03*
X005813Y017100D03*
X005813Y016100D03*
X005653Y021100D03*
X002813Y021100D03*
X006313Y027100D03*
X009153Y027100D03*
X009813Y029600D03*
X012653Y029600D03*
X015313Y029600D03*
X017313Y030600D03*
X018153Y029600D03*
X020153Y030600D03*
X020313Y029600D03*
X023153Y029600D03*
X018653Y023600D03*
X015813Y023600D03*
X020313Y019100D03*
X020313Y017600D03*
X023153Y017600D03*
X023153Y019100D03*
D12*
X022733Y020680D03*
X023733Y020680D03*
X026233Y022680D03*
X023733Y023520D03*
X022733Y023520D03*
X026233Y025520D03*
X017233Y018020D03*
X017233Y015180D03*
X014233Y015020D03*
X012733Y016520D03*
X013233Y019180D03*
X010233Y020180D03*
X008733Y020180D03*
X008733Y023020D03*
X010233Y023020D03*
X013233Y022020D03*
X015233Y025180D03*
X015233Y028020D03*
X005233Y014520D03*
X005233Y011680D03*
X012733Y013680D03*
X014233Y012180D03*
X023733Y012520D03*
X023733Y009680D03*
D13*
X022883Y009425D02*
X022883Y007775D01*
X022283Y008047D02*
X022283Y008153D01*
X022680Y007650D02*
X022734Y007677D01*
X022785Y007707D01*
X022835Y007740D01*
X022883Y007775D01*
X021786Y007650D02*
X021729Y007679D01*
X021673Y007712D01*
X021620Y007747D01*
X021569Y007787D01*
X021521Y007829D01*
X021475Y007874D01*
X021432Y007921D01*
X021392Y007971D01*
X021355Y008024D01*
X021322Y008079D01*
X021291Y008135D01*
X021265Y008194D01*
X021242Y008254D01*
X021222Y008315D01*
X021207Y008377D01*
X021195Y008440D01*
X021187Y008504D01*
X021183Y008568D01*
X021183Y008632D01*
X021187Y008696D01*
X021195Y008760D01*
X021207Y008823D01*
X021222Y008885D01*
X021242Y008946D01*
X021265Y009006D01*
X021291Y009065D01*
X021322Y009121D01*
X021355Y009176D01*
X021392Y009229D01*
X021432Y009279D01*
X021475Y009326D01*
X021521Y009371D01*
X021569Y009413D01*
X021620Y009453D01*
X021673Y009488D01*
X021729Y009521D01*
X021786Y009550D01*
X022283Y009153D02*
X022283Y009047D01*
X022671Y009554D02*
X022727Y009527D01*
X022781Y009496D01*
X022833Y009462D01*
X022883Y009425D01*
X014183Y007653D02*
X014183Y007547D01*
X013786Y008050D02*
X013732Y008023D01*
X013681Y007993D01*
X013631Y007960D01*
X013583Y007925D01*
X013583Y006275D01*
X014183Y006547D02*
X014183Y006653D01*
X013795Y006146D02*
X013739Y006173D01*
X013685Y006204D01*
X013633Y006238D01*
X013583Y006275D01*
X014680Y006150D02*
X014737Y006179D01*
X014793Y006212D01*
X014846Y006247D01*
X014897Y006287D01*
X014945Y006329D01*
X014991Y006374D01*
X015034Y006421D01*
X015074Y006471D01*
X015111Y006524D01*
X015144Y006579D01*
X015175Y006635D01*
X015201Y006694D01*
X015224Y006754D01*
X015244Y006815D01*
X015259Y006877D01*
X015271Y006940D01*
X015279Y007004D01*
X015283Y007068D01*
X015283Y007132D01*
X015279Y007196D01*
X015271Y007260D01*
X015259Y007323D01*
X015244Y007385D01*
X015224Y007446D01*
X015201Y007506D01*
X015175Y007565D01*
X015144Y007621D01*
X015111Y007676D01*
X015074Y007729D01*
X015034Y007779D01*
X014991Y007826D01*
X014945Y007871D01*
X014897Y007913D01*
X014846Y007953D01*
X014793Y007988D01*
X014737Y008021D01*
X014680Y008050D01*
X010683Y015547D02*
X010683Y015653D01*
X010295Y015146D02*
X010239Y015173D01*
X010185Y015204D01*
X010133Y015238D01*
X010083Y015275D01*
X010083Y016925D01*
X010683Y016653D02*
X010683Y016547D01*
X010286Y017050D02*
X010232Y017023D01*
X010181Y016993D01*
X010131Y016960D01*
X010083Y016925D01*
X011180Y017050D02*
X011237Y017021D01*
X011293Y016988D01*
X011346Y016953D01*
X011397Y016913D01*
X011445Y016871D01*
X011491Y016826D01*
X011534Y016779D01*
X011574Y016729D01*
X011611Y016676D01*
X011644Y016621D01*
X011675Y016565D01*
X011701Y016506D01*
X011724Y016446D01*
X011744Y016385D01*
X011759Y016323D01*
X011771Y016260D01*
X011779Y016196D01*
X011783Y016132D01*
X011783Y016068D01*
X011779Y016004D01*
X011771Y015940D01*
X011759Y015877D01*
X011744Y015815D01*
X011724Y015754D01*
X011701Y015694D01*
X011675Y015635D01*
X011644Y015579D01*
X011611Y015524D01*
X011574Y015471D01*
X011534Y015421D01*
X011491Y015374D01*
X011445Y015329D01*
X011397Y015287D01*
X011346Y015247D01*
X011293Y015212D01*
X011237Y015179D01*
X011180Y015150D01*
X011083Y021775D02*
X011083Y023425D01*
X011683Y023153D02*
X011683Y023047D01*
X011286Y023550D02*
X011232Y023523D01*
X011181Y023493D01*
X011131Y023460D01*
X011083Y023425D01*
X012180Y023550D02*
X012237Y023521D01*
X012293Y023488D01*
X012346Y023453D01*
X012397Y023413D01*
X012445Y023371D01*
X012491Y023326D01*
X012534Y023279D01*
X012574Y023229D01*
X012611Y023176D01*
X012644Y023121D01*
X012675Y023065D01*
X012701Y023006D01*
X012724Y022946D01*
X012744Y022885D01*
X012759Y022823D01*
X012771Y022760D01*
X012779Y022696D01*
X012783Y022632D01*
X012783Y022568D01*
X012779Y022504D01*
X012771Y022440D01*
X012759Y022377D01*
X012744Y022315D01*
X012724Y022254D01*
X012701Y022194D01*
X012675Y022135D01*
X012644Y022079D01*
X012611Y022024D01*
X012574Y021971D01*
X012534Y021921D01*
X012491Y021874D01*
X012445Y021829D01*
X012397Y021787D01*
X012346Y021747D01*
X012293Y021712D01*
X012237Y021679D01*
X012180Y021650D01*
X011683Y022047D02*
X011683Y022153D01*
X011295Y021646D02*
X011239Y021673D01*
X011185Y021704D01*
X011133Y021738D01*
X011083Y021775D01*
X004708Y023490D02*
X004633Y023415D01*
X004708Y023490D02*
X004708Y023640D01*
X004633Y023715D01*
X004558Y023715D01*
X004483Y023640D01*
X004483Y023565D01*
X004483Y023640D02*
X004408Y023715D01*
X004333Y023715D01*
X004258Y023640D01*
X004258Y023490D01*
X004333Y023415D01*
X004333Y025415D02*
X004258Y025490D01*
X004258Y025640D01*
X004333Y025715D01*
X004408Y025715D01*
X004708Y025415D01*
X004708Y025715D01*
X004708Y027415D02*
X004708Y027715D01*
X004708Y027565D02*
X004258Y027565D01*
X004408Y027415D01*
X011680Y026650D02*
X011734Y026677D01*
X011785Y026707D01*
X011835Y026740D01*
X011883Y026775D01*
X011883Y028425D01*
X011283Y028153D02*
X011283Y028047D01*
X011671Y028554D02*
X011727Y028527D01*
X011781Y028496D01*
X011833Y028462D01*
X011883Y028425D01*
X010786Y028550D02*
X010729Y028521D01*
X010673Y028488D01*
X010620Y028453D01*
X010569Y028413D01*
X010521Y028371D01*
X010475Y028326D01*
X010432Y028279D01*
X010392Y028229D01*
X010355Y028176D01*
X010322Y028121D01*
X010291Y028065D01*
X010265Y028006D01*
X010242Y027946D01*
X010222Y027885D01*
X010207Y027823D01*
X010195Y027760D01*
X010187Y027696D01*
X010183Y027632D01*
X010183Y027568D01*
X010187Y027504D01*
X010195Y027440D01*
X010207Y027377D01*
X010222Y027315D01*
X010242Y027254D01*
X010265Y027194D01*
X010291Y027135D01*
X010322Y027079D01*
X010355Y027024D01*
X010392Y026971D01*
X010432Y026921D01*
X010475Y026874D01*
X010521Y026829D01*
X010569Y026787D01*
X010620Y026747D01*
X010673Y026712D01*
X010729Y026679D01*
X010786Y026650D01*
X011283Y027047D02*
X011283Y027153D01*
X038258Y027565D02*
X038708Y027565D01*
X038708Y027415D02*
X038708Y027715D01*
X038408Y027415D02*
X038258Y027565D01*
X038333Y025715D02*
X038258Y025640D01*
X038258Y025490D01*
X038333Y025415D01*
X038333Y025715D02*
X038408Y025715D01*
X038708Y025415D01*
X038708Y025715D01*
X038633Y023715D02*
X038708Y023640D01*
X038708Y023490D01*
X038633Y023415D01*
X038483Y023565D02*
X038483Y023640D01*
X038558Y023715D01*
X038633Y023715D01*
X038483Y023640D02*
X038408Y023715D01*
X038333Y023715D01*
X038258Y023640D01*
X038258Y023490D01*
X038333Y023415D01*
X003208Y003155D02*
X003208Y002855D01*
X002908Y003155D01*
X002833Y003155D01*
X002758Y003080D01*
X002758Y002930D01*
X002833Y002855D01*
X003208Y001155D02*
X003208Y000855D01*
X003208Y001005D02*
X002758Y001005D01*
X002908Y000855D01*
D14*
X004883Y005600D02*
X004883Y006100D01*
X004883Y006600D01*
X005233Y006600D02*
X005233Y006100D01*
X005233Y005600D01*
X006233Y007600D02*
X006233Y008100D01*
X006233Y008600D01*
X006583Y008600D02*
X006583Y008100D01*
X006583Y007600D01*
X009383Y010100D02*
X009383Y010600D01*
X009383Y011100D01*
X009733Y011100D02*
X009733Y010600D01*
X009733Y010100D01*
X004233Y013100D02*
X003733Y013100D01*
X003233Y013100D01*
X003233Y013450D02*
X003733Y013450D01*
X004233Y013450D01*
X016233Y005100D02*
X016233Y004600D01*
X016233Y004100D01*
X016583Y004100D02*
X016583Y004600D01*
X016583Y005100D01*
X016883Y009600D02*
X016883Y010100D01*
X016883Y010600D01*
X017233Y010600D02*
X017233Y010100D01*
X017233Y009600D01*
X024733Y010750D02*
X025233Y010750D01*
X025733Y010750D01*
X025733Y011100D02*
X025233Y011100D01*
X024733Y011100D01*
X025733Y005600D02*
X025733Y005100D01*
X025733Y004600D01*
X026083Y004600D02*
X026083Y005100D01*
X026083Y005600D01*
X026733Y019600D02*
X026733Y020100D01*
X026733Y020600D01*
X027083Y020600D02*
X027083Y020100D01*
X027083Y019600D01*
X027233Y023750D02*
X027733Y023750D01*
X028233Y023750D01*
X028233Y024100D02*
X027733Y024100D01*
X027233Y024100D01*
X028733Y025100D02*
X029233Y025100D01*
X029733Y025100D01*
X029733Y025450D02*
X029233Y025450D01*
X028733Y025450D01*
X027733Y028100D02*
X027733Y028600D01*
X027733Y029100D01*
X027383Y029100D02*
X027383Y028600D01*
X027383Y028100D01*
X027383Y029600D02*
X027383Y030100D01*
X027383Y030600D01*
X027733Y030600D02*
X027733Y030100D01*
X027733Y029600D01*
X031883Y029600D02*
X031883Y030100D01*
X031883Y030600D01*
X032233Y030600D02*
X032233Y030100D01*
X032233Y029600D01*
X032233Y029100D02*
X032233Y028600D01*
X032233Y028100D01*
X031883Y028100D02*
X031883Y028600D01*
X031883Y029100D01*
X021733Y022100D02*
X021233Y022100D01*
X020733Y022100D01*
X020733Y021750D02*
X021233Y021750D01*
X021733Y021750D01*
X020583Y025100D02*
X020583Y025600D01*
X020583Y026100D01*
X020233Y026100D02*
X020233Y025600D01*
X020233Y025100D01*
X019233Y027100D02*
X019233Y027600D01*
X019233Y028100D01*
X018883Y028100D02*
X018883Y027600D01*
X018883Y027100D01*
X017233Y027100D02*
X016733Y027100D01*
X016233Y027100D01*
X016233Y027450D02*
X016733Y027450D01*
X017233Y027450D01*
X011233Y025600D02*
X011233Y025100D01*
X011233Y024600D01*
X010883Y024600D02*
X010883Y025100D01*
X010883Y025600D01*
D15*
X007883Y025100D03*
X011383Y009100D03*
D16*
X011758Y009100D03*
X009708Y009100D03*
X008258Y025100D03*
X006208Y025100D03*
M02*
