G75*
G70*
%OFA0B0*%
%FSLAX24Y24*%
%IPPOS*%
%LPD*%
%AMOC8*
5,1,8,0,0,1.08239X$1,22.5*
%
%ADD10OC8,0.0576*%
%ADD11C,0.0576*%
%ADD12OC8,0.0648*%
%ADD13C,0.0576*%
%ADD14OC8,0.0936*%
%ADD15C,0.0936*%
%ADD16C,0.0240*%
%ADD17R,0.0472X0.0472*%
%ADD18C,0.0160*%
D10*
X008733Y004600D03*
X008733Y005600D03*
X008733Y007600D03*
X007733Y009600D03*
X005233Y011100D03*
X006233Y012100D03*
X007233Y014500D03*
X005233Y015100D03*
X005233Y016100D03*
X005233Y017100D03*
X008733Y019600D03*
X010233Y019600D03*
X013233Y018600D03*
X012733Y017100D03*
X014233Y015600D03*
X017233Y014600D03*
X020833Y015100D03*
X023733Y013100D03*
X027733Y011500D03*
X029233Y010100D03*
X030233Y009100D03*
X029233Y007600D03*
X029233Y006100D03*
X027733Y006600D03*
X026233Y009100D03*
X023733Y009100D03*
X023733Y006600D03*
X023733Y003600D03*
X023733Y002100D03*
X027733Y002100D03*
X027733Y003600D03*
X033233Y006100D03*
X034733Y006100D03*
X035483Y006600D03*
X034733Y007100D03*
X033233Y007600D03*
X034733Y008700D03*
X033233Y010100D03*
X023733Y017600D03*
X023733Y019100D03*
X023733Y020100D03*
X022733Y020100D03*
X019733Y019100D03*
X019733Y017600D03*
X017233Y018600D03*
X013233Y022600D03*
X015233Y023600D03*
X015233Y024600D03*
X019233Y023600D03*
X022733Y024100D03*
X023733Y024100D03*
X026233Y022100D03*
X026233Y026100D03*
X023733Y029600D03*
X020733Y030600D03*
X019733Y029600D03*
X018733Y029600D03*
X016733Y030600D03*
X014733Y029600D03*
X015233Y028600D03*
X013233Y029600D03*
X009733Y027100D03*
X009233Y029600D03*
X005733Y027100D03*
X008733Y023600D03*
X010233Y023600D03*
X006233Y021100D03*
X002233Y021100D03*
X009233Y017100D03*
X009233Y016100D03*
X010733Y014000D03*
X012733Y013100D03*
X014233Y011600D03*
X010233Y012100D03*
X012733Y007600D03*
X012733Y005600D03*
X012733Y004600D03*
X013733Y002100D03*
X017733Y002100D03*
X003733Y009600D03*
D11*
X008945Y009100D02*
X009521Y009100D01*
X011945Y009100D02*
X012521Y009100D01*
X013945Y008100D02*
X014521Y008100D01*
X014521Y007100D02*
X013945Y007100D01*
X013945Y006100D02*
X014521Y006100D01*
X021945Y007600D02*
X022521Y007600D01*
X022521Y008600D02*
X021945Y008600D01*
X021945Y009600D02*
X022521Y009600D01*
X011021Y015100D02*
X010445Y015100D01*
X010445Y016100D02*
X011021Y016100D01*
X011021Y017100D02*
X010445Y017100D01*
X011445Y021600D02*
X012021Y021600D01*
X012021Y022600D02*
X011445Y022600D01*
X011445Y023600D02*
X012021Y023600D01*
X009021Y025100D02*
X008445Y025100D01*
X006021Y025100D02*
X005445Y025100D01*
X010945Y026600D02*
X011521Y026600D01*
X011521Y027600D02*
X010945Y027600D01*
X010945Y028600D02*
X011521Y028600D01*
D12*
X010233Y025100D03*
X013233Y025100D03*
X016733Y025100D03*
X018233Y025600D03*
X018233Y027600D03*
X016733Y028100D03*
X021233Y027600D03*
X021233Y025600D03*
X021233Y024100D03*
X021233Y021100D03*
X024733Y020100D03*
X027733Y020100D03*
X027733Y023100D03*
X029233Y023100D03*
X029233Y026100D03*
X027733Y026100D03*
X026733Y028600D03*
X026733Y030100D03*
X029733Y030100D03*
X031233Y030100D03*
X031233Y028600D03*
X029733Y028600D03*
X034233Y028600D03*
X034233Y030100D03*
X025233Y013100D03*
X025233Y010100D03*
X019233Y010100D03*
X016233Y010100D03*
X011733Y010600D03*
X008733Y010600D03*
X007233Y008100D03*
X007233Y006100D03*
X004233Y006100D03*
X004233Y008100D03*
X003733Y011100D03*
X003733Y014100D03*
X014233Y004600D03*
X017233Y004600D03*
X023733Y005100D03*
X026733Y005100D03*
D13*
X022233Y004600D03*
X022233Y003600D03*
X022233Y005600D03*
X022233Y006600D03*
X019233Y006600D03*
X019233Y005600D03*
X019233Y004600D03*
X019233Y003600D03*
X027733Y010700D03*
X021633Y015100D03*
X010733Y013200D03*
X007233Y013700D03*
X022233Y025100D03*
X022233Y026100D03*
X022233Y027100D03*
X022233Y028100D03*
X025233Y028100D03*
X025233Y027100D03*
X025233Y026100D03*
X025233Y025100D03*
X034733Y009500D03*
D14*
X031233Y004600D03*
X030233Y003600D03*
X032233Y003600D03*
X018733Y012600D03*
X017733Y011600D03*
X016733Y012600D03*
X017233Y020100D03*
X016233Y021100D03*
X018233Y021100D03*
X003233Y018100D03*
X002233Y017100D03*
X003233Y016100D03*
D15*
X003265Y023130D02*
X004201Y023130D01*
X004201Y025100D02*
X003265Y025100D01*
X003265Y027070D02*
X004201Y027070D01*
X004201Y003580D02*
X003265Y003580D01*
X003265Y001610D02*
X004201Y001610D01*
X037265Y023130D02*
X038201Y023130D01*
X038201Y025100D02*
X037265Y025100D01*
X037265Y027070D02*
X038201Y027070D01*
D16*
X001733Y002600D02*
X001733Y001600D01*
X002733Y000600D01*
X012233Y000600D01*
X013733Y002100D01*
X014233Y004600D02*
X014233Y006100D01*
X013233Y006100D01*
X012733Y005600D01*
X012733Y004600D01*
X012733Y006600D02*
X013233Y007100D01*
X014233Y007100D01*
X015233Y006600D02*
X015233Y009100D01*
X014233Y010100D01*
X014233Y011600D01*
X013233Y010100D02*
X011233Y012100D01*
X010233Y012100D01*
X009733Y013100D02*
X009833Y013200D01*
X010733Y013200D01*
X010833Y013100D01*
X012733Y013100D01*
X011733Y014100D02*
X011633Y014000D01*
X010733Y014000D01*
X010633Y014100D01*
X009233Y014100D01*
X009233Y016100D01*
X008233Y016100D01*
X007233Y017100D01*
X007233Y015100D01*
X006733Y015100D01*
X007233Y015100D02*
X007233Y014500D01*
X007233Y013700D02*
X007133Y013600D01*
X006733Y013600D01*
X005233Y015100D01*
X005233Y016100D02*
X003233Y016100D01*
X002233Y017100D02*
X005233Y017100D01*
X005233Y018100D02*
X007233Y018100D01*
X007233Y017100D01*
X007233Y018100D02*
X012733Y018100D01*
X013233Y018600D01*
X013733Y019100D01*
X013733Y022100D01*
X015233Y023600D01*
X015233Y017600D01*
X016233Y016600D01*
X021233Y016600D01*
X022733Y018100D01*
X022733Y020100D01*
X023733Y020100D02*
X024733Y020100D01*
X023733Y019100D02*
X024233Y018600D01*
X024733Y018600D01*
X024733Y016100D01*
X022233Y013600D01*
X022233Y011100D01*
X018233Y007100D01*
X018233Y003600D01*
X017733Y003100D01*
X005733Y003100D01*
X004233Y001600D01*
X003733Y001600D01*
X003733Y001610D01*
X002713Y003580D02*
X001733Y002600D01*
X002713Y003580D02*
X003733Y003580D01*
X002733Y004580D01*
X002733Y013100D01*
X003733Y014100D01*
X004733Y014100D01*
X005233Y013600D01*
X006233Y012100D02*
X007233Y013100D01*
X009733Y013100D01*
X008233Y014100D02*
X007733Y013600D01*
X007333Y013600D01*
X005233Y011100D02*
X003733Y011100D01*
X003733Y009600D01*
X004233Y008100D02*
X004233Y006100D01*
X005233Y005100D01*
X008233Y005100D01*
X008733Y005600D01*
X009733Y006600D02*
X012733Y006600D01*
X012733Y007600D02*
X012233Y007600D01*
X011233Y008600D01*
X011233Y010100D01*
X011733Y010600D01*
X011233Y011100D01*
X010733Y011100D01*
X008733Y010600D02*
X008733Y009600D01*
X009233Y009100D01*
X007733Y008600D02*
X007733Y009600D01*
X008733Y010600D01*
X007733Y008600D02*
X007233Y008100D01*
X008733Y007600D02*
X009733Y006600D01*
X008733Y007600D02*
X007233Y006100D01*
X013233Y009100D02*
X013233Y010100D01*
X013233Y009100D02*
X014233Y008100D01*
X015233Y006600D02*
X017233Y004600D01*
X019233Y004600D02*
X019733Y004600D01*
X020233Y004100D01*
X020233Y003100D01*
X019733Y002600D01*
X018233Y002600D01*
X017733Y002100D01*
X022233Y004600D02*
X022733Y004100D01*
X023233Y004100D01*
X023733Y003600D01*
X024733Y003100D02*
X024733Y004100D01*
X023733Y005100D01*
X023233Y005600D01*
X022233Y005600D01*
X022233Y006600D02*
X023733Y006600D01*
X023733Y007600D02*
X026733Y007600D01*
X027733Y006600D01*
X027733Y006100D01*
X026733Y005100D01*
X027733Y003600D02*
X030233Y003600D01*
X030733Y004600D02*
X029233Y006100D01*
X029233Y007600D02*
X031733Y007600D01*
X032733Y008600D01*
X034633Y008600D01*
X034733Y008700D01*
X034733Y009500D02*
X034733Y009600D01*
X034233Y010100D01*
X033233Y010100D01*
X034733Y009500D02*
X034833Y009600D01*
X035233Y009600D01*
X035733Y009100D01*
X035733Y008600D01*
X034733Y007600D01*
X034733Y007100D01*
X034733Y006100D02*
X033233Y006100D01*
X033233Y007600D01*
X031733Y009100D02*
X031733Y010100D01*
X030233Y011600D01*
X027833Y011600D01*
X027733Y011500D01*
X027733Y015100D01*
X026233Y016600D02*
X028733Y019100D01*
X028733Y021100D01*
X030233Y022600D01*
X030233Y026600D01*
X029733Y027100D01*
X026233Y027100D01*
X025233Y028100D01*
X024733Y029100D02*
X025733Y029100D01*
X026233Y029100D01*
X026733Y028600D01*
X027233Y027600D01*
X030233Y027600D01*
X034733Y023100D01*
X037703Y023100D01*
X037733Y023130D01*
X036733Y022130D01*
X036733Y004100D01*
X033233Y000600D01*
X029233Y000600D01*
X027733Y002100D02*
X027733Y003600D01*
X024733Y003100D02*
X023733Y002100D01*
X023733Y007600D02*
X022733Y008600D01*
X022233Y008600D01*
X022233Y009600D02*
X023733Y011100D01*
X023733Y013100D01*
X024733Y012600D02*
X025233Y013100D01*
X025233Y014600D01*
X024733Y012600D02*
X024733Y011100D01*
X023733Y010100D01*
X023733Y009100D01*
X024733Y009600D02*
X025233Y010100D01*
X024733Y009600D02*
X024733Y008600D01*
X026233Y009100D02*
X026233Y016600D01*
X023733Y017200D02*
X023733Y017600D01*
X023733Y017200D02*
X021633Y015100D01*
X021633Y012500D01*
X019233Y010100D01*
X018233Y010100D01*
X017233Y009100D01*
X017233Y007600D01*
X016233Y007100D02*
X016233Y010100D01*
X016733Y010600D01*
X017233Y010600D01*
X017733Y011100D01*
X017733Y011600D01*
X016733Y012600D01*
X017233Y013100D01*
X017233Y014600D01*
X016233Y015600D01*
X014233Y015600D01*
X012733Y017100D02*
X010733Y017100D01*
X010733Y016100D02*
X010233Y016100D01*
X009233Y017100D01*
X008733Y018600D02*
X008233Y018600D01*
X007733Y019100D01*
X007733Y019600D01*
X006233Y021100D01*
X005203Y023130D02*
X003733Y023130D01*
X003263Y023130D01*
X002733Y022600D01*
X002733Y021600D01*
X002233Y021100D01*
X005233Y018100D01*
X004233Y018100D02*
X003233Y018100D01*
X005203Y023130D02*
X008733Y019600D01*
X008733Y018600D02*
X009733Y019600D01*
X010233Y019600D01*
X010233Y022100D01*
X010733Y022600D01*
X011733Y022600D01*
X011733Y023600D02*
X013733Y023600D01*
X014233Y024100D01*
X014233Y028600D01*
X013233Y029600D01*
X011233Y028600D02*
X008733Y028600D01*
X007233Y027100D01*
X005733Y027100D01*
X005703Y027070D01*
X003733Y027070D01*
X008733Y025100D02*
X008733Y023600D01*
X010233Y023600D02*
X011733Y025100D01*
X013233Y025100D01*
X015233Y024600D02*
X015733Y025100D01*
X016733Y025100D01*
X017233Y024600D01*
X019233Y024600D01*
X020233Y025600D01*
X020233Y026600D01*
X021733Y026600D01*
X022233Y026100D01*
X021233Y026100D02*
X021233Y025600D01*
X019233Y023600D01*
X021233Y024100D02*
X021233Y023100D01*
X022733Y023100D02*
X022733Y024100D01*
X022733Y023100D02*
X024733Y023100D01*
X027733Y026100D01*
X029233Y026100D01*
X028733Y024600D02*
X028233Y024600D01*
X028733Y024600D02*
X029233Y024100D01*
X029233Y023100D01*
X027733Y023100D02*
X026733Y022100D01*
X026233Y022100D01*
X024733Y022100D02*
X027733Y020100D01*
X024733Y022100D02*
X017233Y022100D01*
X016233Y021100D01*
X017233Y020100D02*
X017233Y018600D01*
X018233Y021100D02*
X021233Y021100D01*
X024733Y025100D02*
X025233Y025100D01*
X024733Y025100D02*
X024233Y025600D01*
X024233Y029100D01*
X023733Y029600D01*
X021733Y029600D01*
X020733Y030600D01*
X019733Y029600D02*
X019233Y030100D01*
X019233Y030600D01*
X018233Y030600D01*
X017733Y030100D01*
X017733Y028100D01*
X015733Y026100D01*
X015233Y026100D01*
X015233Y024600D02*
X013233Y022600D01*
X011733Y021600D02*
X013233Y020100D01*
X013233Y018600D01*
X018733Y012600D02*
X020733Y014600D01*
X020733Y015100D01*
X020833Y015100D01*
X027733Y010700D02*
X028333Y010100D01*
X029233Y010100D01*
X029233Y009600D01*
X029733Y009100D01*
X030233Y009100D01*
X030733Y004600D02*
X031233Y004600D01*
X032233Y003600D01*
X034733Y024100D02*
X035733Y025100D01*
X035233Y025100D01*
X033733Y026600D01*
X033233Y026600D01*
X031233Y028600D01*
X031233Y030100D01*
X029733Y030100D01*
X028233Y030100D01*
X027233Y031100D01*
X026733Y030100D02*
X025733Y029100D01*
X023233Y028600D02*
X023233Y027600D01*
X022733Y027100D01*
X022233Y027100D01*
X021233Y027100D02*
X021233Y027600D01*
X020733Y029100D02*
X019233Y027600D01*
X018233Y027600D01*
X018233Y028600D01*
X016733Y028100D02*
X016733Y030600D01*
X015233Y028600D02*
X015733Y028100D01*
X016733Y028100D01*
X018233Y026100D02*
X018733Y026600D01*
X019233Y026600D01*
X018233Y026100D02*
X018233Y025600D01*
X019233Y025600D01*
X022733Y029100D02*
X023233Y028600D01*
X022733Y029100D02*
X020733Y029100D01*
X029733Y028600D02*
X029733Y030100D01*
X034233Y030100D02*
X034233Y028600D01*
X034233Y027600D01*
X034763Y027070D01*
X037733Y027070D01*
X037733Y025100D02*
X035733Y025100D01*
X010233Y025100D02*
X008733Y025100D01*
X003733Y023130D02*
X003733Y023100D01*
D17*
X004233Y018100D03*
X006733Y015100D03*
X008233Y014100D03*
X005233Y013600D03*
X010733Y011100D03*
X011733Y014100D03*
X017233Y007600D03*
X016233Y007100D03*
X024733Y008600D03*
X031733Y009100D03*
X025233Y014600D03*
X027733Y015100D03*
X021233Y023100D03*
X019233Y025600D03*
X019233Y026600D03*
X021233Y026100D03*
X021233Y027100D03*
X018233Y028600D03*
X015233Y026100D03*
X024733Y029100D03*
X027233Y031100D03*
X034233Y027600D03*
X034733Y024100D03*
X028233Y024600D03*
X029233Y000600D03*
D18*
X005733Y025100D02*
X003733Y025100D01*
M02*
